<?xml version="1.0" standalone="no"?>
<!DOCTYPE svg>
<svg version="1.0" xmlns="http://www.w3.org/2000/svg"
 width="200.000000pt" height="200.000000pt" viewBox="0 0 200.000000 200.000000"
 preserveAspectRatio="xMidYMid meet">
<metadata>
Created by potrace 1.11, written by Peter Selinger 2001-2013
</metadata>
<g transform="translate(0.000000,200.000000) scale(0.100000,-0.100000)"
fill="#000000" stroke="none">
<path d="M0 1000 l0 -1000 1000 0 1000 0 0 1000 0 1000 -1000 0 -1000 0 0
-1000z m605 275 c94 -65 185 -129 203 -142 l33 -25 -30 -34 c-45 -51 -63 -91
-68 -154 -9 -94 32 -183 109 -237 l41 -28 -64 -57 c-62 -57 -65 -58 -121 -58
l-58 0 19 39 c11 21 31 64 45 94 l24 55 -109 48 -109 48 0 44 0 45 38 -6 c20
-3 60 -9 87 -12 l50 -7 -140 89 -140 89 -7 49 c-4 27 -6 50 -5 51 1 1 67 -25
145 -58 79 -33 145 -58 147 -56 3 3 -271 238 -329 283 -7 6 -16 37 -20 69 l-8
59 49 -35 c26 -19 125 -88 218 -153z m1049 124 l-7 -54 -173 -145 c-95 -80
-171 -146 -169 -148 2 -2 68 23 147 56 78 33 144 59 145 58 1 -1 -1 -24 -5
-51 l-7 -49 -140 -89 c-152 -97 -151 -91 -12 -71 l47 6 0 -44 0 -44 -109 -48
-109 -48 24 -55 c14 -30 34 -73 45 -94 l19 -39 -58 0 c-56 0 -59 1 -121 58
l-64 57 41 28 c77 54 118 143 109 237 -5 64 -23 103 -68 155 l-31 34 44 31
c24 16 135 95 248 174 113 79 206 142 208 141 1 -1 0 -26 -4 -56z m-705 -470
c37 -8 65 -7 106 1 32 7 78 9 111 4 l56 -7 -6 -41 c-4 -22 -13 -47 -20 -54
-17 -17 -77 -26 -121 -18 -29 6 -39 14 -51 42 -17 42 -32 43 -45 5 -23 -67
-165 -70 -190 -4 -20 54 -17 67 21 74 56 10 86 10 139 -2z"/>
<path d="M823 913 c-18 -7 -16 -48 3 -67 19 -19 84 -21 106 -3 24 19 29 45 12
62 -15 14 -93 20 -121 8z m97 -23 c0 -19 -51 -23 -68 -6 -15 15 -13 16 26 16
23 0 42 -4 42 -10z"/>
<path d="M1054 906 c-18 -14 -18 -17 -4 -43 13 -23 23 -28 62 -31 32 -2 50 2
62 13 21 21 21 61 0 69 -29 11 -100 6 -120 -8z m96 -15 c0 -16 -20 -23 -46
-17 -36 9 -29 26 11 26 19 0 35 -4 35 -9z"/>
</g>
</svg>
