<svg id="Layer_1" data-name="Layer 1" xmlns="http://www.w3.org/2000/svg" viewBox="0 0 1510.7 1014.17"><defs><style>.cls-1{fill:#fff;}</style></defs><title>acadnet</title><path class="cls-1" d="M1363.44,763.69l-134,101.95,9,11.81,134.26-102.18C1369.5,771.52,1366.38,767.67,1363.44,763.69Z" transform="translate(-204.65 -452.92)"/><path class="cls-1" d="M1520.35,452.92c-107.67,0-195,87.31-195,195s87.31,195,195,195,195-87.3,195-195S1628,452.92,1520.35,452.92Zm118,164.58V686h-4.78l2.62,4,2.15,2.86v75.29H1398.63V692.88l5.31-6.9h-5.31V618.77l3.64-5.64,0.21-2.49h-3.85v-66l29-29.89h182.41l28.29,29.89v66h-3.14l5,6.85h-1.89Z" transform="translate(-204.65 -452.92)"/><rect class="cls-1" x="1204.87" y="269.59" width="48.36" height="6.05"/><path class="cls-1" d="M1149.63,904.21a133.31,133.31,0,0,0-133.29-133.34H865.89A133.32,133.32,0,0,0,732.59,904.21v150.47A133.33,133.33,0,0,0,865.89,1188h150.45a133.32,133.32,0,0,0,133.29-133.34V904.21Z" transform="translate(-204.65 -452.92)"/><rect class="cls-1" x="1204.87" y="197.05" width="48.36" height="12.09"/><rect class="cls-1" x="1204.87" y="118.46" width="48.36" height="12.1"/><path class="cls-1" d="M938.47,612.59c-235.91,0-427.15,191.28-427.15,427.24a428.82,428.82,0,0,0,8.25,83.71l-75.46,19.51a119.57,119.57,0,1,0,1.24,16.38c0-.46-0.06-0.9-0.07-1.36l77.5-20c44.37,188.61,213.58,329,415.68,329,235.91,0,427.16-191.28,427.16-427.25S1174.38,612.59,938.47,612.59ZM393.41,1182.41a28.66,28.66,0,0,1-24.31-13.55L292.94,1201a29.25,29.25,0,1,1-1.26-4.08l75.39-31.86a28.66,28.66,0,0,1-2.41-11.48,28.21,28.21,0,0,1,.49-4.79L291.77,1128a28.52,28.52,0,1,1,1.85-9.88,29.14,29.14,0,0,1-.59,5.82l73.17,20.82A28.7,28.7,0,1,1,393.41,1182.41Zm799.76-108.29c0,85.73-67,155.88-151.2,161.81l78.72,132.68s-129,.73-177.44.36c-48.33.36-177-.36-177-0.36L846,1236.35c-88.89-.81-159.65-73.11-159.65-162.23V890.81c0-89.61,70.51-163.72,160.1-163.72h183.28c89.58,0,163.44,74.12,163.44,163.72v183.31h0Z" transform="translate(-204.65 -452.92)"/></svg>