<svg id="Layer_1" data-name="Layer 1" xmlns="http://www.w3.org/2000/svg" viewBox="0 0 1667.06 792.72"><defs><style>.cls-1{fill:#fff;}</style></defs><title>ingear</title><g id="Layer_2" data-name="Layer 2"><path class="cls-1" d="M1649.16,1187.45h22V1202h-22v29.87h27.67v14.56h-43.7v-102h43.7V1159h-27.67v28.4Z" transform="translate(-126.47 -563.64)"/><path class="cls-1" d="M1738.61,1246.46h-16.17l-2.79-18.5H1700l-2.79,18.5h-14.69l16.3-102h23.44ZM1702,1214.12h15.44l-7.72-51.58Z" transform="translate(-126.47 -563.64)"/><path class="cls-1" d="M1793.53,1169.67v13.27c0,16.31-7.87,25.2-23.9,25.2h-7.56v38.31h-16v-102h23.61C1785.66,1144.47,1793.53,1153.36,1793.53,1169.67ZM1762.07,1159v34.53h7.56c5.09,0,7.88-2.33,7.88-9.61v-15.3c0-7.3-2.79-9.62-7.88-9.62h-7.56Z" transform="translate(-126.47 -563.64)"/><path class="cls-1" d="M1622.17,1257.61c-0.31.29,0.05,0.13,0.35,0.14Z" transform="translate(-126.47 -563.64)"/><path class="cls-1" d="M1622.52,1257.75l0.25,0.11A0.32,0.32,0,0,0,1622.52,1257.75Z" transform="translate(-126.47 -563.64)"/><path class="cls-1" d="M1624.88,1258.48c-0.62.16-1.19-.35-1.64,0A1.27,1.27,0,0,0,1624.88,1258.48Z" transform="translate(-126.47 -563.64)"/><polygon class="cls-1" points="1497.64 694.4 1497.52 694.61 1498.08 694.36 1497.64 694.4"/><polygon class="cls-1" points="1497.34 694.12 1497.39 694.22 1498.2 694.15 1497.34 694.12"/><path class="cls-1" d="M1626.72,1259l-0.57-.05c-0.45-.42.44-0.34,0.13-0.63-0.69-.14-0.38.6-1.22,0.31,0,0.3,1.39.28,1.15,0.71C1626.9,1259.67,1626.3,1259.11,1626.72,1259Z" transform="translate(-126.47 -563.64)"/><path class="cls-1" d="M1660.72,1261.44l0.08,0C1660.77,1261.44,1660.74,1261.4,1660.72,1261.44Z" transform="translate(-126.47 -563.64)"/><path class="cls-1" d="M1670,1261.71a1.74,1.74,0,0,0,.38.11,0.48,0.48,0,0,0-.14-0.13Z" transform="translate(-126.47 -563.64)"/><path class="cls-1" d="M1654.84,1261.83a2.88,2.88,0,0,0-.36-0.15A0.52,0.52,0,0,0,1654.84,1261.83Z" transform="translate(-126.47 -563.64)"/><path class="cls-1" d="M1714.2,1263.43a0.28,0.28,0,0,0,0,.14h0l0.09-.14h-0.08Z" transform="translate(-126.47 -563.64)"/><path class="cls-1" d="M1680.37,1261.34a1.64,1.64,0,0,0,.42,0A1,1,0,0,0,1680.37,1261.34Z" transform="translate(-126.47 -563.64)"/><path class="cls-1" d="M1651.5,1261.56l0.14,0-0.17-.07,0,0h0Z" transform="translate(-126.47 -563.64)"/><path class="cls-1" d="M1667,1261a1.35,1.35,0,0,0,.33.07A1.18,1.18,0,0,0,1667,1261Z" transform="translate(-126.47 -563.64)"/><path class="cls-1" d="M1635.13,1261.28a0.57,0.57,0,0,0,.41,0A0.33,0.33,0,0,0,1635.13,1261.28Z" transform="translate(-126.47 -563.64)"/><path class="cls-1" d="M1638.45,1261.6h0Z" transform="translate(-126.47 -563.64)"/><path class="cls-1" d="M1640.57,1262.15h0S1640.56,1262.22,1640.57,1262.15Z" transform="translate(-126.47 -563.64)"/><path class="cls-1" d="M1635.55,1261.32c0.24,0.24.22,0.84,0.68,0.27l-0.06-.1a1.29,1.29,0,0,0,.79,0,0.63,0.63,0,0,0-.06-0.17,5.13,5.13,0,0,1-.52-0.17A0.94,0.94,0,0,0,1635.55,1261.32Z" transform="translate(-126.47 -563.64)"/><path class="cls-1" d="M1660.67,1261.56c0-.12-0.25-0.08,0,0h0Z" transform="translate(-126.47 -563.64)"/><path class="cls-1" d="M1657.78,1261.8l0.28,0A0.57,0.57,0,0,0,1657.78,1261.8Z" transform="translate(-126.47 -563.64)"/><path class="cls-1" d="M1647.07,1260.45l0,0C1647.14,1260.41,1647.1,1260.42,1647.07,1260.45Z" transform="translate(-126.47 -563.64)"/><path class="cls-1" d="M1658.32,1261.87l-0.26,0A0.39,0.39,0,0,0,1658.32,1261.87Z" transform="translate(-126.47 -563.64)"/><path class="cls-1" d="M1650.24,1261.25l0,0Z" transform="translate(-126.47 -563.64)"/><path class="cls-1" d="M1758.77,1258.46a1.11,1.11,0,0,1-.58,0c-0.36.52,0.94-.19,0.36,0.32a1.41,1.41,0,0,0,.49-0.23l-0.38-.33C1758.3,1258.42,1759,1258.25,1758.77,1258.46Z" transform="translate(-126.47 -563.64)"/><path class="cls-1" d="M1717,1264l-0.1,0c0.08,0.18,0,.24.4,0.3,0.28-.31-0.24-0.69.26-1a0.79,0.79,0,0,1-.41,0C1717.39,1263.5,1717.2,1263.78,1717,1264Z" transform="translate(-126.47 -563.64)"/><path class="cls-1" d="M1717.15,1263.27l0,0-0.09-.09a0.57,0.57,0,0,1-.22,0A0.62,0.62,0,0,0,1717.15,1263.27Z" transform="translate(-126.47 -563.64)"/><path class="cls-1" d="M1751.6,1259.83h-0.25A0.21,0.21,0,0,0,1751.6,1259.83Z" transform="translate(-126.47 -563.64)"/><path class="cls-1" d="M1679.64,1266.49l-0.3.12A0.42,0.42,0,0,0,1679.64,1266.49Z" transform="translate(-126.47 -563.64)"/><path class="cls-1" d="M1711.8,1264.1a1.17,1.17,0,0,0-.27,0l-0.16,0h0.42Z" transform="translate(-126.47 -563.64)"/><path class="cls-1" d="M1728.39,1258.32c-0.12.48,0.14-.06,0.53,0.16l0.3-.29A2.56,2.56,0,0,0,1728.39,1258.32Z" transform="translate(-126.47 -563.64)"/><polygon class="cls-1" points="1632.6 694.9 1632.59 694.85 1632.57 694.87 1632.6 694.9"/><path class="cls-1" d="M1738.28,1256.71l0.17,0A0.35,0.35,0,0,0,1738.28,1256.71Z" transform="translate(-126.47 -563.64)"/><path class="cls-1" d="M1715.11,1263.26l-1.3.09,0.39,0.08C1714.36,1263.19,1715,1263.56,1715.11,1263.26Z" transform="translate(-126.47 -563.64)"/><path class="cls-1" d="M1722.91,1258.75l-0.15-.27c-1.2.75-2.76,0.1-3.68,1-1.66-.83-0.92,1-2.44.23l0.3,0.14c-4.71.25-10.05,0.3-13.84,0.93v-0.2c-3.79,0-7.27.32-10.76,0.38s-7.08.19-10.59,0.16c-0.66.19-.33,0.62-0.89,0.85-0.25,0-.83,0-0.83-0.25,0.48-.11.2-0.34,0.36-0.43a7.84,7.84,0,0,0-2.52,0l0.58,0.33a2.13,2.13,0,0,1-1,0c0.11-.16-0.25-0.51,0-0.58-1.5.73-1.15-.37-2.41-0.11-0.27.66-1.85,1.15-2.91,1.59l-0.54-.19c0.72,0,0-.49.9-0.42a17.91,17.91,0,0,0-2.15-.08,0.27,0.27,0,0,1-.2.45,4.85,4.85,0,0,0-.95-0.49l0.5-.19a1.05,1.05,0,0,0-.92.09c-0.09-.28-0.82-0.36-0.67-0.66a6.27,6.27,0,0,1-1.64.35c0.73,0.33-.21.36-0.14,0.59l0.85-.08c-1.18-.22.39,0,0.33-0.51,0.55,0.24-.81.75,0.13,0.71-1.13.22-1.36,0-2.52,0.27,0.7,0-.15.3,0.21,0.47-0.88-.06-0.21-0.19-0.46-0.51a1.25,1.25,0,0,0-1.1,0c-0.76-.21.14-0.34-0.24-0.57,0.31-.3,2.12.58,2-0.48,0.4,0,.91-0.31,1.49-0.29a3.43,3.43,0,0,0-1.83-.38l-0.07.58c-0.47,0-.6.36-0.94,0.28,0.19-.16-0.12-0.43-0.5-0.41,0.1,0.09.26,0.09,0.21,0.19-0.71,0-.83.38-1.68,0.41a7.71,7.71,0,0,1,1.44.7c-0.2.4-.46,0-0.85,0,0.06,0,.14-0.05,0-0.15l-0.42.16c-0.85-.25.16-0.59-0.55-0.85-0.47-.38-0.69.14-1.05-0.09,0,0,.41.08,0.43,0.11a0.64,0.64,0,0,1,.18,0v0a3.06,3.06,0,0,0-1.47.24,0.85,0.85,0,0,0-.75,0,8.16,8.16,0,0,1-1.44-.22h0c-0.57,0-1-.2-0.86-0.35l-0.91-.15,0.14-.36a2.11,2.11,0,0,0-1.41.65,3.63,3.63,0,0,0-2.07-.06,1.2,1.2,0,0,0-.33,0l0.33,0.19a10,10,0,0,0-1,.09c0.09,0,.1.08-0.14,0l-0.24-.06a0.23,0.23,0,0,1,.22,0l-0.06-.14c-0.47-.5-0.83.13-1.37-0.1a0.73,0.73,0,0,1,.2,0c-0.3-.15-0.69-0.78-0.86-0.45a0.31,0.31,0,0,0-.3.07l-0.22-.09,0.22,0.09c-0.16.09-.31,0.22-0.32,0.13l-0.8-.19a0.84,0.84,0,0,0-.53,0l-0.11-.19c-0.3,0-.29-0.11-0.25-0.16-0.94-.71-1.61.07-2.63-0.58-0.25.24,0.19,0.43,0.2,0.58a4.33,4.33,0,0,1-1.19.39c-0.44-.45-1.88-1-1.56-1.5-0.89-.17.23,0.38-0.25,0.5l-0.1,0a1.27,1.27,0,0,1,.66.56c0,0.3-.79.28-1,0.16l0.24-.4c-0.86,0-.78.68-1.37,1-0.64-.26-0.2-0.59-0.28-1h-0.72l0-.31a2.14,2.14,0,0,1-1.23.08c0.5-.23-0.89-0.42-0.2-0.74-0.33-.15-0.53.43-0.64,0-0.3.28,0.28,0.24,0.44,0.36,0.06,0.52-.8.09-1.24,0.13,0-.25.33-0.24-0.13-0.5a0.45,0.45,0,0,1-.7,0c-0.06.31-.56,0-0.84-0.13,0.3,0.13.71,0.45,0.45,0.67a1.6,1.6,0,0,1-1-.06l0.36,0.22c-0.57.36-.74-0.5-1.42-0.49a4.32,4.32,0,0,0,.77-0.28,11.41,11.41,0,0,1-1.49.24l-0.47-.57c-0.11.21-.62-0.15-0.68,0.16-0.65-.35.63-0.27,0.74-0.48-0.82-.38-0.79.38-1.53-0.27l0.33-.24a1.92,1.92,0,0,1-.86-0.18c0,0.11.13,0.09,0.3,0.13-0.3.59-1.36,0.18-1.39,0.84l0.38,0.12c-0.61,0-1.12.36-1.52,0s0.33-.39.58-0.51c-0.54-.16-0.6.61-1.25,0.42,0.33,0.17.21,0.39,0,.51,0.37,0.12,1.14.41,1.06,0.11l-0.13-.09a0.7,0.7,0,0,1,.41-0.24c0.52,0.11.18,0.34,0.26,0.49,0.85,0.28.2-.63,1-0.45l0.08,0.15a1.58,1.58,0,0,0,1.19-.37c0.27,0.49.93,0,1.26,0.34-0.11.93-1.33-.34-1.89,0.07,0.38,0.27-.33.39-0.55,0.56l1.4-.13c0.08,0.15.38,0.68,0.68,0.4l-0.1,0c0.54,0,.48-0.4.9-0.19a0.32,0.32,0,0,1-.16.27c0.4,0.17.39-.14,0.68-0.16,0.4,0.17-.28.33,0,0.51,0.55-.26.75,0.24,1.17,0.3-0.08-.56,1.79-0.37,1-1l1.06-.15c0.27,0.33-.81.59-0.62,1.09l-0.8-.18c0,0.67,1.75-.08,2.15.75a2.22,2.22,0,0,1,1.1.43l0-.6a0.8,0.8,0,0,1,.49.64,2.63,2.63,0,0,1,.7.1,0.48,0.48,0,0,1-.33.15c0.27,0.37.38,0.26,0.52,0.1a1.05,1.05,0,0,1,.72,0l-0.28.18a0.55,0.55,0,0,0,.41-0.16,1,1,0,0,0,.33,0,1.36,1.36,0,0,0-.53-0.68,8.78,8.78,0,0,1,2.51.95,2.86,2.86,0,0,0-.34.36,0.69,0.69,0,0,0,.91-0.34h0.24a0.53,0.53,0,0,0,.34.38,0.38,0.38,0,0,0,.25.16c0.21-.44,1-0.1,1.19-0.28a2.13,2.13,0,0,0-.66-0.12c0.38-.26.74-0.57,1-0.29-0.67.21,0.6,0.58-.36,0.57,0.59,0.68.41-.37,1.08-0.06l0.42-.56c-0.11.33-.76-0.65-0.67-0.65h0.33c-0.35,0-1.53.73-2.32,1l1.46-.37c1.92-.14,4.2,3.16,5.87-0.63h-0.07s0,1.1.09,1l0.06,0.69,0.34,0.09a6.46,6.46,0,0,0,1.53.92c-0.33-.24-0.33-0.17-0.34-0.42s0.18-.43.7-0.27c0,0.24-.35.23,0,0.45-0.19-.14,0-0.28.24-0.29a1.29,1.29,0,0,1,.76.5,0.4,0.4,0,0,1-.34-0.08c-0.14.05,0.54,0.27,0.11,0.43l0.55,0c0.3,0.23-.24.3-0.13,0.44,0.92-.09,1.43-0.6,2.26-0.7a2.65,2.65,0,0,0-.09.51c0.61,0.22,1.4-.47,2.11-0.45a1.12,1.12,0,0,1-.6.12,38.73,38.73,0,0,1,6,1.24l0.57-.51,0.51,0.41c2.14,0.51,3.82.15,5.88,0.07,0.64,0,.37.4,0.66,0.56,1.41,0.11,1.77-.5,3.11-0.58-0.19.16-.52,0.63,0.06,0.67a0.43,0.43,0,0,1,.55-0.3l-0.19.16c0.33,0.26.65,0,1.34,0.17a6.57,6.57,0,0,0,3.39-.9c1.08,0.07-.11.6,0.09,0.72-0.76-.23-0.53.08-0.7,0.27a0.83,0.83,0,0,1,1.09.17,2.81,2.81,0,0,0,1.37-.29c-0.28.14-.52-0.08-0.26-0.26,0.46,0.13,1.62,0,1.56.46,2.65-.13,5.62-0.06,8.46-0.12,0.47-.26-0.37-0.09-0.11-0.28,0.69-.34.56,0.16,1.11-0.11l-0.22.27a6.9,6.9,0,0,0,2.49-.78c-0.12.31,0.67,0.22,0,.44,0.39-.08.92,1.27,1.21,1l-0.49-1.26c0-.13.57-0.08,0.51-0.16a2.48,2.48,0,0,0,1,.49c0.13,0.32-.47.28-0.8,0.29,0,0.54,1.11.28,0.66,0.81,0.7-.13-0.11-0.27.3-0.49l0.62,0.08-0.48-.16c0.5-.19.66-0.61,1.35-0.34l0.68-.56c0.09,0.42.52,0.05,0.89,0.13l-0.21.28a1.61,1.61,0,0,1,1,.16c-0.25.39-.44-0.07-0.54,0.3l0.54,0.09c0-.24.31-0.45-0.08-0.57a2.18,2.18,0,0,1,1.94-.89c0.58,0.38-.58.4-0.32,0.79,1.29,0.11,1.49-1.16,2.24-1.15,1,0.12.88-.26,1.84-0.34-0.28.3,0.7,0.26,0.89,0.5l-0.36.33c0.29-.11.58,0,0.5,0.18-0.08-.38,1.22-0.47,1.87-0.71l-0.14-.31a5.72,5.72,0,0,1,1.77-.39c0.81-.18.59-0.45,1.19-0.86a0.82,0.82,0,0,1,.28,1,3.57,3.57,0,0,0-1-.08c-1,.38-1.75,1.13-2.8,1.07-0.39.83,0.69-.16,1.21,0.08a0.1,0.1,0,0,1-.08.08,0.3,0.3,0,0,1,.13,0,1.38,1.38,0,0,0-1,.72c0.61-.14.38-0.82,1.18-0.56,0.55-.27,1.07.3,1.42,0.32,0.36-.33.31-1,1.26-0.92l-0.37.48c1.06-.09.44-0.69,1.42-0.76-0.35,0,.29-0.46-0.36-0.41a2.21,2.21,0,0,1,1.55-.3c0.13-.08,0-0.15,0-0.3-0.62-.25-0.9.38-1.42,0l-0.36.51c-0.56-.12-0.65-0.5-0.33-0.71a0.54,0.54,0,0,1-.4,0c-0.16-.7.67,0.19,0.81-0.43l-0.38.09c-0.21-.45.86-0.49,1.36-0.5,0.58,0.17,1.1.2,1.17,0.53l-0.74.22c0.42,0.23.95-.25,1.39-0.27a0.3,0.3,0,0,0,.13.09,0.13,0.13,0,0,1,0-.09,0.43,0.43,0,0,1,.26.11,6.33,6.33,0,0,1,1.3-.2l-0.08-.3,0,0.17c-0.35,0-.85-0.12-0.61-0.37a0.94,0.94,0,0,1,1.21.52c-0.13.48-.78,0.07-1.16,0.26,0.29,0.43.81,0,1.67,0.2-0.27.53-1,.08-1.09,0.56,0.67,0,.81-0.34,1.52-0.28-0.06.24-.74,0.32-0.66,0.61l0.47,0.1c-1.1.13,0.26,0.6-.59,0.8,0.43,0.16.52-.45,1.14-0.2-0.19-.19-0.69-0.55-0.16-0.8l0.64,0.06c0.29,0.21-.59.61-0.16,0.76l0.63-.25c0-.14-0.36-0.18-0.19-0.41,0.4,0.11.55-.65,1-0.92a1,1,0,0,1,.78.12c0.83-.55,2-0.68,2.72-1.2-0.52.37,0.08,0.5,0.45,0.68a0.63,0.63,0,0,0-.5.9c0.39-.1.58-0.61,0.36-0.74,0.68,0.11.41-.38,1-0.14,0.39,0.11-.13.48,0,0.64,0.71-.07.12-0.59,0.9-0.58,0,0.07-.1.09,0,0.17a0.88,0.88,0,0,0,.9-0.47c0.52,0.55,1.23-.22,1.22.38,1-.29-0.19-0.3,0-0.53a1.92,1.92,0,0,1,1.41-.13,1.75,1.75,0,0,1-.7.17l0.27,0.38c1.29,0.13.66-1,1.91-.86-0.59.31-.16,0.34-0.42,0.68,0.17-.13,1.13-0.17.52-0.39a6.88,6.88,0,0,1,1.1,0,2.79,2.79,0,0,0,1-.7,3.16,3.16,0,0,1,1.48.28c1.28-.5,2.58-0.2,3.93-0.74h-0.11c1.1-.1-0.57-0.46.56-0.63-0.06.52,0.73,0.23,1.14,0.43,1.42,0,2.31-.81,3.63-0.71a0.3,0.3,0,0,1-.29.3,18.69,18.69,0,0,0,2.63-.41l0,0.07c1.48,0.14,2.65-.59,4.07-1a2,2,0,0,0-.17.36,3.45,3.45,0,0,0,2.34-.78c1,0.3.54-.27,1.75,0,0.08,0.07-.09.11-0.16,0.14a7.25,7.25,0,0,0,1.52-.15c1.15-.58,1.3-1.28,2.76-1.39,0.22,0.65-.83.35-0.74,0.89a1.07,1.07,0,0,1,.89-0.3,1.28,1.28,0,0,0-.12.45c0.34,0.11,1-1,1-.91,0-.13-0.13-0.18-0.41-0.09,0.23-.49,1.37-0.37,2-0.7-0.22,0-.95.08-0.76-0.3,0.94-.08,1.1-0.79,1.67-1.21,0.91,0.1-.49.71-0.21,1.14,0.18,0.14.61,0.43,0.3,0.7a6.69,6.69,0,0,0,1.88-.88v0.14c0.93-.29,1.79-1.09,2.64-1l-0.45,0a2.17,2.17,0,0,0,.81-0.55c0,0.22.69,0.26,0.49,0.51,0.23-.81,2-1,2.3-1.78,0.3,0.11.17,0.44,0.14,0.62a1.21,1.21,0,0,0-1.08.38c0.49-.14.9-0.06,0.86,0.12,0.38-.56,1.5-1,1.62-1.55,0.42,0.13.79,0.14,0.77,0.53,1.44-.66-1.05-0.9.64-1.38,0.87,0.13-.62.69,0.48,0.5l-0.18.11c1,0.7.35-.81,1.22-1,0.27,0.47-.5.53,0.2,0.72,0.76-.36.89-1.19,1.72-1.28l-0.06.25c0.49-.19,1.51-0.4,2-0.6,0.06,0.09,0,.1-0.11.16,1-.1.31-0.38,1.19-0.28l0.14-.31a2.14,2.14,0,0,0-1.66.38c0.39-.44-1-0.4-0.85-0.9l0,0.2a15.22,15.22,0,0,0-4.81.21c-0.86.81-1.78,0.27-2.77,0.92,0,0.64-.17.17-1.08,0.54,0.48-.21-0.06-0.47-0.39-0.46a1.57,1.57,0,0,1-.56.43c-0.24-.16-1.54-0.32-1.87.2-0.62,0,.08-0.22.18-0.38-0.31-.24-0.4.36-0.64,0.2a0.13,0.13,0,0,1,0-.11,19.15,19.15,0,0,1-2.36.35c0.07,0.6-.84.44-1.19,0.75,0.08-.22-0.56-0.1-0.85-0.14l-0.38.55c-0.39.49-.74-0.1-1.31,0.25l0.17,0.07a3.27,3.27,0,0,1-2.22,0c-4,2.05-6.68.83-11.09,2-0.26.24,0.27,0.26,0.09,0.57a5.51,5.51,0,0,1-1,.24c0.4,0.09.3-.1,0.29,0.08l0.6-.29a0.29,0.29,0,0,0,0,.14,2,2,0,0,1,.71-0.28c-0.36.23-.39,0.69-1,0.62a0.41,0.41,0,0,1,.23-0.16,2.93,2.93,0,0,1-.79.21c-0.42,0-.3.1-0.39-0.08h-1.31a1.59,1.59,0,0,1-1.62.28c0.07-.42.81-0.28,1.06-0.72l-0.51-.2,0,0.32-0.67,0,0-.07c-0.05.14-.11,0.27-0.3,0.2s-0.11-.11,0-0.14l-0.43.26c0.21-.38-0.42,0-0.42-0.41-1.55.08-1.84,0.82-3.27,0.53,0.25,0.14-.33.66-0.75,0.66-0.25-.05-0.33-0.13-0.2-0.3l-0.51.28c-0.77-.48-1.37,0-2.39,0l0-.17a2.14,2.14,0,0,1-1.27.5l0-.35c-0.71-.13-0.41.78-1.19,0.69a5.26,5.26,0,0,0,.68.79c-0.23-.33-1-0.26-0.81,0-0.72.27-.52,0.07-0.59,0l-0.41.29c-0.53.06-.24-0.44-0.08-0.67a1.9,1.9,0,0,1-1.57.26l0.2-.19-0.74,0a2.47,2.47,0,0,1-1.73.38l0.36-.52c-0.47-.19-0.2.19-0.3,0.29a1,1,0,0,1-1.23-.2C1725,1259,1723.75,1257.92,1722.91,1258.75Zm-75.61,2,0.09,0.08C1647.16,1260.84,1647,1260.9,1647.3,1260.71Zm6,0.91c-0.75.13-.49-0.08-0.53-0.22,0.7,0.19,1.11.07,1.73,0.28a0.69,0.69,0,0,1-.12-0.31,0.63,0.63,0,0,1,.55.42C1654.55,1262.23,1653,1261.32,1653.29,1261.62Zm-13.88.49,0.1-.09h0Zm3.67,0.09a0.4,0.4,0,0,0,.22.23C1643.25,1262.29,1643.2,1262.18,1643.07,1262.2Zm7.1,1.59a1,1,0,0,0,.81.21A4.64,4.64,0,0,0,1650.18,1263.79Zm45.65,1.45c-0.22.09-.62,0.31-0.24,0.44,0.17-.18.53,0.1,0.67-0.17l0,0A2.26,2.26,0,0,0,1695.83,1265.24Zm21.25-3.16a0.79,0.79,0,0,0,0,.56H1717c0.06,0.06.11,0.11,0.08,0.16a0.84,0.84,0,0,0,.48,0C1717.52,1262.13,1717.87,1262,1717.07,1262.08Z" transform="translate(-126.47 -563.64)"/><path class="cls-1" d="M1710.18,1265.35l0.2,0Z" transform="translate(-126.47 -563.64)"/><path class="cls-1" d="M1717.49,1262.78a0.93,0.93,0,0,0-.45-0.14A0.59,0.59,0,0,0,1717.49,1262.78Z" transform="translate(-126.47 -563.64)"/><path class="cls-1" d="M1628.21,1257.77l0.22,0-0.38-.27a1.22,1.22,0,0,0-1.07.61,5,5,0,0,1,1.85.14Z" transform="translate(-126.47 -563.64)"/><path class="cls-1" d="M1628.12,1259.92a1,1,0,0,0,.28.38l0.14-.17Z" transform="translate(-126.47 -563.64)"/><path class="cls-1" d="M1636.22,1262.53l-0.63-.3C1635.35,1262.35,1636.07,1262.8,1636.22,1262.53Z" transform="translate(-126.47 -563.64)"/><path class="cls-1" d="M1633.89,1258.63l-0.38.14a0.58,0.58,0,0,0,.81.08C1633.88,1258.88,1634.23,1258.7,1633.89,1258.63Z" transform="translate(-126.47 -563.64)"/><path class="cls-1" d="M1638,1262.86c0.27-.35.64,0.27,0.84-0.08C1638.66,1262.86,1638.11,1262.48,1638,1262.86Z" transform="translate(-126.47 -563.64)"/><path class="cls-1" d="M1638.14,1259.2c-0.15-.39-0.55-0.11-1-0.27C1637.53,1259,1638,1259.43,1638.14,1259.2Z" transform="translate(-126.47 -563.64)"/><path class="cls-1" d="M1641.77,1262.29c-0.08.27-.36,0.21-0.66,0.1a1.09,1.09,0,0,1,.36-0.21,6.7,6.7,0,0,1-1,.16c0.39,0.25,1,.46.89,0.79C1641.68,1262.92,1642.12,1262.6,1641.77,1262.29Z" transform="translate(-126.47 -563.64)"/><path class="cls-1" d="M1639.16,1259.3a2.45,2.45,0,0,0-.92-0.47,0.58,0.58,0,0,0,.63.52l-0.23.29C1639.06,1259.93,1638.53,1259.19,1639.16,1259.3Z" transform="translate(-126.47 -563.64)"/><path class="cls-1" d="M1643.6,1263.3l-0.19-.17c-0.53.18-1.14,0-1.49,0.33A3.92,3.92,0,0,0,1643.6,1263.3Z" transform="translate(-126.47 -563.64)"/><path class="cls-1" d="M1640.77,1260.13l0.14-.43c-0.48-.13,0,0.16-0.18.23a0.49,0.49,0,0,0-.45-0.08C1640.85,1259.86,1640.26,1260.21,1640.77,1260.13Z" transform="translate(-126.47 -563.64)"/><path class="cls-1" d="M1642.45,1259.87l0.65-.1-0.41-.55C1641.93,1259.28,1642.61,1259.49,1642.45,1259.87Z" transform="translate(-126.47 -563.64)"/><path class="cls-1" d="M1643.17,1260.27l0.06,0.09,1-.52A3.81,3.81,0,0,0,1643.17,1260.27Z" transform="translate(-126.47 -563.64)"/><path class="cls-1" d="M1654.27,1264.61c0.13-.18-0.41-0.46-0.19-0.23C1653.95,1264.53,1654.67,1264.84,1654.27,1264.61Z" transform="translate(-126.47 -563.64)"/><path class="cls-1" d="M1652.37,1260.87a3.25,3.25,0,0,0,1.56-.13C1653.47,1260.8,1652.34,1260.61,1652.37,1260.87Z" transform="translate(-126.47 -563.64)"/><path class="cls-1" d="M1654.1,1260.71l-0.16,0A0.52,0.52,0,0,0,1654.1,1260.71Z" transform="translate(-126.47 -563.64)"/><path class="cls-1" d="M1670.32,1260.9a0.2,0.2,0,0,0,.12,0Z" transform="translate(-126.47 -563.64)"/><path class="cls-1" d="M1669.93,1261a1,1,0,0,0-.88.23,6.36,6.36,0,0,0,1.27-.33C1670.13,1260.92,1669.92,1260.76,1669.93,1261Z" transform="translate(-126.47 -563.64)"/><path class="cls-1" d="M1673.64,1261.22c-0.2.11-.46,0-0.4,0.23S1673.76,1261.35,1673.64,1261.22Z" transform="translate(-126.47 -563.64)"/><path class="cls-1" d="M1698.94,1266.59c0.37,0.08.58,0,.47-0.28A0.84,0.84,0,0,0,1698.94,1266.59Z" transform="translate(-126.47 -563.64)"/><polygon class="cls-1" points="1573.4 702.59 1573.46 702.72 1573.71 702.92 1573.4 702.59"/><path class="cls-1" d="M1702.4,1266.5a0.27,0.27,0,0,1-.14.13C1702.39,1266.58,1702.52,1266.54,1702.4,1266.5Z" transform="translate(-126.47 -563.64)"/><path class="cls-1" d="M1702.19,1266.65l0.07,0Z" transform="translate(-126.47 -563.64)"/><path class="cls-1" d="M1702,1266.57l0,0.15,0.19-.07A0.14,0.14,0,0,1,1702,1266.57Z" transform="translate(-126.47 -563.64)"/><path class="cls-1" d="M1703.16,1266.51l-0.5-.4c-0.49.24,0.58,0.19,0.12,0.67Z" transform="translate(-126.47 -563.64)"/><path class="cls-1" d="M1704.81,1266.3c0.47,0.11,1.08-.59,1.37-0.11,1.27-.33-0.36-0.81,1.1-1.09-1.41-.18-0.64,1-1.89.79C1706,1266.18,1705,1266.16,1704.81,1266.3Z" transform="translate(-126.47 -563.64)"/><path class="cls-1" d="M1704.54,1265.47c-0.06.25,0.52,0.24,0.69,0.07C1705.06,1265.52,1704.75,1265.18,1704.54,1265.47Z" transform="translate(-126.47 -563.64)"/><polygon class="cls-1" points="1580.86 702.29 1581.26 702.45 1581.35 702.28 1580.86 702.29"/><path class="cls-1" d="M1708.82,1265.9l-0.36.33C1708.58,1266.1,1709.16,1266.07,1708.82,1265.9Z" transform="translate(-126.47 -563.64)"/><path class="cls-1" d="M1710.93,1266.07c0.37,0.06.64-.64-0.11-0.42H1711C1711,1265.77,1711.4,1266,1710.93,1266.07Z" transform="translate(-126.47 -563.64)"/><path class="cls-1" d="M1715.64,1264.57c-0.25,0-.53.12-0.47,0.25l0.67-.2Z" transform="translate(-126.47 -563.64)"/><path class="cls-1" d="M1715.39,1263c-0.27-.39-0.63.09-1.09,0A3.18,3.18,0,0,0,1715.39,1263Z" transform="translate(-126.47 -563.64)"/><path class="cls-1" d="M1716.48,1265.08a0.72,0.72,0,0,1-.63.09A0.39,0.39,0,0,0,1716.48,1265.08Z" transform="translate(-126.47 -563.64)"/><path class="cls-1" d="M1717.55,1264.84a1.24,1.24,0,0,1,.15.33,1.32,1.32,0,0,0,1.24-.18,0.82,0.82,0,0,1-.19-0.84c-0.74.22-1.06,1-1.49,0.46l-0.56.77C1717.33,1265.43,1717.13,1264.83,1717.55,1264.84Z" transform="translate(-126.47 -563.64)"/><path class="cls-1" d="M1715.88,1263.63l0.43,0.2c-0.11-.22.2-0.3,0.41-0.39C1716.56,1262.94,1716.11,1263.58,1715.88,1263.63Z" transform="translate(-126.47 -563.64)"/><polygon class="cls-1" points="1595.26 700.43 1596.11 700.2 1595.82 700.2 1595.26 700.43"/><polygon class="cls-1" points="1595.83 700.52 1595.87 700.67 1596.5 700.31 1595.83 700.52"/><polygon class="cls-1" points="1596.76 700.58 1596.65 700.57 1596.16 700.77 1596.76 700.58"/><path class="cls-1" d="M1725,1264.09l-0.19-.2c-0.21.09-.68-0.1-0.6,0.19A0.78,0.78,0,0,1,1725,1264.09Z" transform="translate(-126.47 -563.64)"/><path class="cls-1" d="M1730.19,1257.8c-0.13.16,0,.28,0.09,0.4l0.19-.4A0.25,0.25,0,0,1,1730.19,1257.8Z" transform="translate(-126.47 -563.64)"/><path class="cls-1" d="M1731.3,1258.26l0.56-.52a6,6,0,0,0-1.41.55c0.29,0.1.62-.26,1-0.2Z" transform="translate(-126.47 -563.64)"/><path class="cls-1" d="M1743.92,1256.5c0,0.28.13,0.22-.31,0.48a9.73,9.73,0,0,1,1.89-.52c-0.16-.15.33-0.54,0.07-0.42l-0.78.32,0.09-.21C1744.26,1256.05,1744.56,1256.52,1743.92,1256.5Z" transform="translate(-126.47 -563.64)"/><path class="cls-1" d="M1777.12,1251.68a0.34,0.34,0,0,0,.23.32C1777.78,1251.71,1777,1251.73,1777.12,1251.68Z" transform="translate(-126.47 -563.64)"/><path class="cls-1" d="M1780.48,1128.95c0.31-.29,0-0.13-0.35-0.14Z" transform="translate(-126.47 -563.64)"/><path class="cls-1" d="M1780.13,1128.8l-0.25-.11A0.32,0.32,0,0,0,1780.13,1128.8Z" transform="translate(-126.47 -563.64)"/><path class="cls-1" d="M1777.77,1128.07c0.62-.15,1.19.35,1.63,0A1.27,1.27,0,0,0,1777.77,1128.07Z" transform="translate(-126.47 -563.64)"/><polygon class="cls-1" points="1652.08 564.87 1652.2 564.66 1651.63 564.91 1652.08 564.87"/><polygon class="cls-1" points="1652.38 565.15 1652.33 565.05 1651.52 565.13 1652.38 565.15"/><path class="cls-1" d="M1775.94,1127.53l0.57,0c0.45,0.41-.44.34-0.13,0.63,0.69,0.14.38-.6,1.22-0.31,0-.3-1.39-0.28-1.15-0.71C1775.75,1126.89,1776.36,1127.44,1775.94,1127.53Z" transform="translate(-126.47 -563.64)"/><path class="cls-1" d="M1741.93,1125.11l-0.08,0S1741.91,1125.15,1741.93,1125.11Z" transform="translate(-126.47 -563.64)"/><path class="cls-1" d="M1732.66,1124.84a2,2,0,0,0-.38-0.11,0.49,0.49,0,0,0,.14.13Z" transform="translate(-126.47 -563.64)"/><path class="cls-1" d="M1747.81,1124.73a2.88,2.88,0,0,0,.36.15A0.52,0.52,0,0,0,1747.81,1124.73Z" transform="translate(-126.47 -563.64)"/><path class="cls-1" d="M1688.45,1123.13a0.28,0.28,0,0,0,0-.14h0l-0.09.14h0.07Z" transform="translate(-126.47 -563.64)"/><path class="cls-1" d="M1722.28,1125.22a1.65,1.65,0,0,0-.42,0A0.87,0.87,0,0,0,1722.28,1125.22Z" transform="translate(-126.47 -563.64)"/><path class="cls-1" d="M1751.16,1125l-0.14,0,0.17,0.07,0,0h0Z" transform="translate(-126.47 -563.64)"/><path class="cls-1" d="M1735.65,1125.57a1.19,1.19,0,0,0-.33-0.07A1.06,1.06,0,0,0,1735.65,1125.57Z" transform="translate(-126.47 -563.64)"/><path class="cls-1" d="M1767.51,1125.27a0.59,0.59,0,0,0-.41,0A0.33,0.33,0,0,0,1767.51,1125.27Z" transform="translate(-126.47 -563.64)"/><path class="cls-1" d="M1764.21,1125.17h0Z" transform="translate(-126.47 -563.64)"/><path class="cls-1" d="M1762.09,1124.4h0S1762.09,1124.34,1762.09,1124.4Z" transform="translate(-126.47 -563.64)"/><path class="cls-1" d="M1767.1,1125.23c-0.24-.24-0.22-0.84-0.68-0.27l0.06,0.1a1.29,1.29,0,0,0-.79,0,0.57,0.57,0,0,0,.06.17,5.4,5.4,0,0,1,.52.18A1,1,0,0,0,1767.1,1125.23Z" transform="translate(-126.47 -563.64)"/><path class="cls-1" d="M1742,1125c0,0.13.25,0.08,0,0h0Z" transform="translate(-126.47 -563.64)"/><path class="cls-1" d="M1744.87,1124.75l-0.28,0A0.5,0.5,0,0,0,1744.87,1124.75Z" transform="translate(-126.47 -563.64)"/><path class="cls-1" d="M1755.58,1126.11l0,0C1755.51,1126.14,1755.55,1126.13,1755.58,1126.11Z" transform="translate(-126.47 -563.64)"/><path class="cls-1" d="M1744.33,1124.68l0.26,0A0.42,0.42,0,0,0,1744.33,1124.68Z" transform="translate(-126.47 -563.64)"/><path class="cls-1" d="M1752.41,1125.3l0,0Z" transform="translate(-126.47 -563.64)"/><path class="cls-1" d="M1643.88,1128.1a1.09,1.09,0,0,1,.58,0c0.36-.52-0.94.19-0.36-0.32a1.41,1.41,0,0,0-.49.23l0.38,0.33C1644.36,1128.15,1643.69,1128.31,1643.88,1128.1Z" transform="translate(-126.47 -563.64)"/><path class="cls-1" d="M1685.66,1122.54l0.09,0c-0.08-.18,0-0.24-0.4-0.3-0.27.31,0.24,0.69-.26,1a0.79,0.79,0,0,1,.41,0C1685.26,1123.06,1685.45,1122.77,1685.66,1122.54Z" transform="translate(-126.47 -563.64)"/><path class="cls-1" d="M1685.5,1123.29l0,0a0.42,0.42,0,0,0,.09.09,0.57,0.57,0,0,1,.22,0A0.64,0.64,0,0,0,1685.5,1123.29Z" transform="translate(-126.47 -563.64)"/><path class="cls-1" d="M1651.05,1126.74h0.25A0.2,0.2,0,0,0,1651.05,1126.74Z" transform="translate(-126.47 -563.64)"/><path class="cls-1" d="M1723,1120.07l0.3-.12A0.43,0.43,0,0,0,1723,1120.07Z" transform="translate(-126.47 -563.64)"/><path class="cls-1" d="M1690.85,1122.46l0.27,0,0.16,0h-0.43Z" transform="translate(-126.47 -563.64)"/><path class="cls-1" d="M1674.25,1128.24c0.12-.48-0.13.05-0.53-0.16l-0.3.29A2.74,2.74,0,0,0,1674.25,1128.24Z" transform="translate(-126.47 -563.64)"/><polygon class="cls-1" points="1517.11 564.39 1517.12 564.43 1517.14 564.41 1517.11 564.39"/><path class="cls-1" d="M1664.37,1129.85l-0.17,0A0.35,0.35,0,0,0,1664.37,1129.85Z" transform="translate(-126.47 -563.64)"/><path class="cls-1" d="M1687.54,1123.3l1.3-.09-0.39-.08C1688.29,1123.37,1687.69,1123,1687.54,1123.3Z" transform="translate(-126.47 -563.64)"/><path class="cls-1" d="M1679.74,1127.82l0.15,0.26c1.2-.75,2.76-0.1,3.68-1,1.66,0.83.92-1,2.44-.23l1.47-.14c4.71-.25,8-0.3,15.61-0.93v0.2s5.5-.32,9-0.38,6.2-.19,9.71-0.16c0.66-.19-0.12-0.62.45-0.85,0.25,0,.61,0,0.61.25a0.69,0.69,0,0,0-.47.43,7.5,7.5,0,0,0,2.46,0l-0.61-.33a2.09,2.09,0,0,1,.94,0c-0.11.16,0.24,0.51,0,.58,1.5-.73,1.15.38,2.41,0.11,0.27-.66,1.85-1.14,2.91-1.58l0.54,0.19c-0.72,0,0,.49-0.9.42a17.91,17.91,0,0,0,2.15.08,0.27,0.27,0,0,1,.2-0.45,4.74,4.74,0,0,0,.95.49l-0.5.19a1,1,0,0,0,.92-0.09c0.08,0.28.82,0.36,0.67,0.66a6.43,6.43,0,0,1,1.64-.35c-0.73-.32.21-0.36,0.14-0.59l-0.85.08c1.18,0.22-.39,0-0.33.51-0.55-.24.81-0.75-0.13-0.71,1.13-.21,1.36,0,2.52-0.27-0.7,0,.15-0.3-0.21-0.47,0.88,0.06.21,0.19,0.46,0.51a1.24,1.24,0,0,0,1.1,0c0.76,0.21-.14.34,0.24,0.57-0.31.3-2.12-.58-2,0.47-0.4,0-.91.31-1.49,0.29a3.39,3.39,0,0,0,1.83.37l0.07-.58c0.47,0,.6-0.37.94-0.28-0.19.15,0.12,0.43,0.5,0.41-0.1-.09-0.26-0.08-0.21-0.19,0.71,0,.83-0.38,1.68-0.41a7.87,7.87,0,0,1-1.45-.7c0.2-.4.47,0,0.85,0-0.06,0-.14.06,0,0.14l0.42-.16c0.86,0.25-.16.58,0.55,0.84,0.47,0.39.69-.14,1,0.09,0,0,1.36-.08,1.34-0.11s1.59,0,1.59,0v0s-0.45.05-.3-0.24c0,0.14-.3.2-0.14,0.12s0.21,0.32.55,0.32h0c0.57,0,1,.09.86,0.25l0.91,0.09-0.14.34a2.12,2.12,0,0,0,1.41-.66,3.66,3.66,0,0,0,2.07.06,1.14,1.14,0,0,0,.33,0l-0.33-.19a10,10,0,0,0,1-.09c-0.09,0-.1-0.08.14,0l0.24,0.06a0.22,0.22,0,0,1-.22,0l0.06,0.14c0.47,0.5.83-.13,1.37,0.1a1.2,1.2,0,0,1-.2,0c0.3,0.15.69,0.78,0.86,0.45a0.29,0.29,0,0,0,.3-0.07l0.22,0.09-0.22-.09c0.16-.09.31-0.22,0.32-0.13l0.8,0.19a0.84,0.84,0,0,0,.53,0l0.11,0.19c0.3,0,.29.11,0.25,0.16,0.94,0.71,1.61-.07,2.63.58,0.25-.25-0.19-0.44-0.2-0.59a4.33,4.33,0,0,1,1.19-.39c0.44,0.45,1.88,1,1.56,1.5,0.89,0.17-.23-0.38.25-0.5l0.1,0a1.28,1.28,0,0,1-.66-0.56c0-.3.79-0.28,1-0.16l-0.24.39c0.86,0,.78-0.68,1.37-1,0.64,0.26.2,0.59,0.28,1h0.72l-0.05.31a2.13,2.13,0,0,1,1.23-.09c-0.5.23,0.89,0.42,0.2,0.74,0.33,0.15.53-.43,0.64,0,0.3-.28-0.28-0.24-0.44-0.36-0.06-.52.8-0.09,1.24-0.13,0,0.26-.33.24,0.13,0.5a0.45,0.45,0,0,1,.7,0c0.06-.31.56,0,0.84,0.13-0.3-.13-0.71-0.45-0.45-0.67a1.63,1.63,0,0,1,1,.06l-0.36-.22c0.57-.36.74,0.49,1.42,0.49a4,4,0,0,0-.77.27,11.92,11.92,0,0,1,1.48-.24l0.47,0.57c0.11-.22.62,0.15,0.68-0.16,0.65,0.35-.63.26-0.74,0.48,0.82,0.38.79-.38,1.53,0.27l-0.33.24a1.92,1.92,0,0,1,.86.18c0-.11-0.13-0.09-0.3-0.13,0.3-.59,1.36-0.17,1.39-0.84l-0.38-.12c0.61,0,1.12-.36,1.52,0s-0.33.39-.58,0.51c0.54,0.16.6-.61,1.25-0.42-0.33-.17-0.21-0.39,0-0.51-0.38-.12-1.14-0.41-1.07-0.11l0.13,0.09a0.7,0.7,0,0,1-.41.24c-0.52-.11-0.18-0.34-0.26-0.49-0.85-.28-0.2.63-1,0.44l-0.08-.14a1.58,1.58,0,0,0-1.19.37c-0.27-.49-0.93,0-1.26-0.34,0.11-.93,1.33.34,1.89-0.07-0.38-.27.33-0.39,0.55-0.56l-1.4.13c-0.08-.15-0.38-0.68-0.68-0.4l0.1,0c-0.54,0-.48.4-0.9,0.19a0.33,0.33,0,0,1,.16-0.27c-0.4-.17-0.39.14-0.68,0.16-0.4-.17.28-0.33,0-0.51-0.55.26-.75-0.24-1.17-0.3,0.08,0.56-1.79.38-1,1l-1.06.15c-0.27-.33.82-0.59,0.62-1.08l0.8,0.18c0-.67-1.75.08-2.15-0.75a2.16,2.16,0,0,1-1.1-.42l0,0.6a0.8,0.8,0,0,1-.49-0.64,2.49,2.49,0,0,1-.7-0.1,0.47,0.47,0,0,1,.33-0.15c-0.27-.37-0.38-0.26-0.52-0.11a1.05,1.05,0,0,1-.72,0l0.28-.18a0.55,0.55,0,0,0-.41.16,1,1,0,0,0-.32,0,1.36,1.36,0,0,0,.53.68,8.57,8.57,0,0,1-2.51-1,2.39,2.39,0,0,0,.34-0.36,0.69,0.69,0,0,0-.91.34h-0.24a0.53,0.53,0,0,0-.33-0.38,0.4,0.4,0,0,0-.25-0.16c-0.21.44-1,.1-1.19,0.28a2.24,2.24,0,0,0,.66.12c-0.38.26-.74,0.57-1,0.29,0.67-.2-0.6-0.58.36-0.57-0.59-.68-0.41.37-1.08,0.06l-0.42.66c0.11-.33.76,0.76,0.67,0.76h-0.33c0.35,0,1.53-.84,2.32-1.11l-1.46-1.47c-1.92.14-4.2-1.21-5.87-1.21h0.07s0,0.68-.09.81l-0.06.2-0.34.36a6.33,6.33,0,0,0-1.53-.7,0.51,0.51,0,0,1,.34.53c-0.11.33-.18,0.49-0.7,0.32,0-.24.35-0.2,0-0.42,0.19,0.14,0,.29-0.24.3a1.29,1.29,0,0,1-.76-0.5,0.39,0.39,0,0,1,.34.09c0.14-.05-0.54-0.27-0.11-0.43l-0.55,0c-0.3-.23.24-0.3,0.13-0.44-0.92.09-1.43,0.6-2.26,0.7a2.69,2.69,0,0,0,.09-0.51c-0.61-.22-1.4.47-2.11,0.45a1.15,1.15,0,0,1,.6-0.12,38.64,38.64,0,0,1-6-1.24l-0.57.51-0.52-.41c-2.14-.51-3.82-0.14-5.88-0.07-0.64,0-.37-0.4-0.67-0.56-1.4-.11-1.77.5-3.11,0.58,0.19-.16.52-0.63-0.06-0.67a0.43,0.43,0,0,1-.55.3l0.19-.16a3.45,3.45,0,0,0-1.34-.16,6.57,6.57,0,0,0-3.39.9c-1.07-.07.12-0.6-0.08-0.72,0.76,0.23.53-.08,0.7-0.27a0.84,0.84,0,0,1-1.1-.17,2.77,2.77,0,0,0-1.37.29c0.28-.14.52,0.08,0.25,0.25-0.45-.13-1.62,0-1.56-0.46-2.65.13-5.62,0.06-8.46,0.12-0.47.26,0.37,0.09,0.11,0.28-0.69.34-.56-0.16-1.11,0.11l0.22-.27a6.9,6.9,0,0,0-2.49.78c0.12-.31-0.67-0.22,0-0.44-0.39.08-.92-1.27-1.21-1l0.49,1.25a4.94,4.94,0,0,1-.51.16,2.48,2.48,0,0,0-1-.49c-0.13-.32.47-0.28,0.8-0.29,0-.54-1.11-0.28-0.66-0.81-0.7.13,0.11,0.27-.3,0.49l-0.62-.08,0.48,0.16c-0.5.19-.66,0.61-1.35,0.34l-0.68.56c-0.09-.42-0.52,0-0.89-0.13l0.21-.28a1.63,1.63,0,0,1-1-.16c0.25-.39.44,0.07,0.54-0.3l-0.54-.1c0,0.24-.31.45,0.08,0.58a2.18,2.18,0,0,1-1.94.89c-0.58-.38.58-0.4,0.32-0.79-1.29-.11-1.49,1.16-2.24,1.15-1-.11-0.88.26-1.84,0.34,0.29-.3-0.69-0.26-0.89-0.5l0.36-.33c-0.29.11-.58,0-0.5-0.18,0.08,0.38-1.22.47-1.87,0.71l0.14,0.31a5.62,5.62,0,0,1-1.77.4c-0.81.18-.59,0.45-1.19,0.86a0.83,0.83,0,0,1-.28-1,3.6,3.6,0,0,0,1,.08c1-.38,1.75-1.13,2.8-1.07,0.38-.83-0.69.16-1.21-0.08a0.1,0.1,0,0,1,.08-0.08,0.29,0.29,0,0,1-.13,0,1.39,1.39,0,0,0,1-.72c-0.61.14-.39,0.83-1.19,0.56-0.55.27-1.07-.3-1.42-0.33-0.35.33-.31,1-1.26,0.92l0.37-.48c-1.06.09-.44,0.69-1.42,0.76,0.35,0-.29.46,0.36,0.41a2.23,2.23,0,0,1-1.55.3c-0.13.08,0,.15,0,0.3,0.61,0.25.9-.38,1.42,0l0.36-.51c0.56,0.12.65,0.5,0.34,0.71a0.54,0.54,0,0,1,.4,0c0.16,0.7-.68-0.19-0.81.43l0.38-.09c0.21,0.45-.86.49-1.36,0.5-0.58-.17-1.1-0.2-1.17-0.53l0.74-.22c-0.42-.23-0.95.25-1.39,0.27a0.3,0.3,0,0,0-.13-0.09,0.15,0.15,0,0,1,0,.09,0.43,0.43,0,0,1-.26-0.11,6.37,6.37,0,0,1-1.3.2l0.08,0.3,0-.17c0.35,0,.85.12,0.61,0.37a0.94,0.94,0,0,1-1.21-.52c0.13-.48.78-0.07,1.16-0.26-0.29-.43-0.81,0-1.67-0.2,0.27-.53,1-0.08,1.08-0.56-0.67,0-.81.34-1.52,0.28,0.06-.24.74-0.32,0.66-0.61l-0.46-.1c1.1-.13-0.26-0.6.59-0.8-0.43-.16-0.52.45-1.13,0.2,0.19,0.19.69,0.55,0.16,0.8l-0.64-.07c-0.29-.21.59-0.61,0.16-0.76l-0.63.25c0,0.14.36,0.18,0.19,0.41-0.39-.11-0.55.65-1,0.92a1,1,0,0,1-.78-0.12c-0.84.55-2,.68-2.72,1.2,0.52-.37-0.09-0.5-0.45-0.68a0.63,0.63,0,0,0,.5-0.9c-0.39.1-.58,0.61-0.36,0.74-0.68-.11-0.41.38-1,0.14-0.39-.11.13-0.48,0-0.64-0.71.07-.12,0.59-0.9,0.58,0-.07.1-0.09,0-0.17a0.89,0.89,0,0,0-.9.47c-0.52-.55-1.23.22-1.23-0.37-1,.28.19,0.3,0,0.53a1.9,1.9,0,0,1-1.41.13,1.73,1.73,0,0,1,.7-0.17l-0.27-.38c-1.29-.13-0.66,1-1.9.86,0.58-.31.16-0.34,0.42-0.67-0.17.13-1.13,0.17-.51,0.39a6.49,6.49,0,0,1-1.1,0,2.79,2.79,0,0,0-1,.7,3.13,3.13,0,0,1-1.48-.28c-1.28.51-2.58,0.2-3.93,0.74h0.11c-1.1.1,0.57,0.46-.56,0.63,0.07-.52-0.73-0.23-1.14-0.43-1.42,0-2.31.81-3.63,0.71a0.3,0.3,0,0,1,.29-0.3,18.15,18.15,0,0,0-2.63.41l0-.07c-1.47-.14-2.65.59-4.07,1a2,2,0,0,0,.17-0.36,3.46,3.46,0,0,0-2.34.78c-1-.3-0.54.27-1.75,0-0.08-.07.09-0.11,0.16-0.14a7.29,7.29,0,0,0-1.52.16c-1.14.58-1.3,1.28-2.76,1.39-0.22-.65.83-0.36,0.74-0.89a1.07,1.07,0,0,1-.89.3,1.38,1.38,0,0,0,.12-0.45c-0.34-.11-1,1-1,0.91,0,0.13.13,0.18,0.41,0.09-0.23.49-1.37,0.37-2,.7,0.22,0,.95-0.08.77,0.3-0.95.08-1.1,0.8-1.67,1.22-0.91-.1.48-0.71,0.21-1.14-0.18-.14-0.61-0.43-0.3-0.7a6.54,6.54,0,0,0-1.88.88V1130c-0.93.29-1.79,1.09-2.64,1l0.45,0a2.16,2.16,0,0,0-.81.54c0-.22-0.69-0.26-0.49-0.5-0.23.81-2,1-2.3,1.78-0.3-.11-0.17-0.44-0.14-0.63a1.21,1.21,0,0,0,1.08-.38c-0.49.14-.9,0.06-0.86-0.12-0.38.56-1.5,1-1.62,1.55-0.42-.13-0.79-0.14-0.77-0.53-1.44.66,1.05,0.9-.64,1.38-0.87-.13.62-0.69-0.48-0.5l0.18-.11c-1-.7-0.35.81-1.22,1-0.27-.47.5-0.53-0.21-0.72-0.76.36-.89,1.19-1.72,1.28l0.06-.25c-0.49.2-1.51,0.4-2,.6-0.06-.09,0-0.1.11-0.16-1,.1-0.31.38-1.19,0.28l-0.14.31a2.14,2.14,0,0,0,1.66-.38c-0.39.44,1,.4,0.85,0.9l0-.2a15.22,15.22,0,0,0,4.81-.21c0.86-.81,1.78-0.27,2.77-0.92,0-.64.17-0.17,1.08-0.54-0.48.2,0.06,0.47,0.39,0.46a1.55,1.55,0,0,1,.56-0.43c0.24,0.15,1.54.32,1.87-.2,0.62,0-.08.22-0.18,0.38,0.31,0.24.4-.36,0.64-0.2a0.14,0.14,0,0,1,0,.11,19.15,19.15,0,0,1,2.36-.35c-0.07-.6.84-0.44,1.19-0.75-0.08.22,0.56,0.09,0.85,0.14l0.38-.55c0.39-.49.74,0.1,1.31-0.25l-0.18-.07a3.27,3.27,0,0,1,2.22,0c4-2.05,6.68-.83,11.09-2,0.26-.23-0.27-0.26-0.09-0.56a5.49,5.49,0,0,1,1-.24c-0.4-.09-0.3.1-0.28-0.08l-0.6.29a0.27,0.27,0,0,0,0-.14,2.08,2.08,0,0,1-.71.28c0.36-.23.39-0.69,1-0.63a0.41,0.41,0,0,1-.23.17,3,3,0,0,1,.79-0.21c0.43,0,.3-0.09.39,0.08h1.31a1.59,1.59,0,0,1,1.62-.28c-0.07.42-.81,0.28-1.06,0.72l0.51,0.2,0-.32,0.67,0,0,0.07c0.05-.14.11-0.27,0.3-0.2s0.11,0.11,0,.14l0.43-.27c-0.21.38,0.42,0,.42,0.41,1.55-.08,1.84-0.82,3.27-0.53-0.25-.14.32-0.66,0.75-0.66,0.25,0.05.33,0.13,0.2,0.3l0.51-.28c0.77,0.48,1.37,0,2.39,0l0,0.17a2.15,2.15,0,0,1,1.27-.5l0,0.35c0.7,0.13.41-.78,1.19-0.69a5.11,5.11,0,0,0-.68-0.79c0.23,0.33,1,.26.81,0,0.72-.27.52-0.08,0.59,0l0.41-.29c0.53-.06.24,0.44,0.07,0.67a1.92,1.92,0,0,1,1.57-.26l-0.2.19,0.74,0a2.47,2.47,0,0,1,1.73-.38l-0.36.53c0.47,0.19.2-.19,0.3-0.29a1,1,0,0,1,1.23.2C1677.66,1127.52,1678.9,1128.64,1679.74,1127.82Zm75.61-2-0.09-.08C1755.5,1125.71,1755.64,1125.66,1755.35,1125.84Zm-6-.91c0.75-.12.49,0.08,0.53,0.22-0.7-.19-1.11-0.07-1.73-0.28a0.67,0.67,0,0,1,.12.31,0.63,0.63,0,0,1-.55-0.42C1748.09,1124.32,1749.65,1125.24,1749.36,1124.94Zm13.88-.49-0.1.09h0Zm-3.66-.09a0.41,0.41,0,0,0-.22-0.23C1759.4,1124.27,1759.45,1124.38,1759.58,1124.36Zm-7.1-1.6a0.94,0.94,0,0,0-.81-0.21A4.22,4.22,0,0,0,1752.48,1122.77Zm-45.65-1.44c0.22-.09.62-0.31,0.24-0.44-0.17.18-.53-0.09-0.68,0.17l0,0A2.25,2.25,0,0,0,1706.83,1121.32Zm-21.25,3.16a0.82,0.82,0,0,0,0-.56h0.06c-0.06-.06-0.11-0.11-0.08-0.16a0.84,0.84,0,0,0-.48,0C1685.13,1124.43,1684.78,1124.56,1685.58,1124.48Z" transform="translate(-126.47 -563.64)"/><path class="cls-1" d="M1692.47,1121.21l-0.2,0Z" transform="translate(-126.47 -563.64)"/><path class="cls-1" d="M1685.16,1123.79a1,1,0,0,0,.46.13A0.59,0.59,0,0,0,1685.16,1123.79Z" transform="translate(-126.47 -563.64)"/><path class="cls-1" d="M1774.44,1128.79l-0.22,0,0.38,0.27a1.22,1.22,0,0,0,1.07-.61,5,5,0,0,1-1.85-.14Z" transform="translate(-126.47 -563.64)"/><path class="cls-1" d="M1774.53,1126.63a1,1,0,0,0-.28-0.38l-0.14.17Z" transform="translate(-126.47 -563.64)"/><path class="cls-1" d="M1766.43,1124l0.63,0.3C1767.31,1124.21,1766.59,1123.76,1766.43,1124Z" transform="translate(-126.47 -563.64)"/><path class="cls-1" d="M1768.76,1127.93l0.38-.14a0.58,0.58,0,0,0-.81-0.08C1768.78,1127.67,1768.42,1127.86,1768.76,1127.93Z" transform="translate(-126.47 -563.64)"/><path class="cls-1" d="M1764.64,1123.7c-0.27.35-.64-0.27-0.84,0.08C1764,1123.7,1764.55,1124.07,1764.64,1123.7Z" transform="translate(-126.47 -563.64)"/><path class="cls-1" d="M1764.51,1127.35c0.15,0.39.55,0.11,1,.28C1765.12,1127.55,1764.69,1127.13,1764.51,1127.35Z" transform="translate(-126.47 -563.64)"/><path class="cls-1" d="M1760.88,1124.26c0.08-.27.36-0.21,0.66-0.1a1,1,0,0,1-.36.21,7.19,7.19,0,0,1,1-.16c-0.39-.25-1-0.46-0.89-0.79C1761,1123.64,1760.53,1124,1760.88,1124.26Z" transform="translate(-126.47 -563.64)"/><path class="cls-1" d="M1763.5,1127.25a2.51,2.51,0,0,0,.92.47,0.58,0.58,0,0,0-.63-0.52l0.23-.29C1763.59,1126.63,1764.12,1127.36,1763.5,1127.25Z" transform="translate(-126.47 -563.64)"/><path class="cls-1" d="M1759.05,1123.26l0.19,0.18c0.53-.18,1.14,0,1.49-0.33A3.91,3.91,0,0,0,1759.05,1123.26Z" transform="translate(-126.47 -563.64)"/><path class="cls-1" d="M1761.88,1126.43l-0.14.43c0.48,0.13,0-.15.18-0.23a0.49,0.49,0,0,0,.45.08C1761.8,1126.7,1762.39,1126.35,1761.88,1126.43Z" transform="translate(-126.47 -563.64)"/><path class="cls-1" d="M1760.2,1126.69l-0.65.1,0.41,0.55C1760.72,1127.27,1760,1127.07,1760.2,1126.69Z" transform="translate(-126.47 -563.64)"/><path class="cls-1" d="M1759.48,1126.28l-0.06-.09-1,.52A3.65,3.65,0,0,0,1759.48,1126.28Z" transform="translate(-126.47 -563.64)"/><path class="cls-1" d="M1748.39,1121.94c-0.13.18,0.41,0.47,0.19,0.23C1748.7,1122,1748,1121.72,1748.39,1121.94Z" transform="translate(-126.47 -563.64)"/><path class="cls-1" d="M1750.28,1125.68a3.2,3.2,0,0,0-1.56.13C1749.18,1125.76,1750.31,1125.94,1750.28,1125.68Z" transform="translate(-126.47 -563.64)"/><path class="cls-1" d="M1748.55,1125.85l0.16,0A0.52,0.52,0,0,0,1748.55,1125.85Z" transform="translate(-126.47 -563.64)"/><path class="cls-1" d="M1732.34,1125.66a0.23,0.23,0,0,0-.12,0Z" transform="translate(-126.47 -563.64)"/><path class="cls-1" d="M1732.73,1125.56a1,1,0,0,0,.88-0.23,6.36,6.36,0,0,0-1.27.33C1732.52,1125.64,1732.73,1125.79,1732.73,1125.56Z" transform="translate(-126.47 -563.64)"/><path class="cls-1" d="M1729,1125.34c0.2-.11.46,0,0.4-0.23S1728.89,1125.2,1729,1125.34Z" transform="translate(-126.47 -563.64)"/><path class="cls-1" d="M1703.71,1120c-0.37-.08-0.58,0-0.47.28C1703.65,1120.22,1703.42,1120.06,1703.71,1120Z" transform="translate(-126.47 -563.64)"/><polygon class="cls-1" points="1576.31 556.69 1576.25 556.55 1576 556.35 1576.31 556.69"/><path class="cls-1" d="M1700.25,1120.06a0.27,0.27,0,0,1,.14-0.13C1700.25,1120,1700.14,1120,1700.25,1120.06Z" transform="translate(-126.47 -563.64)"/><path class="cls-1" d="M1700.46,1119.91l-0.07,0Z" transform="translate(-126.47 -563.64)"/><path class="cls-1" d="M1700.64,1120l0-.15a1.18,1.18,0,0,1-.19.07A0.14,0.14,0,0,1,1700.64,1120Z" transform="translate(-126.47 -563.64)"/><path class="cls-1" d="M1699.49,1120l0.5,0.4c0.49-.24-0.58-0.19-0.11-0.66Z" transform="translate(-126.47 -563.64)"/><path class="cls-1" d="M1697.84,1120.26c-0.47-.11-1.08.59-1.37,0.1-1.27.33,0.36,0.82-1.11,1.09,1.41,0.19.64-1,1.9-.79C1696.64,1120.38,1697.65,1120.39,1697.84,1120.26Z" transform="translate(-126.47 -563.64)"/><path class="cls-1" d="M1698.11,1121.09c0.06-.26-0.52-0.25-0.69-0.07C1697.59,1121,1697.9,1121.37,1698.11,1121.09Z" transform="translate(-126.47 -563.64)"/><polygon class="cls-1" points="1568.86 556.98 1568.45 556.82 1568.36 556.99 1568.86 556.98"/><path class="cls-1" d="M1693.83,1120.66l0.36-.33C1694.07,1120.46,1693.49,1120.49,1693.83,1120.66Z" transform="translate(-126.47 -563.64)"/><path class="cls-1" d="M1691.72,1120.49c-0.37-.06-0.64.64,0.11,0.42h-0.18C1691.68,1120.79,1691.26,1120.59,1691.72,1120.49Z" transform="translate(-126.47 -563.64)"/><path class="cls-1" d="M1687,1122c0.25,0,.53-0.12.47-0.25l-0.67.2Z" transform="translate(-126.47 -563.64)"/><path class="cls-1" d="M1687.27,1123.61c0.27,0.39.63-.09,1.09,0A3.18,3.18,0,0,0,1687.27,1123.61Z" transform="translate(-126.47 -563.64)"/><path class="cls-1" d="M1686.17,1121.48a0.72,0.72,0,0,1,.63-0.09C1686.7,1121.16,1686.23,1121.27,1686.17,1121.48Z" transform="translate(-126.47 -563.64)"/><path class="cls-1" d="M1685.1,1121.73a1.37,1.37,0,0,1-.16-0.33,1.31,1.31,0,0,0-1.24.18,0.83,0.83,0,0,1,.19.84c0.75-.22,1.05-1,1.49-0.46l0.56-.77C1685.32,1121.13,1685.53,1121.73,1685.1,1121.73Z" transform="translate(-126.47 -563.64)"/><path class="cls-1" d="M1686.77,1122.93l-0.43-.2c0.11,0.22-.2.3-0.41,0.39C1686.09,1123.62,1686.54,1123,1686.77,1122.93Z" transform="translate(-126.47 -563.64)"/><polygon class="cls-1" points="1554.46 558.85 1553.61 559.08 1553.89 559.08 1554.46 558.85"/><polygon class="cls-1" points="1553.88 558.75 1553.84 558.61 1553.22 558.97 1553.88 558.75"/><polygon class="cls-1" points="1552.96 558.69 1553.06 558.7 1553.56 558.51 1552.96 558.69"/><path class="cls-1" d="M1677.62,1122.46l0.19,0.2c0.21-.08.68,0.11,0.6-0.19A0.77,0.77,0,0,1,1677.62,1122.46Z" transform="translate(-126.47 -563.64)"/><path class="cls-1" d="M1672.46,1128.76c0.13-.16,0-0.28-0.09-0.4l-0.19.4A0.28,0.28,0,0,1,1672.46,1128.76Z" transform="translate(-126.47 -563.64)"/><path class="cls-1" d="M1671.35,1128.3l-0.56.52a5.85,5.85,0,0,0,1.41-.55c-0.29-.11-0.62.26-1,0.2Z" transform="translate(-126.47 -563.64)"/><path class="cls-1" d="M1658.73,1130.07c0-.28-0.13-0.22.3-0.48a9.58,9.58,0,0,1-1.89.52c0.16,0.15-.33.55-0.07,0.42l0.78-.32-0.09.21C1658.39,1130.51,1658.09,1130,1658.73,1130.07Z" transform="translate(-126.47 -563.64)"/><path class="cls-1" d="M1625.53,1134.89a0.33,0.33,0,0,0-.23-0.32C1624.87,1134.86,1625.62,1134.83,1625.53,1134.89Z" transform="translate(-126.47 -563.64)"/><path class="cls-1" d="M1012.55,1228.79a23.53,23.53,0,0,1-7.38-1.14,28.49,28.49,0,0,1-6.52-3.09,30.16,30.16,0,0,1-5.54-4.57,33.51,33.51,0,0,1-4.34-5.6V1252h-3.89v-83.81h3.66v12.35a30.28,30.28,0,0,1,4.34-5.32,28.87,28.87,0,0,1,11.83-7,23.28,23.28,0,0,1,6.69-1,25.5,25.5,0,0,1,11.55,2.63,29,29,0,0,1,9,7,32.77,32.77,0,0,1,5.89,9.89A31.47,31.47,0,0,1,1040,1198a34.73,34.73,0,0,1-2,11.78,30.49,30.49,0,0,1-5.6,9.77,27.49,27.49,0,0,1-8.63,6.69A24.68,24.68,0,0,1,1012.55,1228.79Zm-0.57-3.66a21.05,21.05,0,0,0,9.94-2.34,23.78,23.78,0,0,0,7.55-6.17A30.07,30.07,0,0,0,1036,1198a27.51,27.51,0,0,0-1.94-10.18,28.82,28.82,0,0,0-5.32-8.69,25.58,25.58,0,0,0-7.94-6,22.17,22.17,0,0,0-9.83-2.23,20.08,20.08,0,0,0-7.09,1.43,30.42,30.42,0,0,0-7,3.77,24,24,0,0,0-5.49,5.43,13.3,13.3,0,0,0-2.57,6.52v20.47a28.64,28.64,0,0,0,3.89,6.46,28.3,28.3,0,0,0,5.43,5.26,26.71,26.71,0,0,0,6.57,3.54A21.15,21.15,0,0,0,1012,1225.13Z" transform="translate(-126.47 -563.64)"/><path class="cls-1" d="M1078.75,1228.79a26,26,0,0,1-11.26-2.46,29.46,29.46,0,0,1-9.09-6.63,30.18,30.18,0,0,1-6.06-9.77,32.24,32.24,0,0,1-2.17-11.78,32.08,32.08,0,0,1,8.35-21.73,29.17,29.17,0,0,1,9.09-6.69,25.73,25.73,0,0,1,11.15-2.46,26.11,26.11,0,0,1,11.2,2.46,29,29,0,0,1,9.15,6.69,32.38,32.38,0,0,1,6.12,33.5,31,31,0,0,1-6.12,9.77,29.36,29.36,0,0,1-9.15,6.63A26.11,26.11,0,0,1,1078.75,1228.79Zm-24.7-30.53a28.38,28.38,0,0,0,7.2,19,24.33,24.33,0,0,0,7.83,5.77,22.19,22.19,0,0,0,9.55,2.11,21.77,21.77,0,0,0,9.55-2.17,25.93,25.93,0,0,0,7.89-5.83,28.42,28.42,0,0,0,0-38.18,26.11,26.11,0,0,0-7.83-5.83,21.82,21.82,0,0,0-19,0,25.65,25.65,0,0,0-7.83,5.89,28.69,28.69,0,0,0-5.37,8.69A28.13,28.13,0,0,0,1054.05,1198.26Z" transform="translate(-126.47 -563.64)"/><path class="cls-1" d="M1195.25,1168.19h4l-25.84,59.45h-3.31L1156,1195.17l-13.95,32.47h-3.32l-25.84-59.45h3.89l23.67,54.76,13.49-31.21-10.06-23.44h3.66l8.46,20,8.46-20h3.66l-9.94,23.44L1171.6,1223Z" transform="translate(-126.47 -563.64)"/><path class="cls-1" d="M1235.84,1228.79a26.43,26.43,0,0,1-11.32-2.46,29.18,29.18,0,0,1-9.2-6.75,31.68,31.68,0,0,1-6.17-9.94,32.62,32.62,0,0,1-2.23-12.06,31.63,31.63,0,0,1,2.17-11.78,29.74,29.74,0,0,1,6.06-9.6,29.44,29.44,0,0,1,9-6.52,26.19,26.19,0,0,1,11.21-2.4,27,27,0,0,1,11.32,2.4,28.68,28.68,0,0,1,9.15,6.58A32,32,0,0,1,1262,1186a31.2,31.2,0,0,1,2.29,11.89c0,0.16,0,.46-0.06.92s-0.06.72-.06,0.8h-53.28A28.92,28.92,0,0,0,1219,1218a26.05,26.05,0,0,0,7.72,5.43,21.87,21.87,0,0,0,9.26,2,24.61,24.61,0,0,0,6.46-.86,24.34,24.34,0,0,0,5.89-2.46,20.56,20.56,0,0,0,4.8-3.83,19.53,19.53,0,0,0,3.32-4.86l3.54,0.91a19.34,19.34,0,0,1-3.71,5.77,24.41,24.41,0,0,1-5.66,4.57,29.8,29.8,0,0,1-7,3A28.23,28.23,0,0,1,1235.84,1228.79Zm24.58-32.47A30,30,0,0,0,1258,1186a27,27,0,0,0-5.43-8.12,24.28,24.28,0,0,0-7.72-5.31,23.27,23.27,0,0,0-9.37-1.89,22.69,22.69,0,0,0-9.38,1.94,24.47,24.47,0,0,0-7.66,5.37,26.44,26.44,0,0,0-5.31,8.12,30.57,30.57,0,0,0-2.34,10.18h49.61Z" transform="translate(-126.47 -563.64)"/><path class="cls-1" d="M1304,1171.85a23.8,23.8,0,0,0-14.29,5.2,25.39,25.39,0,0,0-8.46,13.21v37.39h-3.89V1168.2h3.77v15.09a29,29,0,0,1,8.23-10.29,21.86,21.86,0,0,1,11-4.69q1.14,0,2.06-.06c0.61,0,1.14-.06,1.6-0.06v3.66h0Z" transform="translate(-126.47 -563.64)"/><path class="cls-1" d="M1340.34,1228.79a26.43,26.43,0,0,1-11.32-2.46,29.13,29.13,0,0,1-9.2-6.75,31.68,31.68,0,0,1-6.17-9.94,32.62,32.62,0,0,1-2.23-12.06,31.63,31.63,0,0,1,2.17-11.78,29.74,29.74,0,0,1,6.06-9.6,29.44,29.44,0,0,1,9-6.52,26.19,26.19,0,0,1,11.21-2.4,27,27,0,0,1,11.32,2.4,28.68,28.68,0,0,1,9.15,6.58,32,32,0,0,1,6.17,9.77,31.2,31.2,0,0,1,2.29,11.89c0,0.16,0,.46-0.06.92s-0.06.72-.06,0.8h-53.28a28.69,28.69,0,0,0,2.52,10.23,28.36,28.36,0,0,0,5.54,8.17,26.05,26.05,0,0,0,7.72,5.43,21.87,21.87,0,0,0,9.26,2,24.61,24.61,0,0,0,6.46-.86,24.34,24.34,0,0,0,5.89-2.46,20.56,20.56,0,0,0,4.8-3.83,19.53,19.53,0,0,0,3.32-4.86l3.54,0.91a19.34,19.34,0,0,1-3.71,5.77,24.47,24.47,0,0,1-5.66,4.57,29.8,29.8,0,0,1-7,3A28.24,28.24,0,0,1,1340.34,1228.79Zm24.58-32.47a30,30,0,0,0-2.4-10.29,27,27,0,0,0-5.43-8.12,24.32,24.32,0,0,0-7.72-5.31,23.27,23.27,0,0,0-9.37-1.89,22.69,22.69,0,0,0-9.38,1.94A24.47,24.47,0,0,0,1323,1178a26.44,26.44,0,0,0-5.31,8.12,30.57,30.57,0,0,0-2.34,10.18h49.61Z" transform="translate(-126.47 -563.64)"/><path class="cls-1" d="M1406.43,1228.79a25.24,25.24,0,0,1-11.43-2.63,30.09,30.09,0,0,1-9.09-6.92,31.57,31.57,0,0,1-5.95-9.77,31.23,31.23,0,0,1-2.11-11.32,33.91,33.91,0,0,1,2.06-11.78,31.42,31.42,0,0,1,5.72-9.83,27.74,27.74,0,0,1,8.69-6.75,25.29,25.29,0,0,1,18.52-1.37,25.89,25.89,0,0,1,6.51,3.14,31.49,31.49,0,0,1,5.43,4.63,38.38,38.38,0,0,1,4.29,5.49v-37.5h3.89v77.29c0,1.68.69,2.52,2.06,2.52v3.66a3.5,3.5,0,0,1-1,.11,4.28,4.28,0,0,1-3.32-1.55,5,5,0,0,1-1.37-3.37v-7.31a27.15,27.15,0,0,1-4.4,5.43,28.62,28.62,0,0,1-11.83,6.86A23.51,23.51,0,0,1,1406.43,1228.79Zm0.45-3.66a20.85,20.85,0,0,0,7.09-1.37,29.11,29.11,0,0,0,7-3.71,23.42,23.42,0,0,0,5.49-5.49,13.64,13.64,0,0,0,2.57-6.58v-20.47a21.9,21.9,0,0,0-3.77-6.46,29.47,29.47,0,0,0-5.66-5.26,28.62,28.62,0,0,0-6.75-3.55,20.44,20.44,0,0,0-7-1.31,21,21,0,0,0-9.94,2.34,24.37,24.37,0,0,0-7.6,6.17,28.54,28.54,0,0,0-4.86,8.69,29.82,29.82,0,0,0-1.71,10,27.26,27.26,0,0,0,1.94,10.23A27.66,27.66,0,0,0,1389,1217a26.72,26.72,0,0,0,8,5.95A22.16,22.16,0,0,0,1406.88,1225.13Z" transform="translate(-126.47 -563.64)"/><path class="cls-1" d="M1508.41,1228.79a23.32,23.32,0,0,1-6.8-1,29.75,29.75,0,0,1-6.4-2.8,28.06,28.06,0,0,1-5.49-4.17,26,26,0,0,1-4.17-5.26v12.12h-3.66v-83.46h3.89v37.5a38.94,38.94,0,0,1,10.18-10.4,23.45,23.45,0,0,1,13.61-4A23.81,23.81,0,0,1,1521,1170a28.53,28.53,0,0,1,8.63,7.09,31.7,31.7,0,0,1,5.43,9.89,34.52,34.52,0,0,1,1.89,11.15,31.55,31.55,0,0,1-2.17,11.6,31,31,0,0,1-6.06,9.77,29.91,29.91,0,0,1-9.09,6.75A25.69,25.69,0,0,1,1508.41,1228.79Zm-0.46-3.66a21.74,21.74,0,0,0,10.06-2.34,27.16,27.16,0,0,0,13.15-14.75,27.91,27.91,0,0,0,1.83-9.89,29.86,29.86,0,0,0-1.77-10.18,28.66,28.66,0,0,0-4.92-8.69,24.14,24.14,0,0,0-7.61-6.06,21,21,0,0,0-9.72-2.29,20.66,20.66,0,0,0-7.55,1.37,25.91,25.91,0,0,0-6.52,3.66,28.66,28.66,0,0,0-5.26,5.26,35.62,35.62,0,0,0-3.89,6.29v20.69a13.23,13.23,0,0,0,2.57,6.52,23.94,23.94,0,0,0,5.49,5.43,27.49,27.49,0,0,0,7,3.66A21.75,21.75,0,0,0,1508,1225.13Z" transform="translate(-126.47 -563.64)"/><path class="cls-1" d="M1553.8,1249.49a25.07,25.07,0,0,0,3.6-.23,4.69,4.69,0,0,0,2.11-.69,3.52,3.52,0,0,0,.86-1.14c0.34-.61.88-1.66,1.6-3.15s1.66-3.57,2.8-6.23l4.46-10.4-27.1-59.45h4.23l24.92,55.34,23.55-55.34h3.89l-34.07,79.58a7.87,7.87,0,0,1-3.49,4.23,11.54,11.54,0,0,1-5.09,1h-2.29v-3.54h0Z" transform="translate(-126.47 -563.64)"/><path class="cls-1" d="M313.4,564.25c-3.82,0-8.8-.79-12.59-0.57V641c3.79,0.72,6.08,3.51,6.08,6.84a6.76,6.76,0,1,1-13.5,0c0-2.53-.16-4.74,3.63-6v-77.8a137.24,137.24,0,0,0-26.53,4.07v73c3.79,0.9,5,3.54,5,6.68a7,7,0,0,1-7,7c-3.88,0-6.35-3.15-6.35-7,0-2.75.79-5.11,4.58-6.26v-72.2c-83.38,20.64-140.23,91.93-140.23,179V935.67h35.34a3.81,3.81,0,0,1,3.55,2.12l1,2.4,20.45,22h42.71c1-3.79,5.11-8.37,10-8.37a10.15,10.15,0,0,1,10.27,10.12,10.34,10.34,0,0,1-10.27,10.34c-3.57,0-6.7-.72-8.55-4.51H185.13a4.08,4.08,0,0,1-2.87-1.39l-22-23.55a4.22,4.22,0,0,1-.69-1.06l-0.23-.53H126.47V962.2h35.34c1,0,1.91-.65,2.63,0l22.21,18.95h43.77c1.68-3.79,5.13-5,9.15-5a10.59,10.59,0,0,1,10.27,10.63c0,5.67-4.6,9.59-10.27,9.59-4.5,0-8.29-.05-9.67-7.63H185.13c-1,0-1.91.65-2.63,0L160.3,969.78H126.47v53.06h42.14l1.29-1.16,12.59-12.2c0.72-.65,1.66-1.81,2.64-1.81h44.34a10.89,10.89,0,0,1,10.1-8,10.51,10.51,0,0,1,10.27,10.54,10.39,10.39,0,0,1-10.27,10.41c-3.34,0-6.28-2.24-8.16-4.72,0,0-.08-0.61-0.13-0.61H186.65l-11.84,11.41a6,6,0,0,1-.8.91l-2.59,1.88a4.83,4.83,0,0,1-1.83,1H126.47V1165.7a190,190,0,0,0,14.62,73.17H472.17l35.74-30.25c0.48-.41,1.08-0.07,1.71-0.07h57.21l29.35-31.89a10.1,10.1,0,0,1-1.36-5,9.63,9.63,0,1,1,9.63,9.51A9.47,9.47,0,0,1,600,1180l-30.08,31.95a2.35,2.35,0,0,1-1.92.42H510.59l-35.74,32.14c-0.48.41-1.08,2-1.71,2H143.4c1.59,0,3.25,3.79,5,7.58H340.35c1.51-3.79,4.86-5.17,8.77-5.17a9.87,9.87,0,0,1,9.63,9.9c0,5.31-4.31,10.4-9.63,10.4-4.87,0-8.85-3.76-9.5-7.55H151.31c2,3.79,4.08,7.58,6.29,7.58H507a2.52,2.52,0,0,1,1.81.61l43,41.08h50.09L754.45,640.05h-365L347.6,683c-0.49.48-1.15,2.53-1.84,2.53h-16c-0.7,0-1.37-1.12-1.86-1.61l-14.8-15.16a3.89,3.89,0,0,1-.93-2.27V653.68c0-1.27-2.93-3.41-2.93-5.83a7.11,7.11,0,0,1,7.12-7c3.88,0,8.08,3.15,8.08,7,0,3.43-4.68,6.29-4.68,6.91v10.67L330.86,678h13.83l41.86-41.06a2.52,2.52,0,0,1,1.84-.63H755l0.89-.26,16.47-71.75H313.4Zm82.16,280.46h15.16v69c7.58-10.74,12.59-20.54,21.09-29.38a136.75,136.75,0,0,1,28.35-22.62,144,144,0,0,1,33-14.56A124.05,124.05,0,0,1,528.8,842c28.42,0,48.33,10.14,60.81,30.41s18.18,50.69,18.18,91.25v154H592.64V965.71c0-37.08-5.92-64.21-16.32-81.37s-27.39-25.74-50.27-25.74a104.21,104.21,0,0,0-36.83,6.76,126.83,126.83,0,0,0-33.37,18.72,141.67,141.67,0,0,0-27.64,28.08,115.8,115.8,0,0,0-17.49,35.35v170.07H395.56V844.71h0Zm-83.38,272.88H293.23V844.71h18.95v272.88Zm0-382.79v45.48H293.23V734.8h18.95ZM588.23,617.58a7,7,0,1,1,7-7A7,7,0,0,1,588.23,617.58Zm16,0a7,7,0,1,1,7-7A7,7,0,0,1,604.22,617.58Zm16,0a7,7,0,1,1,7-7A7,7,0,0,1,620.21,617.58Zm106.44-5.7c-1.77,0-3.24-2.14-4.48-2.14H710.35a2.44,2.44,0,0,1-1.71-.36l-17.47-14.8H533.35l-4.56,3.76c-0.49.48-1.15,0-1.84,0H357.07c-0.06,0-.71.79-0.77,0.78l-21.37,12.37v30.35c3.79,1.24,4,3.44,4,6a6.77,6.77,0,0,1-3.82,6.38,2.28,2.28,0,0,1-1.73.8,2.19,2.19,0,0,1-.77-0.17l-0.16,0a6.91,6.91,0,0,1-6.88-7,6.54,6.54,0,0,1,5.61-6.84V612.62c0-.22-0.7-0.49-0.88-0.83a2.64,2.64,0,0,1,1-3.62l23.95-13.42a4.3,4.3,0,0,1,2.29-.18H525.88l4.56-3.76c0.49-.48,1.15,0,1.84,0H692.15a2.44,2.44,0,0,1,1.71.36l17.47,14.8h6.38v-0.73c0-3.88,4.17-7,8.06-7s7.55,3,7.55,6.85A6.58,6.58,0,0,1,726.65,611.87Zm26.78-15.71c-1.63,0-3.1-1.6-4.29-1.6H718.79a3.23,3.23,0,0,1-1.84-1.2l-9.89-10.17H496.39c-1.15,3.79-2.55,1.86-4.08,1.86a6.81,6.81,0,0,1-7-6.77,6.93,6.93,0,0,1,7-6.9,7.26,7.26,0,0,1,7,7.29c0,0.16,0,.72,0,0.72H708.13a3.23,3.23,0,0,1,1.84,1.2l9.89,10.17h26.56s0-.82,0-0.92a7.32,7.32,0,0,1,7-7.35A6.83,6.83,0,1,1,753.43,596.17Z" transform="translate(-126.47 -563.64)"/><path class="cls-1" d="M831.06,1121.17a113.1,113.1,0,0,1-51.73-12,134.69,134.69,0,0,1-40.81-31.46,146.23,146.23,0,0,1-26.78-44.45,140.46,140.46,0,0,1-9.62-51,154.17,154.17,0,0,1,9.1-52.77A142.77,142.77,0,0,1,737,884.87a127.09,127.09,0,0,1,39.78-31.2A110.68,110.68,0,0,1,827.43,842a106.33,106.33,0,0,1,33.8,5.2,125.68,125.68,0,0,1,29.11,14,142.71,142.71,0,0,1,25,20.8,209.49,209.49,0,0,1,20.8,25.48V846.13h16.64v278.68q0,27.55-10.14,47.57a99.25,99.25,0,0,1-27.3,33.53,115.13,115.13,0,0,1-39.51,20,165.13,165.13,0,0,1-46.27,6.5q-23.92,0-42.37-4.68a122.55,122.55,0,0,1-32.5-13,106.81,106.81,0,0,1-24.7-20A136.23,136.23,0,0,1,711.49,1169l13-7.28q16.63,29.11,44.71,42.11a146.52,146.52,0,0,0,100.86,7.28,95.19,95.19,0,0,0,33.53-17.41,87.14,87.14,0,0,0,22.88-28.85q8.58-17.16,8.58-40v-63.43a117.48,117.48,0,0,1-20,24.43,137.91,137.91,0,0,1-25.21,18.72,130.32,130.32,0,0,1-28.6,12.22A107.06,107.06,0,0,1,831.06,1121.17Zm3.12-16.12a94.5,94.5,0,0,0,35.61-7,125.35,125.35,0,0,0,31.46-18.2,108,108,0,0,0,23.13-25q9.09-13.77,10.66-27.81V934a114.9,114.9,0,0,0-17.42-30.16,122,122,0,0,0-25.21-23.91,125.16,125.16,0,0,0-30.16-15.6,97.43,97.43,0,0,0-32.76-5.72q-26,0-46.27,10.92a109.81,109.81,0,0,0-34.31,28.6,131.84,131.84,0,0,0-21.58,39.78,136.83,136.83,0,0,0-7.54,44.45,124,124,0,0,0,8.84,46.53,125.62,125.62,0,0,0,24.44,39,121.51,121.51,0,0,0,36.39,27A100.65,100.65,0,0,0,834.19,1105.05Z" transform="translate(-126.47 -563.64)"/><path class="cls-1" d="M1149.25,1121.69a120,120,0,0,1-51.47-11.18,132.64,132.64,0,0,1-41.85-30.67,144.14,144.14,0,0,1-28.08-45.23,148.27,148.27,0,0,1-10.14-54.85,144.17,144.17,0,0,1,9.88-53.55,135.47,135.47,0,0,1,27.56-43.67,133.79,133.79,0,0,1,41.07-29.64,118.93,118.93,0,0,1,51-10.92,122.45,122.45,0,0,1,51.47,10.92,130.23,130.23,0,0,1,41.59,29.9,145,145,0,0,1,28.08,44.45,141.81,141.81,0,0,1,10.4,54.07c0,0.7-.09,2.08-0.26,4.16s-0.26,3.3-.26,3.64H1035.91a130.3,130.3,0,0,0,11.44,46.53,129,129,0,0,0,25.21,37.17,118,118,0,0,0,35.1,24.7,99.44,99.44,0,0,0,42.11,9.1,111.59,111.59,0,0,0,56.15-15.08,93.76,93.76,0,0,0,21.83-17.41,89.29,89.29,0,0,0,15.08-22.1l16.12,4.16a88.1,88.1,0,0,1-16.9,26.26,111.2,111.2,0,0,1-25.73,20.8,136.55,136.55,0,0,1-31.71,13.52A127.08,127.08,0,0,1,1149.25,1121.69ZM1261,974a136.24,136.24,0,0,0-10.92-46.79,122.18,122.18,0,0,0-24.7-36.91,110.69,110.69,0,0,0-35.1-24.18,105.91,105.91,0,0,0-42.63-8.58,103.2,103.2,0,0,0-42.63,8.84,111.09,111.09,0,0,0-34.83,24.44,120.48,120.48,0,0,0-24.18,36.91A139,139,0,0,0,1035.4,974H1261Z" transform="translate(-126.47 -563.64)"/><path class="cls-1" d="M1403.49,1121.69a92.32,92.32,0,0,1-34.83-6.5,89.63,89.63,0,0,1-28.08-17.68,80.6,80.6,0,0,1-18.71-26.26,79.05,79.05,0,0,1-6.76-32.75,61.4,61.4,0,0,1,8.32-31.45,78.17,78.17,0,0,1,23.14-24.7q14.82-10.39,35.35-16.12a169.48,169.48,0,0,1,45.49-5.72,298.57,298.57,0,0,1,45.75,3.64,191.61,191.61,0,0,1,41.59,10.92V946q0-40.55-23.14-64.73t-62.13-24.18q-19.77,0-41.85,8.58t-45,24.7l-8.32-13Q1386.85,842,1430.53,842q47.3,0,74.61,28.08t27.3,76.95v141.42q0,11.44,9.36,11.44v16.64a13.7,13.7,0,0,1-4.16.52,20.94,20.94,0,0,1-15.34-6.5,21.55,21.55,0,0,1-6.5-15.85v-23.92q-18.2,24.45-48.09,37.7A156.64,156.64,0,0,1,1403.49,1121.69Zm2.6-15.08q32.75,0,59.79-12.22t40.55-33q8.31-10.92,8.32-20.8v-51q-40-15.6-86.31-15.6-43.16,0-69.41,17.42T1332.78,1038a64,64,0,0,0,5.72,27,71.91,71.91,0,0,0,15.34,21.84,67.28,67.28,0,0,0,23.14,14.56A80.39,80.39,0,0,0,1406.09,1106.61Z" transform="translate(-126.47 -563.64)"/><path class="cls-1" d="M1735.72,862.77q-37.44,1.56-65,23.66t-38.48,60.05v170h-17.68V846.13h17.16v68.63q14-28.59,37.43-46.79t49.91-21.32q5.2,0,9.36-.26t7.28-.26v16.65Z" transform="translate(-126.47 -563.64)"/><path class="cls-1" d="M550.77,1318.45a2.52,2.52,0,0,1-1.81-.61l-43-41.08H161.15c20,26.53,47.41,51.53,79.55,65.63l50.79-49.62a2.73,2.73,0,0,1,1.83-.85H400.5c0.49-3.79,4.54-8.75,9.53-8.75a9.61,9.61,0,0,1,9.63,9.6c0,5.31-4.32,9-9.63,9a9.21,9.21,0,0,1-8.58-6H294.37L246,1343.09a180.44,180.44,0,0,0,67.43,13.27H591.78l8.94-37.9H550.77Z" transform="translate(-126.47 -563.64)"/></g></svg>