<svg id="Layer_1" data-name="Layer 1" xmlns="http://www.w3.org/2000/svg" viewBox="0 0 1751.07 1489.52"><defs><style>.cls-1{fill:#fff;}</style></defs><title>iot</title><path class="cls-1" d="M740,864.51q-57.28,0-88.32,39.3t-31,111.24q0,71.29,31.35,111.23t88.64,39.94q57.28,0,88.64-39.94t31.35-111.23q0-71.62-31.67-111.08T740,864.51Z" transform="translate(-84.46 -215.24)"/><path class="cls-1" d="M1317.51,1031.2a346.71,346.71,0,0,1-101-14.83L1166.06,1001l49.75-17.42c26.36-9.23,48.73-33.83,66.5-73.1,11.4-25.2,19.32-53.14,24.77-75.51q-12.76-14-26.42-28.73A255.78,255.78,0,0,1,1195,716.52C1017.07,534.58,795.82,332.21,756.14,332.21,688,332.21,84.2,939.45,84.46,1008.75c0.26,66.92,603.56,696,671.67,696,63.49,0,592.77-556.26,663.8-688.78A349.2,349.2,0,0,1,1317.51,1031.2ZM496.26,1184h-34V839h34v345Zm-5-415a17.62,17.62,0,0,1-15.44,8.28q-20.05,0-20-30.87,0-30.55,20-30.55a17.83,17.83,0,0,1,15.44,8q5.56,8,5.57,22.6Q496.81,760.75,491.24,769Zm361.38,378.26q-41.06,47.57-113.3,47.58-45.53,0-80.21-22t-53.15-63q-18.46-41.06-18.45-94.84,0-84.66,41.05-131.93t112.66-47.26q71.29,0,111.87,47.9t40.59,131.29Q893.69,1099.71,852.62,1147.29Zm281.64,39.94c-8,5.09-33.52,7.64-53.45,7.64-30.55,0-50.66-8.17-65.19-24.51s-19.36-42-19.36-77V865h-51V851.46l48.36-12.73,13-76.71h24.6v77h95v26h-95v223.87c0,26.52.48,46.14,9.83,58.87s22.5,19.09,42.44,19.09,42.73-1.69,50.73-5.09v25.46Z" transform="translate(-84.46 -215.24)"/><path class="cls-1" d="M1835.21,530.22c-0.26-7.44-.74-14.79-1.31-22.09,0-1.3,0-2.6-.09-3.9-5.85-165.75-87.49-297.41-338-288.56s-332.89,146.29-327,312q0.39,11.16,1.33,22.09c0,1.3,0,2.59.07,3.9,4,114.49,49.61,212.16,159.68,258.93-12.08,55.36-36.72,162.15-108.35,187.24,132.13,40.21,306.18-2.66,383.55-167.31C1785.87,797.89,1840.32,675,1835.21,530.22Zm-502.92,53.53a53.35,53.35,0,1,1,51.43-55.19A53.34,53.34,0,0,1,1332.29,583.74Zm178-6.28a53.35,53.35,0,1,1,51.43-55.19A53.34,53.34,0,0,1,1510.27,577.46Zm178-6.28A53.35,53.35,0,1,1,1739.67,516,53.35,53.35,0,0,1,1688.24,571.17Z" transform="translate(-84.46 -215.24)"/></svg>