<?xml version="1.0" encoding="utf-8"?>
<!-- Generator: Adobe Illustrator 19.2.1, SVG Export Plug-In . SVG Version: 6.00 Build 0)  -->
<svg version="1.1" baseProfile="tiny" id="Layer_1" xmlns="http://www.w3.org/2000/svg" xmlns:xlink="http://www.w3.org/1999/xlink"
	 x="0px" y="0px" viewBox="0 0 283.46 283.459" xml:space="preserve">
<g>
	<path fill="#FFFFFF" d="M30.547,141.832l-1.072-1.582c-0.868-1.282-2.291-1.99-3.753-1.99c-0.673,0-1.355,0.15-1.994,0.465
		l-11.843,5.817c-1.088,0.534-1.916,1.483-2.3,2.634l-1.022,3.065c-0.552,1.654-0.103,3.48,1.153,4.694l7.147,6.891
		c0.846,0.815,1.974,1.267,3.145,1.267c0.065,0,0.131,0,0.197-0.003c1.239-0.053,2.402-0.615,3.218-1.551l1.38-1.582
		c1.16-1.33,1.44-3.212,0.721-4.822l-1.181-2.647l5.42-4.691C31.498,146.295,31.835,143.733,30.547,141.832z M18.834,151.264
		l2.553,5.718l-1.38,1.582l-7.147-6.891l1.022-3.065l11.843-5.818l1.072,1.583L18.834,151.264z"/>
	<path fill="#FFFFFF" d="M272.001,150.24l-1.022-3.065c-0.384-1.152-1.213-2.101-2.3-2.634l-11.843-5.817
		c-0.64-0.315-1.322-0.465-1.994-0.465c-1.462,0-2.885,0.708-3.753,1.99l-1.072,1.582c-1.288,1.901-0.95,4.463,0.787,5.964
		l5.42,4.691l-1.181,2.647c-0.719,1.61-0.439,3.493,0.721,4.822l1.38,1.582c0.816,0.936,1.979,1.498,3.218,1.551
		c0.066,0.003,0.131,0.003,0.197,0.003c1.17,0,2.299-0.453,3.145-1.267l7.147-6.891C272.104,153.72,272.553,151.895,272.001,150.24z
		 M260.556,158.564l-1.38-1.582l2.553-5.718l-7.964-6.891l1.072-1.583l11.843,5.818l1.022,3.065L260.556,158.564z"/>
	<g>
		<path fill="#FFFFFF" d="M245.769,152.934c-0.228-0.075-0.474-0.053-0.743,0.066c-0.268,0.119-0.524,0.371-0.763,0.762
			c-1.028,1.745-2.165,3.246-3.407,4.501c-1.247,1.258-2.527,2.306-3.839,3.146c-1.312,0.837-2.619,1.458-3.92,1.86
			c-1.3,0.4-2.519,0.596-3.655,0.584c-1.344-0.012-2.488-0.256-3.427-0.727c-0.944-0.471-1.72-1.102-2.322-1.882
			c-0.609-0.783-1.033-1.698-1.28-2.747c-0.247-1.049-0.371-2.157-0.374-3.327c3.218-0.159,6.152-0.74,8.795-1.732
			c2.645-0.996,4.878-2.191,6.704-3.583c1.823-1.392,3.218-2.887,4.182-4.482c0.961-1.595,1.389-3.077,1.27-4.438
			c-0.117-1.364-0.821-2.5-2.113-3.414c-1.292-0.911-3.255-1.383-5.889-1.408c-3.617-0.037-6.885,0.687-9.804,2.169
			c-2.92,1.482-5.353,3.361-7.307,5.63c-1.951,2.275-3.349,4.725-4.193,7.35c-0.261,0.813-0.436,1.604-0.568,2.388
			c-0.854,1.69-1.731,3.115-2.636,4.273c-0.93,1.186-1.813,2.141-2.65,2.862c-0.836,0.724-1.618,1.239-2.341,1.548
			c-0.724,0.309-1.295,0.462-1.707,0.456c-0.674-0.006-1.067-0.387-1.183-1.139c-0.117-0.758,0.234-2.01,1.058-3.758
			c0.067-0.194,0.373-0.886,0.913-2.076c0.542-1.189,1.209-2.659,2.004-4.407c0.794-1.748,1.684-3.689,2.67-5.824
			c0.983-2.138,1.954-4.273,2.912-6.411l4.262,0.044l1.684-2.469l-4.997,0.387c0.701-1.554,1.353-2.999,1.96-4.335
			c0.605-1.333,1.156-2.509,1.657-3.53c0.568-1.211,1.077-2.332,1.526-3.349l-0.075-0.003c-1.757-0.016-3.293,0.103-4.608,0.356
			c-1.314,0.256-2.489,0.696-3.525,1.32c-1.033,0.624-1.949,1.479-2.739,2.569c-0.791,1.089-1.54,2.438-2.246,4.039l-1.33,2.84
			l-7.594-0.078c0.631-1.308,1.214-2.547,1.754-3.711c0.537-1.167,0.999-2.185,1.384-3.059l1.252-2.843h-0.078
			c-1.757-0.019-3.294,0.103-4.605,0.356c-1.317,0.256-2.494,0.696-3.525,1.317c-1.038,0.627-1.949,1.482-2.739,2.572
			c-0.793,1.089-1.542,2.434-2.247,4.039l-0.571,1.236l-2.943-0.028l-1.183,2.038l3.179,0.031l-6.342,14.115
			c-0.021,0.033-0.044,0.051-0.066,0.086c-1.028,1.745-2.165,3.246-3.407,4.504c-1.245,1.255-2.525,2.303-3.836,3.143
			c-1.314,0.84-2.622,1.458-3.923,1.86c-1.3,0.4-2.517,0.596-3.653,0.584c-1.345-0.013-2.489-0.256-3.429-0.727
			c-0.943-0.471-1.717-1.096-2.322-1.882c-0.605-0.783-1.03-1.698-1.276-2.747c-0.25-1.049-0.373-2.157-0.376-3.327
			c3.22-0.159,6.15-0.74,8.794-1.732c2.647-0.996,4.878-2.191,6.704-3.583c1.826-1.392,3.219-2.887,4.182-4.482
			c0.963-1.595,1.389-3.077,1.273-4.438c-0.119-1.364-0.824-2.5-2.115-3.415c-1.292-0.911-3.257-1.383-5.891-1.408
			c-3.617-0.038-6.882,0.687-9.804,2.169c-2.918,1.482-5.353,3.361-7.305,5.63c-1.951,2.275-3.35,4.725-4.193,7.35
			c-0.261,0.811-0.435,1.604-0.568,2.386c-0.854,1.69-1.733,3.116-2.637,4.274c-0.93,1.186-1.81,2.141-2.65,2.862
			c-0.836,0.724-1.606,1.242-2.303,1.551c-0.699,0.306-1.255,0.459-1.667,0.456c-0.727-0.009-1.145-0.39-1.261-1.142
			c-0.116-0.759,0.237-2.01,1.058-3.758c0.067-0.194,0.387-0.911,0.958-2.15c0.571-1.236,1.286-2.812,2.149-4.732
			c0.863-1.917,1.834-4.067,2.917-6.448c1.08-2.375,2.163-4.778,3.249-7.207c2.556-5.73,5.487-12.185,8.789-19.373l-1.86-0.019
			c-2.842-0.028-5.044,0.474-6.604,1.507c-1.562,1.033-2.887,2.787-3.98,5.262l-5.437,11.945c-0.412-0.053-0.821-0.094-1.233-0.122
			c-0.41-0.028-0.874-0.047-1.389-0.05c-3.983-0.041-7.491,0.655-10.534,2.088c-3.043,1.436-5.602,3.237-7.672,5.409
			c-2.076,2.175-3.62,4.538-4.641,7.088c-0.417,1.046-0.724,2.051-0.968,3.037c-0.776,1.479-1.57,2.753-2.386,3.795
			c-0.93,1.186-1.81,2.141-2.65,2.862c-0.837,0.724-1.606,1.242-2.303,1.551c-0.699,0.306-1.255,0.459-1.667,0.456
			c-0.727-0.009-1.145-0.39-1.261-1.142c-0.115-0.759,0.237-2.01,1.058-3.758c0.067-0.194,0.387-0.911,0.958-2.15
			c0.571-1.236,1.286-2.812,2.149-4.732c0.003-0.006,0.005-0.013,0.008-0.019c-0.022-0.003-0.044-0.003-0.066-0.006
			c0.84-2.172,1.252-4.251,1.177-6.22c-0.087-2.316-0.899-4.301-2.439-5.949c-1.54-1.648-3.978-2.612-7.314-2.89
			c-3.287-0.275-6.369,0.24-9.245,1.554c-2.881,1.314-5.353,3.03-7.422,5.156c-2.069,2.126-3.692,4.488-4.869,7.085
			c-0.882,1.944-1.401,3.811-1.561,5.599c-0.474,1.133-1.139,2.225-2.043,3.265c-1.148,1.311-2.608,2.506-4.382,3.592
			c-1.776,1.083-3.725,1.985-5.841,2.703c-2.205,0.765-4.611,1.283-7.218,1.561c-2.572,0.268-4.923,0.041-7.061-0.68
			c-0.632-0.228-2.647-1.027-4.093-2.325c-0.517-0.555-0.944-1.192-1.255-1.944c-0.512-1.273-0.76-2.618-0.743-4.032
			c0.015-1.414,0.215-2.837,0.599-4.273c0.378-1.433,0.874-2.856,1.486-4.267c0.613-1.404,1.253-2.719,1.926-3.93l0.446-0.811
			c0.077-0.156,0.146-0.281,0.221-0.434l4.7-7.216c2.131-2.772,4.351-5.362,6.681-7.731c2.801-2.853,6.036-5.181,9.71-7.001
			c0.914-0.431,1.985-0.868,3.215-1.32c1.227-0.453,2.469-0.768,3.727-0.949c1.255-0.184,2.453-0.15,3.596,0.106
			c0.95,0.212,1.737,0.674,2.378,1.354c0.861,1.367-0.195,2.516-0.195,2.516c-0.013,0.037-0.012,0.069-0.023,0.103
			c-0.192,0.318-0.332,0.668-0.332,1.064c0,1.158,0.939,2.097,2.097,2.097c1.098,0,1.973-0.852,2.063-1.929
			c0.009,0,0.019-0.003,0.029-0.006c0.001-0.037-0.006-0.072-0.005-0.109c0-0.019,0.01-0.034,0.01-0.053
			c0-0.028-0.015-0.05-0.016-0.078c0.027-1.121-0.116-2.207-0.488-3.259c-0.481-1.345-1.403-2.509-2.767-3.502
			c-1.415-0.989-3.013-1.642-4.797-1.951c-1.784-0.309-3.625-0.39-5.526-0.237c-1.901,0.153-3.764,0.499-5.594,1.039
			c-1.831,0.546-3.472,1.152-4.924,1.816c-3.233,1.529-6.167,3.502-8.805,5.911c-2.634,2.413-4.953,5.025-6.948,7.834
			c-0.237,0.337-0.459,0.665-0.668,0.98c-0.208,0.315-0.403,0.643-0.587,0.983c-0.014-0.016-0.023-0.034-0.037-0.05
			c-1.524,2.41-3.312,6.092-3.785,7.082c-0.683,1.579-1.268,3.19-1.727,4.835c-0.707,2.531-0.961,5.062-0.763,7.603
			c0.092,1.314,0.304,2.622,0.635,3.917c0.328,1.298,0.793,2.534,1.389,3.711c0.596,1.174,1.345,2.254,2.244,3.237
			c0.899,0.986,1.968,1.801,3.204,2.447c0.081,0.044,0.175,0.066,0.258,0.106c-0.005,0.006-0.013,0.009-0.017,0.016
			c0.151,0.05,0.293,0.106,0.437,0.159c0.37,0.165,0.737,0.334,1.125,0.468c1.364,0.605,2.917,1.28,6.303,1.355
			c2.63,0.056,5.273,0.218,7.96-0.059c2.683-0.275,5.261-0.78,7.736-1.52c2.47-0.74,4.672-1.664,6.611-2.772
			c0.844-0.503,1.603-1.049,2.313-1.617c1.514,1.639,3.891,2.578,7.144,2.803c3.287,0.275,6.367-0.24,9.246-1.554
			c0.359-0.165,0.694-0.353,1.041-0.531c0.203,0.346,0.445,0.659,0.745,0.915c1.035,0.889,2.508,1.342,4.419,1.361
			c2.79,0.028,5.531-1.042,8.226-3.208c1.501-1.205,2.842-2.669,4.053-4.338c0.081,2.029,0.637,3.752,1.713,5.137
			c1.141,1.473,2.848,2.222,5.122,2.247c2.169,0.022,4.129-0.543,5.883-1.698c1.751-1.152,3.283-2.425,4.594-3.827l-0.012,0.144
			c-0.062,1.901,0.429,3.293,1.465,4.182c1.035,0.889,2.508,1.342,4.42,1.361c2.79,0.028,5.531-1.042,8.226-3.208
			c1.781-1.436,3.339-3.224,4.712-5.306c0.044,0.348,0.073,0.699,0.147,1.039c0.506,2.3,1.776,4.21,3.816,5.743
			c2.043,1.533,4.947,2.316,8.719,2.353c2.118,0.022,4.182-0.256,6.199-0.836c2.013-0.581,3.908-1.414,5.682-2.503
			c1.763-1.08,3.351-2.378,4.765-3.889c-0.007,0.039-0.02,0.081-0.026,0.122c-0.262,1.583-0.206,2.884,0.172,3.911
			s1.049,1.792,2.015,2.288c0.966,0.499,2.146,0.752,3.541,0.768c1.91,0.019,3.817-0.499,5.716-1.554
			c1.899-1.052,3.678-2.522,5.339-4.404c-0.229,2.091,0.183,3.633,1.236,4.619c1.052,0.986,2.587,1.489,4.602,1.508
			c2.79,0.028,5.531-1.043,8.223-3.209c1.783-1.436,3.341-3.224,4.714-5.304c0.044,0.348,0.074,0.698,0.148,1.038
			c0.503,2.3,1.773,4.21,3.816,5.743c2.04,1.533,4.946,2.316,8.719,2.353c2.116,0.022,4.182-0.256,6.197-0.837
			c2.015-0.581,3.909-1.414,5.682-2.503c1.773-1.089,3.371-2.391,4.794-3.914c1.423-1.523,2.625-3.205,3.61-5.05
			c0.189-0.387,0.257-0.715,0.201-0.986C246.134,153.184,245.995,153.012,245.769,152.934z M223.59,147.884
			c0.718-1.773,1.595-3.374,2.62-4.803c1.025-1.426,2.186-2.588,3.477-3.474c1.289-0.889,2.633-1.33,4.028-1.314
			c1.086,0.009,1.804,0.359,2.161,1.046c0.354,0.687,0.395,1.567,0.123,2.634c-0.271,1.071-0.821,2.222-1.651,3.458
			c-0.83,1.236-1.848,2.397-3.049,3.48c-1.208,1.086-2.592,2.038-4.162,2.85c-1.568,0.811-3.212,1.286-4.928,1.414
			C222.409,151.42,222.869,149.66,223.59,147.884z M158.733,147.235c0.718-1.773,1.592-3.374,2.619-4.803
			c1.024-1.426,2.185-2.587,3.477-3.474c1.289-0.89,2.634-1.33,4.026-1.314c1.086,0.009,1.806,0.359,2.163,1.046
			c0.353,0.687,0.393,1.567,0.123,2.634c-0.273,1.071-0.822,2.222-1.653,3.458c-0.83,1.236-1.845,2.397-3.049,3.48
			c-1.205,1.086-2.591,2.038-4.16,2.85c-1.57,0.815-3.212,1.286-4.928,1.414C157.55,150.771,158.009,149.011,158.733,147.235z
			 M86.478,145.732c0.183-0.423,0.34-0.865,0.539-1.275c0.941-1.938,2.038-3.574,3.288-4.906c1.25-1.327,2.58-2.032,3.981-2.116
			c1.403-0.081,2.414,0.474,3.037,1.676c0.091,0.176,0.162,0.376,0.239,0.568c-0.192,0.103-0.365,0.239-0.501,0.443
			c-0.876,1.28-1.776,2.353-2.703,3.221c-0.93,0.868-1.81,1.567-2.65,2.097c-0.836,0.528-1.606,0.908-2.303,1.133
			c-0.699,0.228-1.255,0.337-1.667,0.337c-0.727-0.006-1.145-0.287-1.261-0.839C86.457,145.974,86.469,145.851,86.478,145.732z
			 M97.298,149.866c-0.577,2.213-1.333,4.279-2.272,6.195c-0.939,1.916-2.037,3.539-3.286,4.869
			c-1.252,1.327-2.578,2.057-3.986,2.188c-1.404,0.084-2.403-0.474-2.999-1.673c-0.595-1.202-0.89-2.74-0.886-4.619
			c0.008-1.876,0.296-3.923,0.874-6.136c0.127-0.49,0.297-0.949,0.443-1.425c2.369-0.183,4.704-0.916,7.004-2.268
			c2.315-1.367,4.264-3.158,5.89-5.321c0.09,0.637,0.144,1.308,0.131,2.051C98.178,145.605,97.876,147.653,97.298,149.866z
			 M132.762,149.791c-1.128,2.332-2.263,4.391-3.396,6.186c-0.531,0.774-1.074,1.536-1.629,2.288
			c-0.557,0.752-1.142,1.414-1.76,1.991c-0.618,0.581-1.239,1.039-1.863,1.373c-0.623,0.334-1.242,0.496-1.863,0.49
			c-0.93-0.009-1.451-0.596-1.558-1.766c-0.106-1.174,0.058-2.647,0.496-4.423c0.434-1.776,1.127-3.683,2.077-5.721
			c0.947-2.041,2.054-3.942,3.319-5.709c1.261-1.77,2.625-3.23,4.095-4.385c1.469-1.158,2.951-1.726,4.449-1.714
			c0.726,0.009,1.241,0.159,1.553,0.456c0.309,0.296,0.506,0.565,0.59,0.811L132.762,149.791z M196.205,153.427
			c-0.874,1.745-1.773,3.199-2.7,4.363c-0.927,1.161-1.807,2.101-2.644,2.825c-0.84,0.724-1.607,1.236-2.303,1.548
			c-0.699,0.309-1.255,0.462-1.67,0.456c-0.671-0.006-1.064-0.387-1.183-1.139c-0.115-0.758,0.237-2.01,1.058-3.758l8.423-18.717
			l7.672,0.078L196.205,153.427z"/>
		<path fill="#FFFFFF" d="M72.659,114.918c1.251,0,2.476,0.105,3.674,0.312c1.784,0.309,3.382,0.961,4.797,1.951
			c1.364,0.993,2.286,2.157,2.767,3.502c0.372,1.052,0.516,2.138,0.488,3.258c0.002,0.028,0.016,0.05,0.016,0.078
			c0,0.019-0.01,0.034-0.01,0.053c-0.002,0.038,0.006,0.072,0.005,0.109c-0.009,0.003-0.02,0.006-0.029,0.006
			c-0.09,1.077-0.965,1.929-2.063,1.929c-1.158,0-2.097-0.939-2.097-2.097c0-0.396,0.14-0.746,0.332-1.064
			c0.011-0.034,0.009-0.066,0.023-0.103c0,0,1.057-1.149,0.195-2.516c-0.641-0.68-1.428-1.142-2.378-1.354
			c-0.662-0.148-1.343-0.222-2.044-0.222c-0.507,0-1.025,0.039-1.552,0.116c-1.258,0.181-2.5,0.496-3.727,0.949
			c-1.23,0.453-2.3,0.89-3.215,1.32c-3.674,1.82-6.909,4.148-9.71,7.001c-2.33,2.369-4.55,4.959-6.681,7.731l-4.7,7.216
			c-0.075,0.153-0.144,0.278-0.221,0.434l-0.446,0.811c-0.673,1.211-1.312,2.525-1.926,3.93c-0.612,1.411-1.108,2.834-1.486,4.267
			c-0.384,1.436-0.584,2.859-0.599,4.273c-0.017,1.414,0.231,2.759,0.743,4.032c0.311,0.752,0.738,1.389,1.255,1.944
			c1.447,1.298,3.461,2.097,4.093,2.325c1.559,0.526,3.232,0.789,5.021,0.789c0.664,0,1.344-0.036,2.04-0.109
			c2.606-0.278,5.013-0.796,7.218-1.561c2.116-0.718,4.065-1.62,5.841-2.703c1.774-1.086,3.234-2.281,4.382-3.592
			c0.904-1.039,1.568-2.132,2.043-3.265c0.159-1.788,0.679-3.655,1.561-5.599c1.177-2.597,2.8-4.959,4.869-7.085
			c2.069-2.126,4.541-3.842,7.422-5.156c2.377-1.086,4.893-1.626,7.55-1.626c0.559,0,1.124,0.024,1.695,0.072
			c3.336,0.278,5.774,1.242,7.314,2.89c1.54,1.648,2.352,3.633,2.439,5.949c0.075,1.97-0.337,4.048-1.177,6.22
			c0.022,0.003,0.044,0.003,0.066,0.006c-0.003,0.006-0.005,0.012-0.008,0.019c-0.863,1.919-1.578,3.496-2.149,4.732
			c-0.571,1.239-0.891,1.957-0.958,2.15c-0.821,1.748-1.173,2.999-1.058,3.758c0.116,0.752,0.534,1.133,1.261,1.142
			c0.004,0,0.008,0,0.013,0c0.411,0,0.962-0.153,1.654-0.456c0.698-0.309,1.467-0.827,2.303-1.551c0.84-0.721,1.72-1.676,2.65-2.862
			c0.816-1.042,1.61-2.316,2.386-3.795c0.244-0.986,0.551-1.991,0.968-3.037c1.021-2.55,2.566-4.913,4.641-7.088
			c2.069-2.172,4.629-3.973,7.672-5.409c2.959-1.393,6.358-2.09,10.206-2.09c0.109,0,0.218,0.001,0.328,0.002
			c0.515,0.003,0.978,0.022,1.389,0.05c0.412,0.028,0.821,0.069,1.233,0.122l5.437-11.945c1.092-2.475,2.417-4.229,3.98-5.262
			c1.519-1.006,3.646-1.509,6.38-1.509c0.074,0,0.149,0,0.225,0.001l1.86,0.019c-3.302,7.188-6.233,13.642-8.789,19.373
			c-1.086,2.428-2.169,4.832-3.249,7.207c-1.083,2.381-2.054,4.532-2.917,6.448c-0.863,1.919-1.578,3.496-2.149,4.732
			c-0.571,1.239-0.891,1.957-0.958,2.15c-0.821,1.748-1.174,2.999-1.058,3.758c0.116,0.752,0.534,1.133,1.261,1.142
			c0.004,0,0.008,0,0.013,0c0.411,0,0.962-0.153,1.654-0.456c0.698-0.309,1.467-0.827,2.303-1.551c0.84-0.721,1.72-1.676,2.65-2.862
			c0.904-1.158,1.783-2.584,2.637-4.274c0.133-0.782,0.307-1.575,0.568-2.386c0.843-2.625,2.242-5.075,4.193-7.35
			c1.952-2.269,4.387-4.148,7.305-5.63c2.849-1.446,6.025-2.171,9.537-2.171c0.089,0,0.178,0,0.267,0.001
			c2.634,0.025,4.599,0.496,5.891,1.408c1.291,0.915,1.996,2.051,2.115,3.415c0.115,1.361-0.311,2.843-1.273,4.438
			c-0.963,1.595-2.356,3.09-4.182,4.482s-4.058,2.587-6.704,3.583c-2.644,0.993-5.574,1.573-8.794,1.732
			c0.003,1.17,0.127,2.278,0.376,3.327c0.247,1.049,0.671,1.963,1.276,2.746c0.606,0.787,1.38,1.411,2.322,1.882
			c0.939,0.471,2.083,0.715,3.429,0.727c0.034,0,0.068,0.001,0.102,0.001c1.107,0,2.29-0.197,3.551-0.584
			c1.301-0.403,2.609-1.021,3.923-1.86c1.311-0.84,2.591-1.888,3.836-3.143c1.242-1.258,2.378-2.759,3.407-4.504
			c0.021-0.034,0.044-0.053,0.066-0.086l6.342-14.115l-3.179-0.031l1.183-2.038l2.943,0.028l0.571-1.236
			c0.705-1.604,1.454-2.949,2.247-4.039c0.79-1.089,1.701-1.944,2.739-2.572c1.031-0.621,2.208-1.061,3.525-1.317
			c1.224-0.236,2.644-0.358,4.257-0.358c0.115,0,0.231,0.001,0.348,0.002h0.078l-1.252,2.843c-0.385,0.874-0.847,1.891-1.384,3.059
			c-0.54,1.164-1.124,2.403-1.754,3.711l7.594,0.078l1.33-2.84c0.705-1.601,1.455-2.949,2.246-4.039
			c0.79-1.089,1.706-1.944,2.739-2.569c1.036-0.624,2.211-1.064,3.525-1.32c1.24-0.238,2.674-0.357,4.306-0.357
			c0.1,0,0.201,0,0.302,0.001l0.075,0.003c-0.45,1.017-0.958,2.138-1.526,3.349c-0.501,1.021-1.052,2.197-1.657,3.53
			c-0.607,1.336-1.259,2.781-1.96,4.335l4.997-0.387l-1.684,2.469l-4.262-0.044c-0.958,2.138-1.929,4.273-2.912,6.411
			c-0.986,2.135-1.876,4.076-2.67,5.824c-0.794,1.748-1.462,3.218-2.004,4.407c-0.54,1.189-0.846,1.882-0.913,2.076
			c-0.824,1.748-1.175,2.999-1.058,3.758c0.116,0.752,0.509,1.133,1.183,1.139c0.008,0,0.016,0,0.024,0
			c0.41,0,0.973-0.153,1.683-0.456c0.722-0.309,1.504-0.824,2.341-1.548c0.837-0.721,1.72-1.676,2.65-2.862
			c0.904-1.158,1.782-2.583,2.636-4.273c0.132-0.783,0.307-1.575,0.568-2.388c0.844-2.625,2.242-5.075,4.193-7.35
			c1.954-2.269,4.387-4.148,7.307-5.63c2.847-1.446,6.026-2.171,9.538-2.171c0.088,0,0.177,0,0.266,0.001
			c2.634,0.025,4.597,0.496,5.89,1.408c1.292,0.915,1.996,2.051,2.113,3.415c0.119,1.361-0.309,2.843-1.27,4.438
			c-0.964,1.595-2.36,3.09-4.182,4.482c-1.826,1.392-4.059,2.588-6.704,3.583c-2.644,0.993-5.578,1.573-8.795,1.732
			c0.003,1.17,0.128,2.278,0.374,3.327c0.247,1.049,0.671,1.963,1.28,2.747c0.602,0.78,1.378,1.411,2.322,1.882
			c0.939,0.471,2.083,0.715,3.427,0.727c0.034,0,0.068,0.001,0.102,0.001c1.107,0,2.292-0.197,3.553-0.584
			c1.301-0.403,2.608-1.024,3.92-1.86c1.312-0.84,2.592-1.888,3.839-3.146c1.242-1.255,2.378-2.756,3.407-4.501
			c0.239-0.39,0.495-0.643,0.763-0.762c0.165-0.073,0.321-0.109,0.47-0.109c0.094,0,0.185,0.015,0.273,0.044
			c0.226,0.078,0.365,0.25,0.421,0.515c0.056,0.272-0.012,0.599-0.201,0.986c-0.985,1.845-2.186,3.527-3.61,5.05
			c-1.423,1.523-3.021,2.825-4.794,3.914c-1.773,1.089-3.667,1.923-5.682,2.503c-1.942,0.56-3.931,0.838-5.967,0.838
			c-0.077,0-0.153,0-0.23-0.001c-3.773-0.038-6.679-0.821-8.719-2.353c-2.043-1.533-3.313-3.443-3.816-5.743
			c-0.074-0.34-0.104-0.69-0.148-1.038c-1.373,2.08-2.932,3.869-4.714,5.304c-2.658,2.138-5.362,3.209-8.116,3.209
			c-0.036,0-0.071,0-0.107-0.001c-2.015-0.019-3.55-0.521-4.602-1.508c-1.053-0.986-1.465-2.528-1.236-4.619
			c-1.66,1.882-3.439,3.352-5.339,4.404c-1.866,1.037-3.74,1.555-5.617,1.555c-0.033,0-0.067,0-0.1,0
			c-1.395-0.016-2.575-0.268-3.541-0.768c-0.966-0.496-1.637-1.261-2.015-2.288c-0.378-1.027-0.434-2.328-0.172-3.911
			c0.006-0.041,0.019-0.083,0.026-0.122c-1.414,1.511-3.002,2.809-4.765,3.889c-1.774,1.089-3.669,1.923-5.682,2.503
			c-1.943,0.559-3.93,0.838-5.967,0.838c-0.077,0-0.154,0-0.231-0.001c-3.772-0.037-6.676-0.821-8.719-2.353
			c-2.04-1.532-3.31-3.443-3.816-5.743c-0.074-0.34-0.103-0.691-0.147-1.039c-1.373,2.082-2.931,3.87-4.712,5.306
			c-2.661,2.138-5.365,3.209-8.119,3.209c-0.036,0-0.071,0-0.107-0.001c-1.912-0.019-3.385-0.471-4.42-1.361
			c-1.036-0.89-1.528-2.282-1.465-4.182l0.012-0.144c-1.311,1.401-2.843,2.675-4.594,3.827c-1.722,1.133-3.642,1.698-5.763,1.698
			c-0.04,0-0.08,0-0.12-0.001c-2.274-0.025-3.981-0.774-5.122-2.247c-1.077-1.386-1.632-3.109-1.713-5.137
			c-1.211,1.67-2.552,3.134-4.053,4.338c-2.661,2.138-5.365,3.209-8.119,3.209c-0.036,0-0.071,0-0.107-0.001
			c-1.912-0.019-3.385-0.471-4.419-1.361c-0.3-0.256-0.542-0.568-0.745-0.915c-0.346,0.178-0.682,0.365-1.041,0.531
			c-2.379,1.086-4.895,1.626-7.552,1.626c-0.559,0-1.124-0.024-1.695-0.072c-3.254-0.225-5.63-1.164-7.144-2.803
			c-0.71,0.568-1.468,1.114-2.313,1.617c-1.938,1.108-4.14,2.032-6.611,2.772c-2.475,0.74-5.053,1.245-7.736,1.52
			c-1.158,0.12-2.307,0.158-3.451,0.158c-1.511,0-3.013-0.066-4.509-0.098c-3.386-0.075-4.939-0.749-6.303-1.355
			c-0.389-0.134-0.755-0.303-1.125-0.468c-0.143-0.053-0.286-0.109-0.437-0.159c0.005-0.006,0.012-0.009,0.017-0.016
			c-0.083-0.041-0.176-0.062-0.258-0.106c-1.236-0.646-2.305-1.461-3.204-2.447c-0.899-0.983-1.648-2.063-2.244-3.237
			c-0.596-1.177-1.061-2.413-1.389-3.711c-0.331-1.295-0.543-2.603-0.635-3.917c-0.198-2.541,0.056-5.072,0.763-7.603
			c0.46-1.645,1.044-3.255,1.727-4.835c0.473-0.99,2.261-4.672,3.785-7.082c0.014,0.016,0.023,0.034,0.037,0.05
			c0.184-0.34,0.379-0.668,0.587-0.983c0.209-0.315,0.431-0.643,0.668-0.98c1.994-2.809,4.313-5.421,6.948-7.834
			c2.637-2.41,5.571-4.382,8.805-5.911c1.451-0.665,3.093-1.27,4.924-1.816c1.831-0.54,3.694-0.886,5.594-1.039
			C71.431,114.943,72.048,114.918,72.659,114.918 M87.738,146.91c0.412,0,0.967-0.109,1.667-0.337
			c0.698-0.225,1.467-0.605,2.303-1.133c0.84-0.531,1.72-1.23,2.65-2.097c0.927-0.868,1.827-1.941,2.703-3.221
			c0.136-0.204,0.309-0.34,0.501-0.443c-0.077-0.192-0.148-0.392-0.239-0.568c-0.583-1.125-1.506-1.684-2.773-1.684
			c-0.086,0-0.174,0.003-0.263,0.008c-1.401,0.084-2.731,0.79-3.981,2.116c-1.25,1.333-2.347,2.968-3.288,4.906
			c-0.199,0.41-0.357,0.852-0.539,1.275c-0.009,0.119-0.021,0.242-0.001,0.339C86.593,146.623,87.011,146.904,87.738,146.91
			 M157.35,152.525c1.717-0.128,3.358-0.599,4.928-1.414c1.57-0.812,2.956-1.764,4.16-2.85c1.205-1.083,2.219-2.244,3.049-3.48
			c0.83-1.236,1.38-2.388,1.653-3.458c0.27-1.067,0.229-1.948-0.123-2.634c-0.357-0.687-1.077-1.036-2.163-1.046
			c-0.024,0-0.047,0-0.071,0c-1.367,0-2.688,0.44-3.955,1.314c-1.292,0.886-2.453,2.047-3.477,3.474
			c-1.027,1.429-1.901,3.031-2.619,4.803C158.009,149.011,157.55,150.771,157.35,152.525 M222.209,153.174
			c1.717-0.128,3.36-0.602,4.928-1.414c1.57-0.811,2.954-1.763,4.162-2.85c1.202-1.083,2.219-2.244,3.049-3.48
			c0.83-1.236,1.38-2.388,1.651-3.458c0.271-1.067,0.231-1.948-0.123-2.634c-0.357-0.687-1.075-1.036-2.161-1.046
			c-0.024,0-0.048,0-0.072,0c-1.369,0-2.689,0.44-3.956,1.314c-1.291,0.886-2.452,2.048-3.477,3.474
			c-1.025,1.429-1.902,3.03-2.62,4.803C222.869,149.66,222.409,151.42,222.209,153.174 M122.285,162.119
			c0.609,0,1.218-0.162,1.829-0.49c0.624-0.334,1.245-0.793,1.863-1.373c0.618-0.577,1.203-1.239,1.76-1.991
			c0.556-0.752,1.099-1.514,1.629-2.288c1.133-1.795,2.267-3.855,3.396-6.186l4.51-10.122c-0.084-0.247-0.281-0.515-0.59-0.812
			c-0.312-0.297-0.827-0.446-1.553-0.456c-0.016,0-0.032,0-0.048,0c-1.482,0-2.948,0.568-4.401,1.714
			c-1.47,1.155-2.834,2.615-4.095,4.385c-1.266,1.767-2.372,3.667-3.319,5.709c-0.95,2.038-1.643,3.945-2.077,5.721
			c-0.439,1.776-0.602,3.249-0.496,4.423c0.106,1.17,0.627,1.757,1.558,1.766C122.262,162.119,122.273,162.119,122.285,162.119
			 M186.913,162.619c0.412,0,0.96-0.153,1.645-0.456c0.696-0.312,1.464-0.824,2.303-1.548c0.836-0.724,1.717-1.664,2.644-2.825
			c0.927-1.164,1.826-2.618,2.7-4.363l6.653-14.345l-7.672-0.078l-8.422,18.717c-0.821,1.748-1.173,2.999-1.058,3.758
			c0.119,0.752,0.512,1.133,1.183,1.139C186.897,162.619,186.905,162.619,186.913,162.619 M87.483,163.126
			c0.089,0,0.179-0.003,0.271-0.008c1.408-0.131,2.734-0.861,3.986-2.188c1.25-1.33,2.347-2.953,3.286-4.869
			c0.939-1.916,1.695-3.983,2.272-6.195c0.577-2.213,0.88-4.26,0.911-6.139c0.013-0.743-0.041-1.414-0.131-2.051
			c-1.625,2.163-3.574,3.954-5.89,5.321c-2.3,1.351-4.635,2.085-7.004,2.268c-0.146,0.476-0.316,0.935-0.443,1.425
			c-0.578,2.213-0.866,4.26-0.874,6.136c-0.003,1.879,0.292,3.418,0.886,4.619C85.311,162.565,86.22,163.126,87.483,163.126
			 M72.659,113.918c-0.636,0-1.286,0.026-1.932,0.078c-1.958,0.158-3.909,0.52-5.797,1.077c-1.871,0.558-3.572,1.186-5.057,1.867
			c-3.313,1.567-6.359,3.611-9.063,6.082c-2.682,2.456-5.066,5.146-7.089,7.994c-0.209,0.298-0.405,0.586-0.592,0.864l-0.022-0.025
			l-0.707,1.118c-1.552,2.454-3.333,6.12-3.842,7.185c-0.739,1.705-1.335,3.375-1.788,4.997c-0.735,2.632-1.003,5.307-0.797,7.95
			c0.095,1.36,0.319,2.738,0.663,4.087c0.341,1.351,0.834,2.67,1.466,3.916c0.635,1.25,1.442,2.413,2.398,3.46
			c0.776,0.851,1.68,1.594,2.695,2.215l-0.144,0.193l1.318,0.436c0.097,0.032,0.189,0.067,0.281,0.102l0.089,0.033l0.076,0.034
			c0.336,0.151,0.683,0.306,1.061,0.439c1.359,0.603,3.06,1.344,6.649,1.424c0.507,0.011,1.013,0.026,1.521,0.04
			c0.983,0.029,1.999,0.058,3.011,0.058c1.349,0,2.478-0.052,3.554-0.163c2.736-0.28,5.401-0.804,7.919-1.557
			c2.529-0.757,4.824-1.72,6.821-2.862c0.59-0.351,1.164-0.735,1.746-1.168c1.684,1.437,4.083,2.272,7.145,2.483
			c0.582,0.049,1.18,0.074,1.763,0.074c2.791,0,5.472-0.577,7.967-1.716c0.11-0.051,0.217-0.103,0.322-0.156
			c0.125,0.141,0.257,0.27,0.397,0.39c1.21,1.04,2.913,1.58,5.06,1.601l0.117,0.001c2.971,0,5.914-1.154,8.745-3.43
			c0.958-0.769,1.882-1.664,2.763-2.675c0.316,1.248,0.846,2.355,1.586,3.308c1.331,1.719,3.317,2.605,5.901,2.634l0.131,0.001
			c2.311,0,4.435-0.627,6.313-1.863c1.156-0.761,2.228-1.58,3.203-2.447c0.261,1.194,0.81,2.155,1.643,2.87
			c1.212,1.042,2.915,1.581,5.062,1.602l0.117,0.001c2.972,0,5.914-1.154,8.745-3.43c1.27-1.024,2.469-2.253,3.581-3.671
			c0.694,2.024,1.991,3.758,3.867,5.167c2.207,1.655,5.339,2.515,9.31,2.554l0.241,0.001c2.122,0,4.223-0.295,6.244-0.877
			c2.095-0.604,4.089-1.483,5.929-2.612c1.08-0.661,2.106-1.409,3.07-2.236c0.044,0.683,0.17,1.305,0.379,1.872
			c0.466,1.268,1.306,2.221,2.497,2.832c1.093,0.565,2.435,0.861,3.987,0.878l0.111,0.001c2.041,0,4.095-0.565,6.102-1.681
			c1.352-0.749,2.657-1.708,3.9-2.864c0.207,1.208,0.71,2.191,1.505,2.935c1.235,1.158,3.011,1.757,5.277,1.778l0.116,0.001
			c2.972,0,5.914-1.154,8.743-3.43c1.271-1.023,2.47-2.253,3.582-3.67c0.692,2.023,1.99,3.757,3.868,5.167
			c2.202,1.655,5.335,2.514,9.309,2.554l0.24,0.001c2.124,0,4.225-0.295,6.244-0.877c2.096-0.604,4.091-1.483,5.929-2.612
			c1.848-1.135,3.53-2.509,5.001-4.083c1.474-1.577,2.739-3.348,3.761-5.262c0.309-0.632,0.401-1.165,0.298-1.66
			c-0.131-0.619-0.512-1.064-1.075-1.258c-0.202-0.067-0.399-0.098-0.599-0.098c-0.288,0-0.582,0.065-0.874,0.194
			c-0.46,0.203-0.868,0.592-1.212,1.155c-0.991,1.681-2.086,3.129-3.264,4.319c-1.189,1.199-2.423,2.211-3.667,3.007
			c-1.233,0.786-2.47,1.374-3.677,1.747c-1.164,0.358-2.261,0.539-3.257,0.539l-0.091-0.001c-1.184-0.011-2.19-0.22-2.989-0.621
			c-0.804-0.401-1.469-0.939-1.979-1.599c-0.523-0.674-0.882-1.446-1.098-2.364c-0.161-0.687-0.267-1.411-0.316-2.161
			c2.925-0.226,5.651-0.808,8.115-1.733c2.719-1.023,5.06-2.276,6.959-3.724c1.916-1.463,3.406-3.064,4.432-4.76
			c1.073-1.781,1.547-3.477,1.411-5.043c-0.143-1.661-0.995-3.056-2.532-4.144c-1.48-1.044-3.592-1.564-6.458-1.592l-0.275-0.001
			c-3.653,0-7.014,0.767-9.991,2.279c-3.015,1.531-5.576,3.506-7.612,5.87c-2.031,2.369-3.507,4.958-4.388,7.697
			c-0.236,0.734-0.425,1.513-0.576,2.376c-0.802,1.571-1.63,2.908-2.464,3.975c-0.887,1.131-1.733,2.047-2.514,2.72
			c-0.752,0.651-1.452,1.117-2.081,1.386c-0.794,0.339-1.166,0.375-1.29,0.375c-0.088-0.001-0.128-0.012-0.139-0.016
			c0.002-0.002-0.048-0.07-0.079-0.275c-0.039-0.253-0.022-1.067,0.974-3.179l0.023-0.048l0.018-0.051
			c0.03-0.086,0.183-0.458,0.879-1.99l1.601-3.52l0.403-0.887c0.794-1.746,1.682-3.686,2.667-5.818
			c0.935-2.032,1.804-3.943,2.648-5.823l3.607,0.037l0.535,0.005l0.302-0.442l1.684-2.469l1.175-1.722l-2.079,0.161l-3.313,0.257
			c0.442-0.979,0.863-1.91,1.265-2.793c0.627-1.38,1.165-2.526,1.645-3.503c0.543-1.157,1.06-2.291,1.543-3.385l0.593-1.342
			l-1.465-0.062l-0.075-0.003l-0.345-0.002c-1.687,0-3.199,0.126-4.495,0.375c-1.425,0.277-2.721,0.764-3.853,1.446
			c-1.152,0.696-2.172,1.65-3.033,2.838c-0.828,1.139-1.619,2.56-2.351,4.222l-1.047,2.237l-5.38-0.055
			c0.379-0.798,0.739-1.566,1.082-2.305c0.541-1.176,1.005-2.198,1.392-3.076l1.252-2.844l0.618-1.404h-1.534h-0.078l-0.348-0.002
			c-1.657,0-3.153,0.126-4.447,0.376c-1.427,0.277-2.723,0.762-3.852,1.442c-1.149,0.695-2.169,1.651-3.033,2.842
			c-0.831,1.142-1.623,2.563-2.353,4.223l-0.292,0.632l-2.297-0.022l-0.583-0.006l-0.292,0.504l-1.183,2.038l-0.862,1.486
			l1.718,0.017l1.649,0.016l-5.666,12.61c-0.018,0.025-0.036,0.052-0.054,0.081c-0.991,1.68-2.086,3.13-3.266,4.325
			c-1.187,1.196-2.421,2.207-3.664,3.003c-1.225,0.783-2.463,1.371-3.679,1.747c-1.165,0.358-2.261,0.54-3.256,0.54l-0.091-0.001
			c-1.185-0.011-2.191-0.22-2.991-0.621c-0.818-0.409-1.465-0.932-1.978-1.598c-0.515-0.666-0.883-1.461-1.095-2.365
			c-0.163-0.684-0.269-1.407-0.318-2.161c2.924-0.226,5.649-0.808,8.114-1.733c2.718-1.022,5.059-2.275,6.959-3.724
			c1.916-1.46,3.407-3.062,4.432-4.761c1.071-1.774,1.547-3.47,1.414-5.04c-0.145-1.664-0.997-3.058-2.533-4.147
			c-1.481-1.044-3.593-1.565-6.46-1.592l-0.276-0.001c-3.649,0-7.01,0.767-9.989,2.279c-3.018,1.533-5.578,3.508-7.611,5.87
			c-2.033,2.372-3.509,4.961-4.387,7.697c-0.237,0.735-0.421,1.493-0.576,2.373c-0.803,1.573-1.632,2.91-2.466,3.977
			c-0.893,1.139-1.739,2.054-2.513,2.719c-0.762,0.659-1.452,1.128-2.057,1.395c-0.736,0.322-1.098,0.37-1.249,0.37
			c-0.133-0.002-0.192-0.027-0.201-0.033c-0.011-0.009-0.057-0.082-0.084-0.26c-0.038-0.25-0.02-1.063,0.975-3.181l0.022-0.048
			l0.017-0.05c0.02-0.058,0.147-0.38,0.922-2.06c0.572-1.237,1.288-2.817,2.153-4.74c0.862-1.915,1.832-4.064,2.915-6.444
			c1.081-2.377,2.165-4.782,3.252-7.213c2.502-5.609,5.375-11.942,8.785-19.364l0.644-1.403l-1.544-0.016l-1.86-0.019l-0.235-0.001
			c-2.921,0-5.253,0.563-6.932,1.675c-1.715,1.134-3.176,3.049-4.343,5.693l-5.132,11.274c-0.185-0.017-0.369-0.032-0.555-0.045
			c-0.465-0.032-0.953-0.049-1.451-0.052l-0.334-0.002c-3.975,0-7.552,0.735-10.632,2.185c-3.149,1.486-5.831,3.378-7.97,5.624
			c-2.15,2.253-3.781,4.745-4.846,7.406c-0.389,0.976-0.71,1.974-0.98,3.049c-0.741,1.402-1.492,2.592-2.232,3.538
			c-0.894,1.14-1.74,2.056-2.514,2.72c-0.762,0.659-1.452,1.128-2.057,1.395c-0.736,0.322-1.098,0.37-1.249,0.37
			c-0.133-0.002-0.192-0.027-0.201-0.033c-0.011-0.009-0.057-0.082-0.084-0.26c-0.038-0.25-0.02-1.063,0.975-3.181l0.022-0.048
			l0.017-0.05c0.026-0.075,0.168-0.425,0.921-2.059c0.572-1.237,1.288-2.817,2.153-4.74l0.004-0.009l0.618-1.219l-0.239-0.033
			c0.611-1.905,0.888-3.728,0.823-5.433c-0.096-2.556-1.008-4.775-2.708-6.594c-1.709-1.829-4.388-2.907-7.962-3.204
			c-0.596-0.05-1.194-0.075-1.778-0.075c-2.793,0-5.473,0.577-7.966,1.717c-2.98,1.359-5.579,3.165-7.723,5.368
			c-2.14,2.198-3.843,4.677-5.063,7.37c-0.897,1.979-1.446,3.917-1.631,5.763c-0.445,1.021-1.055,1.982-1.816,2.858
			c-1.072,1.223-2.469,2.367-4.149,3.395c-1.704,1.04-3.602,1.917-5.64,2.609c-2.12,0.735-4.474,1.244-7.002,1.513
			c-0.656,0.069-1.307,0.103-1.934,0.103c-1.67,0-3.252-0.248-4.702-0.737c-0.366-0.132-2.345-0.882-3.711-2.092
			c-0.449-0.489-0.786-1.017-1.032-1.612c-0.457-1.137-0.683-2.364-0.667-3.638c0.015-1.324,0.205-2.678,0.565-4.026
			c0.363-1.377,0.846-2.764,1.437-4.127c0.613-1.404,1.247-2.698,1.882-3.842l0.448-0.815c0.056-0.113,0.09-0.176,0.123-0.24
			c0.031-0.059,0.061-0.117,0.092-0.179l4.646-7.134c2.161-2.809,4.374-5.368,6.577-7.609c2.702-2.751,5.878-5.041,9.441-6.806
			c0.852-0.401,1.877-0.822,3.116-1.278c1.151-0.425,2.336-0.726,3.524-0.897c0.48-0.07,0.953-0.106,1.409-0.106
			c0.624,0,1.238,0.067,1.825,0.198c0.704,0.157,1.292,0.481,1.795,0.989c0.332,0.61-0.02,1.099-0.141,1.239l-0.122,0.141
			l-0.074,0.189c-0.009,0.025-0.016,0.048-0.023,0.072c-0.262,0.478-0.389,0.948-0.389,1.431c0,1.708,1.39,3.098,3.098,3.098
			c1.37,0,2.528-0.887,2.925-2.153l0.139-0.045l0.028-0.698c0.001-0.03,0.001-0.06,0-0.09c0.004-0.034,0.006-0.072,0.006-0.112
			v-0.154l-0.014-0.049c0.015-1.248-0.164-2.384-0.548-3.468c-0.547-1.53-1.597-2.868-3.122-3.977
			c-1.55-1.083-3.299-1.796-5.215-2.128C75.252,114.028,73.958,113.918,72.659,113.918L72.659,113.918z M87.499,145.885
			c0.036-0.087,0.071-0.175,0.107-0.263c0.099-0.247,0.198-0.493,0.312-0.729c0.891-1.836,1.94-3.403,3.118-4.658
			c1.062-1.127,2.176-1.734,3.311-1.802c0.068-0.004,0.136-0.006,0.203-0.006c0.83,0,1.39,0.304,1.794,0.98
			c-0.041,0.051-0.08,0.105-0.117,0.16c-0.824,1.204-1.685,2.232-2.553,3.044c-0.885,0.826-1.727,1.493-2.501,1.982
			c-0.769,0.485-1.468,0.831-2.076,1.026c-0.73,0.238-1.14,0.288-1.357,0.289C87.624,145.908,87.547,145.896,87.499,145.885
			L87.499,145.885z M158.539,151.362c0.236-1.245,0.612-2.501,1.121-3.75c0.684-1.69,1.527-3.236,2.505-4.597
			c0.954-1.329,2.04-2.416,3.23-3.232c1.096-0.756,2.235-1.139,3.389-1.139l0.059,0c1.028,0.009,1.223,0.384,1.287,0.507
			c0.234,0.456,0.249,1.106,0.041,1.927c-0.244,0.954-0.753,2.013-1.513,3.145c-0.785,1.169-1.756,2.277-2.888,3.294
			c-1.143,1.031-2.472,1.94-3.951,2.705C160.765,150.769,159.666,151.15,158.539,151.362L158.539,151.362z M223.397,152.011
			c0.236-1.241,0.611-2.498,1.12-3.751c0.68-1.68,1.523-3.227,2.506-4.596c0.955-1.328,2.042-2.416,3.23-3.232
			c1.111-0.766,2.219-1.138,3.389-1.138l0.06,0c1.026,0.009,1.221,0.384,1.285,0.507c0.235,0.456,0.25,1.105,0.041,1.926
			c-0.242,0.955-0.751,2.014-1.512,3.147c-0.781,1.162-1.753,2.271-2.889,3.295c-1.148,1.032-2.477,1.942-3.952,2.704
			C225.622,151.418,224.523,151.799,223.397,152.011L223.397,152.011z M122.285,162.119l-0.025-1.001
			c-0.231-0.002-0.494-0.005-0.571-0.856c-0.096-1.061,0.063-2.438,0.471-4.092c0.416-1.704,1.093-3.567,2.013-5.538
			c0.915-1.971,2-3.838,3.226-5.549c1.201-1.685,2.512-3.091,3.9-4.181c1.281-1.01,2.518-1.5,3.783-1.5
			c0.712,0.009,0.893,0.163,0.912,0.181c0.061,0.059,0.111,0.111,0.152,0.157l-4.297,9.644c-1.081,2.232-2.205,4.281-3.328,6.059
			c-0.491,0.715-1.032,1.475-1.588,2.227c-0.516,0.697-1.068,1.321-1.638,1.855c-0.556,0.522-1.111,0.933-1.652,1.222
			c-0.467,0.25-0.91,0.372-1.357,0.372V162.119L122.285,162.119z M186.776,161.602c0.002-0.001-0.049-0.07-0.082-0.279
			c-0.037-0.246-0.019-1.059,0.975-3.176l8.161-18.136l5.468,0.056l-6.001,12.939c-0.827,1.651-1.698,3.06-2.575,4.161
			c-0.881,1.103-1.727,2.009-2.516,2.691c-0.751,0.648-1.444,1.116-2.058,1.392c-0.724,0.32-1.086,0.368-1.236,0.368v1.001
			l-0.011-1.001C186.826,161.617,186.787,161.607,186.776,161.602L186.776,161.602z M85.936,150.196
			c2.321-0.278,4.591-1.062,6.76-2.336c1.645-0.971,3.15-2.173,4.496-3.587c-0.076,1.645-0.365,3.438-0.861,5.34
			c-0.561,2.149-1.302,4.17-2.203,6.007c-0.89,1.815-1.938,3.37-3.117,4.624c-1.089,1.154-2.185,1.769-3.349,1.877
			c-0.039,0.002-0.109,0.004-0.178,0.004c-0.88,0-1.445-0.347-1.832-1.126c-0.521-1.054-0.785-2.458-0.782-4.172
			c0.008-1.794,0.291-3.774,0.842-5.885C85.777,150.687,85.856,150.441,85.936,150.196L85.936,150.196z"/>
	</g>
	<g>
		<path fill-rule="evenodd" fill="#FFFFFF" d="M64.499,155.275c-0.172,0.112-0.346,0.215-0.522,0.325
			c0.492,0.543-4.323,3.667-4.874,4.314c-0.467,0.546-1.264,0.699-1.881,1.008c-0.872,0.44-1.714,0.958-2.591,1.404
			c-0.284,0.147-1.019,0.356-1.342,0.437c-0.836,0.2-1.041-0.587-1.194-1.214c-0.401-1.667-0.416-3.502-0.351-5.197
			c0.073-1.813,0.032-3.805,1.17-5.325c1.475-1.976,2.597-0.165,2.854,1.523c0.13,0.858,0.119,1.751,0.043,2.609
			c-0.065,0.771-0.677,2.119-0.393,2.859c1.891-1.763,3.257-4.204,5.502-5.606c1.024-0.652,1.986-0.418,3.083-0.178
			C65.452,152.556,64.752,154.391,64.499,155.275C64.611,154.885,64.407,155.331,64.499,155.275z"/>
	</g>
</g>
</svg>
