<svg id="Layer_1" data-name="Layer 1" xmlns="http://www.w3.org/2000/svg" viewBox="0 0 1145.01 1115.51"><defs><style>.cls-1,.cls-2{fill:#fff;}.cls-2{stroke:#fff;stroke-miterlimit:10;stroke-width:3.02px;}</style></defs><title>gwc</title><path class="cls-1" d="M1517.66,843.21a1.21,1.21,0,0,0-.34,0l-739-441C553.81,477.35,390.71,687.92,387.54,938c-4,316.11,249,575.65,565.19,579.69s575.65-249,579.69-565.19C1533.71,847.93,1520,843.28,1517.66,843.21Zm-63.53,318.22c-119.19,272.93-437.06,397.55-710,278.37A539.24,539.24,0,0,1,420.76,938.45c1.45-114.13,38-222.82,105.85-314.15A540.81,540.81,0,0,1,763.34,443c53,257.77,279.53,453.11,553.42,456.58a571.87,571.87,0,0,0,178.72-26.11c1.91,11.57,4.18,34.74,3.62,78.63A535.83,535.83,0,0,1,1454.13,1161.44Z" transform="translate(-387.49 -402.25)"/><path class="cls-1" d="M805.48,774.44l-36.78,8.31q-7.35-36.31-36.1-54.25Q707.5,712.85,680.22,719t-42.11,29.83q-15.33,24.57-8.42,52.61t32.68,44.09q16.75,10.44,32.61,10.58t32.28-10.47l-49.14-30.66L697,784.58l85.38,53.26-4.23,7.3a97.93,97.93,0,0,1-37.88,35q-24,12.77-48.91,11.77t-49.59-16.3q-26.42-16.48-40-40.88a99,99,0,0,1-12.36-53.15A107.5,107.5,0,0,1,606,728.25q21-33.69,58.83-44.73,44.92-13.17,87.26,13.24a123.49,123.49,0,0,1,36.31,34Q800.38,747.9,805.48,774.44Z" transform="translate(-387.49 -402.25)"/><path class="cls-1" d="M862.19,771.39l32.05,20L788.38,961.12l-32.07-20Z" transform="translate(-387.49 -402.25)"/><path class="cls-1" d="M932.79,815.44L967,836.78q28.08,17.54,36.92,30a48.37,48.37,0,0,1,8.79,28.64q0,16.19-10,32.11-10.43,16.73-25.47,23t-34.78,1.94L935.65,1053l-35.32-22L907,935.28l-3-1.81-44.84,71.88-32.31-20.15Zm-9.06,86.5,10.13,6.34q15.4,9.61,23.75,9.18t14.17-9.87a19.36,19.36,0,0,0,3.15-11.46,18.8,18.8,0,0,0-4-10.72q-3.7-4.81-16.59-12.84L945.45,867Z" transform="translate(-387.49 -402.25)"/><path class="cls-1" d="M1067.68,899.57L1100,919.72l-86.65,138.92,47.1,29.36-19.22,30.8-79.38-49.52Z" transform="translate(-387.49 -402.25)"/><path class="cls-1" d="M1246.31,1043.05l-37.14,6.2q-1.67-25.36-14.73-33.51-6.34-4-12.53-3.09t-8.83,5.14a15.49,15.49,0,0,0-2.15,9.88q0.76,7.53,10.09,36.58,8.84,27,10.26,33.51,3.62,16,2.09,27.67a55.89,55.89,0,0,1-8.24,22.35q-13,20.88-36,25.5t-46.15-9.87q-18.12-11.31-26-28.59t-5.62-42.3l37.37,0.55q-1.81,30.14,14.17,40.09a24.47,24.47,0,0,0,17,3.88q8.7-1.31,12.68-7.65,3.62-5.77,2.93-14.2t-7.83-29.4q-13.63-39.92-14.06-57.25t7.25-29.56q11-17.65,32.34-21.89t41.09,8.08a61.75,61.75,0,0,1,20.53,21Q1242.62,1019.11,1246.31,1043.05Z" transform="translate(-387.49 -402.25)"/><path class="cls-1" d="M490.44,931.37l131.76,16.3-14.08,22.56-98.36-14.4-0.26.43,56.16,82-14.08,22.56L479,949.67Z" transform="translate(-387.49 -402.25)"/><path class="cls-1" d="M656.59,1122.81c-7.34-1-19.52-5.67-31.86-13.37-33.62-21-42.38-54.82-21.94-87.59,19-30.43,55.37-42.33,94.11-18.16,8.51,5.31,16.95,12.68,22.16,19.45L699,1044c-2.77-4.09-7.58-9.17-16.1-14.49-17-10.62-35.66-5.43-46.07,11.77-11.95,19.16-5.43,37.14,10.33,46.95a58.82,58.82,0,0,0,20.51,8.36Z" transform="translate(-387.49 -402.25)"/><path class="cls-1" d="M806.51,1146c-23.76,38.1-61.67,38.68-89.55,21.29-30.43-19-41.37-53.59-20.39-87.22s56.52-41.31,89.93-20.47C818.42,1079.49,826,1114.68,806.51,1146Zm-76-45.93c-11.15,17.87-12.06,35.93,1.81,44.56,12.55,7.83,28.48.32,40.16-18.4,9.69-15.53,13.59-35-1.13-44.16C755.77,1072.34,740.07,1084.72,730.51,1100Z" transform="translate(-387.49 -402.25)"/><path class="cls-1" d="M989.09,1123.86l-74.87,120c-7.3,11.71-14.57,24.32-18.53,31.6L867,1257.57l8.07-16.25-0.43-.26c-13.9,7.59-30.17,5.72-43.58-2.64-24.69-15.4-31.34-48.82-11.16-81.17C841.56,1122,876.09,1115.46,901,1131c12.77,8,20,18.67,20.15,28.83l0.43,0.26,35.17-56.38Zm-89.16,70.91a61.32,61.32,0,0,0,3.16-6c3.52-10,1-21.54-9-27.78-14.68-9.16-30.58-.74-40.76,15.64-11,17.66-9.19,34.17,4.21,42.57,9.37,5.84,20.83,4.1,28.42-3.85a32.53,32.53,0,0,0,5.5-6.92Z" transform="translate(-387.49 -402.25)"/><path class="cls-1" d="M971.72,1265c-7.3,14.08,1.91,28.69,17,38.11a108,108,0,0,0,31.38,13.67l-9.41,24.57c-13.3-2.38-27.61-8.35-41.66-17.11-35.32-22-42.81-55.08-22.49-87.64,16.46-26.39,51-45.29,87.22-22.75,33.62,21,30.07,55.12,14,80.87a90.38,90.38,0,0,1-9.06,12.1Zm51.9,1.63c4.91-7.87,9.74-23.2-5.16-32.49-13.59-8.5-26.86.4-33.14,8.59Z" transform="translate(-387.49 -402.25)"/><path class="cls-1" d="M1163.89,1377.76l-131.34-16.9,14.08-22.56,100.06,15.4,0.26-.43-57.85-83.09,14.07-22.55,72.95,110.5Z" transform="translate(-387.49 -402.25)"/><path class="cls-2" d="M1255.82,1222l-58-19.51,7.62-12.21,23.21,9.17c6.69,2.62,13.87,5.63,19.47,8l0.09-.14c-5-4.24-10.27-9.22-15.7-14.37l-18-17.21,7.57-12.14,23.79,9.22c6.62,2.57,12.53,5.11,18.61,7.86l0.09-.14c-5.15-4.26-10.36-9.06-15.71-13.86l-18.12-17L1238,1138l42.35,44.53-7.71,12.35-24.37-9.25c-5.71-2.2-10.93-4.32-17.07-7.33l-0.09.15c5.14,4.45,9.41,8.26,13.76,12.68l18.73,18.34Z" transform="translate(-387.49 -402.25)"/><path class="cls-2" d="M1248.87,1120.7l19.4,12.1L1280,1114l-19.4-12.1,7.1-11.39,50.49,31.49-7.1,11.39L1290,1120.21,1278.28,1139l21.12,13.18-7.15,11.46-50.49-31.49Z" transform="translate(-387.49 -402.25)"/><path class="cls-2" d="M1327.47,1049.79c16.56,10.33,20.33,26.63,11.12,41.38-9.35,15-26.12,16.69-40.51,7.72-15.14-9.44-20.42-26.16-11.11-41.07C1296.64,1042.29,1313.53,1041.07,1327.47,1049.79Zm-22.08,36.9c9.89,6.17,19.75,5.87,24.52-1.81s0.23-16.71-9.58-22.83c-9.06-5.65-19.56-6.17-24.46,1.69s-0.29,16.8,9.53,22.92v0Z" transform="translate(-387.49 -402.25)"/><path class="cls-1" d="M579.38,1132.93a167.68,167.68,0,0,1,22.45,12c10.61,6.61,17,12.83,19.61,20,2.13,6,1.35,12.48-2.72,19-5.69,9.12-16.06,11.34-23.6,9.73l-0.2.32c3.73,5.13,3.51,11.62,1.21,19.32-2.8,9.45-6.39,20.17-6.74,23.79l-16.55-10.32c0.09-2.72,2-9.64,5.43-19.75,3.62-10.1,2.09-14.49-4.42-18.67l-4.88-3-17.54,28.08-16-10Zm-3.17,40.76,6.34,4c8.06,5,15.34,4,19.25-2.28,4.1-6.58,1.69-12.68-5.66-17.38a47.54,47.54,0,0,0-7.64-4Z" transform="translate(-387.49 -402.25)"/><path class="cls-1" d="M665.52,1247.8c-11.84,19-30.73,19.28-44.63,10.62-15.17-9.46-20.62-26.7-10.16-43.48s28.16-20.59,44.82-10.2C671.42,1214.64,675.24,1232.21,665.52,1247.8Zm-37.87-22.89c-5.56,8.91-6,17.91.91,22.21,6.26,3.9,14.19.16,20-9.18,4.83-7.74,6.76-17.44-.56-22-7.77-4.84-15.6,1.33-20.36,9h0Z" transform="translate(-387.49 -402.25)"/><path class="cls-1" d="M681,1245.22c4-6.47,7.25-12.12,9.9-16.81l13.59,8.47-3.62,7.46,0.32,0.2c4.28-1.9,11.88-3.93,20.83,1.62,6.68,4.17,9.86,10.87,8.72,17.67l0.21,0.13a27.38,27.38,0,0,1,10.59-2.09,22.06,22.06,0,0,1,11.45,3.62c10,6.22,13.13,17.92,3.48,33.4l-19,30.54-15.7-9.79,17.6-28.21c4.7-7.53,5-13.4-.23-16.64a9.3,9.3,0,0,0-10.93,1,15.91,15.91,0,0,0-3.22,3.74L706,1309.85l-15.7-9.79L708.44,1271c4.1-6.58,4.53-12.48-.54-15.66-4.14-2.58-8.56-.91-11.17,1.13a12.58,12.58,0,0,0-3.15,3.62l-18.86,30.23-15.7-9.79Z" transform="translate(-387.49 -402.25)"/><path class="cls-1" d="M779.64,1355.82l2.29-5.8-0.32-.2c-6,2-12.68.91-18.82-2.9-10.5-6.55-12-18.12-6.83-26.37,8.41-13.47,24.53-12.4,42.82-.84l0.46-.74c1.72-2.72,2.72-7.61-5.27-12.57a34.42,34.42,0,0,0-16.77-5l3.51-12.25c4.86,0.24,13.59,2.12,23,8,17.29,10.79,16.45,24.4,8.84,36.6l-11.25,18a94.84,94.84,0,0,0-7.13,13.09ZM793,1330.13c-8.41-5.43-16.25-7.49-20.15-1.23-2.58,4.14-1.08,7.87,2.53,10.12a10.38,10.38,0,0,0,12.08-.72,13.59,13.59,0,0,0,2-2.56Z" transform="translate(-387.49 -402.25)"/><path class="cls-1" d="M828.19,1337c4-6.47,7.25-12.12,9.9-16.81l14,8.73-3.7,7.57,0.32,0.2a22.37,22.37,0,0,1,21.18,1.72c10.61,6.61,14.19,18.58,4.66,33.85l-19.18,30.8L839.25,1393l17.92-28.74c4.17-6.68,4.68-12.68-1.15-16.3a10.2,10.2,0,0,0-11.94.91,13,13,0,0,0-3.15,3.62l-18.66,29.89-16.12-10.05Z" transform="translate(-387.49 -402.25)"/><path class="cls-1" d="M868.32,1411.13l32.35-51.86,16.12,10.05-32.35,51.83Zm58-55.9c-2.78,4.46-8.42,5.94-13.73,2.64-5.09-3.18-6.23-8.89-3.35-13.29,2.81-4.73,8.38-6.11,13.59-2.87s6.33,8.79,3.52,13.52h0Z" transform="translate(-387.49 -402.25)"/><path class="cls-1" d="M926.85,1447.65l2.29-5.8-0.32-.2c-6,2-12.68.91-18.82-2.9-10.5-6.55-12-18.12-6.83-26.37,8.4-13.47,24.53-12.4,42.81-.84l0.46-.74c1.72-2.72,2.72-7.61-5.27-12.57a34.42,34.42,0,0,0-16.77-5l3.51-12.25c4.86,0.24,13.59,2.12,23,8,17.29,10.79,16.46,24.4,8.84,36.6l-11.25,18a94.8,94.8,0,0,0-7.13,13.09ZM940.23,1422c-8.42-5.43-16.25-7.49-20.15-1.23-2.58,4.14-1.08,7.87,2.53,10.12a10.38,10.38,0,0,0,12.08-.72,13.59,13.59,0,0,0,2-2.56Z" transform="translate(-387.49 -402.25)"/></svg>