<?xml version="1.0" encoding="utf-8"?>
<!-- Generator: Adobe Illustrator 19.2.1, SVG Export Plug-In . SVG Version: 6.00 Build 0)  -->
<svg version="1.1" baseProfile="tiny" id="Layer_1" xmlns="http://www.w3.org/2000/svg"
	 x="0px" y="0px" viewBox="0 0 1920 1920" xml:space="preserve">
<g>
	
		<rect x="935.949" y="825.83" transform="matrix(0.489 -0.8723 0.8723 0.489 -329.6432 1329.4491)" fill="#FFFFFF" width="67.74" height="240.467"/>
	<polygon fill="#FFFFFF" points="928.713,773.493 895.59,832.582 1105.352,950.162 1138.474,891.073 987.802,806.615 	"/>
	<path fill="#FFFFFF" d="M989.984,1022.904l-5.71,10.185l-34.103,60.84l-35.466,63.27c-19.596,34.961-21.714,77.952-5.491,114.52
		c1.489,3.691,3.204,7.025,5.094,10.432c28.471,58.466,26.936,127.104-3.881,184.412c-2.73-4.847-4.309-10.234-4.449-16.073
		c-0.624-32.4-18.418-62.151-46.414-77.846c-27.998-15.694-62.682-15.358-90.686,0.874c-10.437,6.181-22.931,6.318-33.302,0.505
		c-10.407-5.834-16.792-16.553-17.034-28.6c-0.642-32.41-18.546-62.222-46.507-77.896c-28.017-15.704-62.718-15.378-90.593,0.925
		c-6.6,3.829-14.259,5.443-21.573,4.369c32.018-56.344,88.862-93.882,152.902-101.244c7.289-0.006,14.433-0.745,21.626-1.917
		c32.361-5.995,61-24.049,80.557-50.777l2.419-3.364l1.962-3.501l78.81-140.595l-59.09-33.122l-33.266,59.347l-38.46,68.613
		l-7.083,12.635c-9.35,12.794-22.988,21.102-37.732,23.826c-4.222,0.708-8.372,0.9-12.623,0.841
		c-84.782,8.177-164.441,56.576-209.509,136.977c-72.885,130.023-27.17,294.064,101.858,366.389
		c129.066,72.348,292.764,25.691,365.648-104.332c45.491-81.157,44.668-175.518,6.309-252.574c-1.015-1.949-2.12-3.949-3.017-5.976
		c-7.333-16.673-7.146-36.613,2.487-53.797l42.011-74.949l33.268-59.348l-58.833-32.978L989.984,1022.904z M635.631,1547.363
		c-79.131-44.355-116.181-135.107-96.856-219.893c23.745,6.872,49.772,3.839,71.534-8.726c10.415-6.145,22.921-6.301,33.292-0.487
		c10.388,5.822,16.782,16.572,16.976,28.663c0.747,32.178,18.541,62.147,46.556,77.852c27.998,15.694,62.792,15.203,90.596-0.972
		c10.471-6.114,22.921-6.299,33.402-0.426c10.37,5.814,16.689,16.52,16.993,28.675c0.46,23.665,10.217,45.862,26.372,62.299
		C812.352,1575.932,715.074,1591.894,635.631,1547.363z"/>
	<path fill="#FFFFFF" d="M1152.342,556.738c10.477-6.036,22.862-6.236,33.325-0.371c10.407,5.834,16.699,16.502,17.053,28.61
		c0.58,26.346,12.75,51.057,32.572,67.689l11.857,8.558l37.602-46.266c-2.457-0.627-4.814-1.561-7.134-2.861
		c-2.174-1.219-4.128-2.701-5.908-4.232c-6.897-6.092-10.978-14.747-11.193-24.381c-0.75-32.131-18.623-61.783-46.621-77.476
		c-27.998-15.694-62.638-15.48-90.439,0.648c-7.017,4.055-14.833,5.387-22.37,4.066c-3.662-0.551-7.48-1.772-10.925-3.702
		c-0.884-0.495-1.716-1.084-2.511-1.651l-19.401,55.211l13.628,5.097C1105.365,571.969,1130.91,569.149,1152.342,556.738z"/>
	<path fill="#FFFFFF" d="M1318.084,325.036c-129.176-72.408-292.425-26.42-364.803,102.7
		c-45.172,80.586-44.126,174.417-5.614,251.246c1.135,1.99,2.12,3.948,3.11,6.026c7.336,16.579,7.209,36.285-2.414,53.452
		l-5.463,9.744l59.09,33.122l5.463-9.744c2.746-4.9,5.02-9.991,7.122-15.253l0.201,0.113l67.088-190.764l-13.628-5.097
		L1022.082,691.5c-1.558-11.645-4.643-23.155-9.492-33.982c-1.546-3.505-3.292-6.953-5.16-10.228
		c-29.11-59.357-27.315-128.891,4.94-186.433c53.978-96.297,176.35-130.896,272.684-76.898
		c96.371,54.02,130.712,176.464,76.734,272.762c-31.626,56.419-88.564,93.952-152.79,101.088
		c-7.263,0.043-14.506,0.655-21.533,1.922c-9.554,1.712-18.656,4.477-27.341,8.227l87.031-106.722l-11.876-8.569l-120.234,147.515
		c-1.419,1.625-2.717,3.294-4.078,5.073l-2.878,3.494c-0.248,0.443-0.593,0.927-0.877,1.131l-2.423,3.459l-1.94,3.462l-7.042,12.563
		l-1.942,3.462l58.796,32.958l0.203,0.113l1.94-3.462l7.042-12.563c9.293-12.777,22.929-20.868,37.634-23.518
		c4.089-0.734,8.281-0.999,12.501-0.884c84.738-8.057,164.09-55.95,208.787-135.688
		C1493.146,560.661,1447.169,397.393,1318.084,325.036z"/>
</g>
</svg>
