<svg id="Layer_1" data-name="Layer 1" xmlns="http://www.w3.org/2000/svg" viewBox="0 0 1874.91 1139.33"><defs><style>.cls-1{opacity:0.05;}.cls-2{fill:#f9fcfd;}</style></defs><title>contactBg</title><g class="cls-1"><path class="cls-2" d="M844.74,315c-.38,2,.71,2.87,2.48,2.61-1.54,3.63-4.51-.47-5.86-2.28.17-.35.33-.74.61-1.22.43.38.86.78,1.3,1.17,0-.54.08-1.08.13-1.63C844.21,313.67,844.35,314.2,844.74,315ZM372.67,153.38c-.58.71-1.68.75-2.28,1.44-2-5.08-3-4.08-7.63-4.18l7-5.24c-.82-.34-1.45-1.38-2.22-1.73,1.13-.79,2.29-1.59,3.46-2.4-2.62-1.56-3.76-2.85-6.52-1.78-3,1.14-4,2-6.82.42s-4.16-.37-7-.22c-1.22.07-3,3.32-3.93,4.4,1.17.57,6.51,2.17,6.51,3.6,0,3.05.09,6.91-3.7,6.14-1.72-.35-3.79-4.94-5.55-4.26s-4.69,2.62-2.33,4.76c4.38,4,9.49,5.28,13.11,10.39,1.65,2.33,3,5.39,5.43,6,2,.48,5.38-1.38,4.52-4.3,3.43,1.7,12.88-5.44,6.68-7.9a15.91,15.91,0,0,1,2.81-1.17C373.64,156.06,373.17,154.73,372.67,153.38Zm465.51,161.5c.18.82-.9,2.87.74,4.3,0-2-.26-3.39.85-5a5.84,5.84,0,0,0-2.14-.3C837.48,314.69,837.83,314.48,838.18,314.88ZM474.56,214.72c1.76,1.77,6.87,5.11,8.84,1.54s.41-5.42,1.65-9.08C480.91,200.69,469.9,210,474.56,214.72Zm30.77-43.24c-1.44-5.35-7.51-4.54-10.83-3.21-2,.8-6.83-7.8-8.81-9.95-2.31-2.56-7.79-5.27-10.85-4.79-1.59.25-5.1-.1-6.29,1.2-.84.9-3.58,4.81-4.54,4.17-3.38-2.29-3.11-2.47-6,.74-1.59,1.78-3.86,1.8-2.36-1.24,1.73-3.61,2.14-3.73.54-7.41-1.13-2.65-2-2.3-3.33-4.36-1.22-1.87-.7-5.17-2.92-5.3-1.62-.13-4.31-1-5.86-.3-4,1.76-7.82,3.83-12,4.61.4-1.69.76-3.4,1.14-5.12-6.32-.84-8.93-.82-14.79,2-4.38,2.13-7,5.14-8.92,10.85-.71,2.07-3.17,6.62-2.89,8.84.19,1,.78,7.87,1.38,7.95,5.65.64,9.36,0,13.44,4.88-4.09-.41-8.19-.79-12.31-1.21,1.56,3.67,4.82,6.28,7.73,8.15,2.32,1.52,3.41-.51,5.3-.73,4.3-.45,1.19.87,3.51,3.28,1,1,4.52,1.69,5.84,1.74,4,.2,9.23-.8,12.92.82,1.27.55,2.52,1.11,3.84,1.67.8.35,1.33-1.94,2-1.86,1.92.24,2.45,3.3,4.57,2.41q-2.38-2.51-4.75-5c6.3,2,10.2,3.68,16.54,2-1.19-2.91-1.54-4.4-4.23-5.25,3.34-3.52,3,2,5.43,3.28.84.44,3-1.08,3.25.3s.56,3,.8,4.49c2.87-3.39,8,4.14,10.36,6.33-4.38,1.45-5.25.64-5.25,6.3,2-.87,4-1.7,6-2.57,2.65-1.17,2.43-1.44,3.95,1.55,2,3.87,6.3,2.7,8.4,7,1.35,2.83,2.72,5.69,4.11,8.52.65,1.35-.79,2.07-1.66,3l-9.75,11c1,.86,5.14,3.17,4.4,5.44-.36,1-6.24,2-7.19,2.32-3.79,1.21-8.27-.46-12.15-1,.48,3-3,3.75-4.24,6.23-.91,1.84,1.85,5.6,3.62,5.51,2.65-.17,5.85.55,7.9-1.61s4.56-.33,7,.31c-.08-.91.46-1.94.35-2.82,1.65-.27,2.67.78,2.65,2.82,4.2-3.09,4.12-.23,6.84,4.48,1.49,2.58,4.28,2.29,6.7,3.79-1.4.79-2.84,1.59-4.22,2.41,2.36,1.58,3.93,2.89,6.68,2.81-.3.54-.59,1-.89,1.55q4,1.14,8,2.31c1.14.35,1,3.05,3,3.58,5.24,1.53,10.49,3,15.76,4.56.32-2.84,1.08-3.92-.84-5.43s-3.89-3.15-5.84-4.68c-1.22-1-4.14-.67-4.92-2.16-1.05-2.07-2.1-4.18-3.18-6.25,1.89.93,3.75,1.9,5.63,2.83-.43-.92-.46-2.12-.89-3.07l9.63,6.79c1.75,1.24,4.71,5.64,5.84,5.21l-1.24-3.69c.56.4,1.35.32,1.94.65,1.22-3.22-2.83-4.09-1.24-7.2.89,1.31,1.76,2.62,2.65,3.93-.26-2,0-6.19-.89-7.86-1.11-2.05-3.27-1.12-3.79-3.9-.59-3.34-.3-4.11-2.8-5.38-2-1-3.63-2.71-4.3,1-.7-2.42-1.4-4.79-2.07-7.17-.84-2.83-1.35-1.63-3.55-.69-.49-1.66-.95-3.33-1.43-5l4.4.64c-.14-3.23-3.24-3-1.49-6,1.19-2,2.55-1.72,4.49-.51,1.67,1,3.27,4.74,5.09,5.22,1.3.32,4.14-1.66,5.44-2.19.92,3.6-2.18,3.93-4.21,5,3.49,4.67,5.47,6.7,10.19,9.17,1-3.28.13-6.91-.17-10.24,3.86,3,5.43.65,9.47-1.73-1.35-.73-2.68-1.48-4-2.19,1.17-1.69,3.92-.32,5.63,0,.43-4.24,1.79-6.78-1.75-8.51-2.16-1-6.28.17-8.62.22l2.27-3.93c-3.48-.56-5.06-.4-7.51-3.41-2.09-2.62-3-3.62-5.74-4.76-5.73-2.45-11.38-4.88-17-7.72,1.59-.21,3.16-.44,4.75-.65-.24-1.67-.48-3.33-.7-5l6.68,1.53c-1.3-4.1-1-4-4.47-3.26-1.89.36-3.59-.79-5.37-1.55,3.13-2.2,4.13-2.57,7.71-2.27,0-3.19-3-4.69-4.83-6.11-.47,3.2-3.32,3.84-5.36,5,.74-3.3-1.46-2.76-3.41-3.13,2.48-.88,6.7-.92,7.61-4.39-2.2-1.27-13.23-9.4-14.58-5.93-1.07,2.78-4.84,5.64-6,2.08C499,174.77,504.15,172.28,505.33,171.48ZM340.65,112.76a4.6,4.6,0,0,0-3.43,1.81h4.47c-4.73,3.69,1.9,3.94,4.17,3.38a104,104,0,0,1,10.6-1.66,2.61,2.61,0,0,1-2.91,1.94c.3.25.57.5.89.8a3.5,3.5,0,0,0-3.62,1.78A8.42,8.42,0,0,1,355,122c-.86-.14-1.83.36-2.69.39.29,2.64,2.13,2.42,4,3.1,1,.38,1.52-1.54,2.51-1.44,2.82.19,6.6,1.64,9-1-.91-.48-1.59-1.59-2.48-2.08a3.72,3.72,0,0,0,1.32-3.36c.49.56,1.3.78,1.81,1.35.44-2.28-.86-3-1-4.85-.08-1.67.73-3.41.64-5-.06-.86-1.63-4.17-2.33-4.46-1.1-.48-3.35-2.18-4.42-1.44-3.22,2.2-5.73-.89-9.71.78-4.34,1.82,2.87,2.21,3.33,4.43-.79-.21-1.65.22-2.41,0,1.11,1.7,2.2,3.39,3.33,5.1-1.51-1-12.5-12.78-12-4.62,1,0,2.11.07,3.16.13-2.4,1.08-1.89,3.91.66,3C347,114.65,342.83,112.35,340.65,112.76Zm.22,78.76c.71-4.94,3-3.61,5.27-1.45.21-.73.86-1.29,1.06-2,3.25,5.62,2.77-1.79,2.59-4.35-3.57.82-7.76-2-11.48-4.59-1.38-.93-6.63-3.19-7.3-5s1.21-4.53.33-7c-2.09-5.76-3.43-14.41-8.14-17.34-2-1.24-3.75-4.49-5.24-1.91-.68,1.18-4.3-1.77-5.34-2.36,1.25,2.25-1.1,2.92-.64,4.37s1,3.11,1.48,4.66q1.62,5.23,3.28,10.42c-2.18,1-3.33,2.67-4.19-.21-1-3.19-2-6.37-2.88-9.58-1.35-4.43-8-4.64-10.86-4.14,1.65,1.95,3.29,3.9,4.92,5.8-1.11-.32-4.81-2.13-5.41-1-1.52,2.94-1.7,2.71-4.55,2.71.75-1.12,1.49-2.23,2.22-3.35-1.94-1-7.41-5.51-9.35-4.93-1.3.36-1.73,4-3.2,4.07s-3.11.31-4.65.43c2.52-2.33,5.14-5.46,1.49-7.85-2.7-1.77-3.89-.52-6.85.75-6.29,2.64-10.39,4.75-15.74,9.57.83.17,1.54,1.11,2.36,1.31-2.09,2.18-5.5,4.17-4.94,8.15h5.27c-.38.64-.45,1.63-.83,2.3,3.71-.15,7.43-.29,11.12-.43-3.85,2-7.71,3.86-11.58,5.8,2.32,2.6,3,4.09,6,4,3.92-.08,7.82-.13,11.74-.18,5.74-.07,10.52,1.41,16.17,3,3.92,1.13-2.45,2.4-3.81,2.39-3,0-6.13-.91-9.09-1.35-4.75-.7-10.81,2.27-15.49,3.38,2.74,10.59,11.77,8.86,19.31,9.31-.44,5.3.61,8.09,4.94,7.73,5.31-.48,10.6-.91,15.92-1.42,3.62-.28,4.93-3.16,8.55-3.85a7.89,7.89,0,0,0,4.92-2.3c1.52-1.38,1.58-3.58,3.74-2.78-.33.7-.24,1.76-.59,2.46l7.61,1.75c-.49.37-.89.94-1.41,1.3,4.27,0,8.28,2.68,12.55,2.19,1.1-.15,5.38-1.67,5.38-3,0-2.17-2.67-1.66-.93-4.45-2.87-.9-4.7,1-6.69,3.2.06-2.31.49-4.24-1.06-6a8.89,8.89,0,0,1,2.11.3A9.67,9.67,0,0,0,340.87,191.52Zm16.3,5.94a8.88,8.88,0,0,0,2.14,2.1c.4-1.1.78-.77,1.2-1.4a2.5,2.5,0,0,0,2.22,2.39c.16-.44.28-.9.44-1.37,1.08,3.57,6,3.94,8.7,4.48,2.82.57,5.51-2.62,7.9-4.37a82,82,0,0,0-9.88-8.76c-2-1.5-3.61-4.07-5.43-1.95-1.38,1.54-3.66,3.47-1.29,5.42-.43.12-.8.22-1.24.33C360.73,197.1,358.46,194.66,357.17,197.46ZM840.61,311.31l-1,.5c.19.38.38.79.56,1.19,1.28-1.32,1.84-2.15,3.33-2.55-.26-.38-.51-.74-.76-1.13,2.2-.27,1.93-3.68.92-3.14C842.05,307.09,837.48,308.68,840.61,311.31ZM458.13,254c-3.49-2.9-4.16-3.14-8.31-2.47,3.71-4.15-5.92-9.52-7.75-10.95-1.41-1.09-3.67-.58-4.82-2-1.79-2.21-2.38-3.09-4.3-.12a8,8,0,0,1-1.06-2.48c3.84-.76,2.62-6.67-.63-5.05s-3.19,4.92-4.2,9.14c-.42,1.72-.64,3.51-.94,5.26-.21,1.25.92,3.23.51,4.32-.48,1.3-4.32,4.46-5.27,6.08,1-.12,7.24-1.93,7.73-1.57.75.53,1.22,7.7,2.63,6.61,2-1.64,3.7-5,5.53-5.72,3-1.27,2.69-4,5.77-5.39-.68,5.56,7.66,6.65,10.66,7.69C455.16,256.19,456.63,255.07,458.13,254ZM396.45,127.41c1.2,3,4.68.27,6.29-1,1.27,3,1.16,3.44,3.82,3.72,2.22.25,4.2,1.22,4.71-2.39.38.79,1.18,1.36,1.54,2.17,0-1.25.54-2.52.57-3.76,2.86,1.33-.19,5.27,3,5.45s6.42.34,9.63.49c-.14-.82.09-1.81-.13-2.61,1.73,2.61,6.09,3.65,7-.3.87,4,5.78,1.42,8.2,1-.25-1.49-.46-3-.7-4.46,3.33,0,1.52,4.08,3.93,5,2.15.84,3.66,1.71,5.83,1.3,1.3-.25,7.32-.36,7.68-1.93.89-3.4,1.87-3.11,4.69-4.13-1.26-1.49-2.91-1.61-4.57-2,1.3-1.07,2.59-2.17,3.87-3.22-5-4.79-11.28-8.52-17.73-6.13-2.73,1-5.06-.56-8,.61a55.63,55.63,0,0,1-8.47,2.62c.6.46,1.11,1.21,1.74,1.58-2.93-.74-7.11-2.86-10.07-2.45-.89.11-2.66,2-3.48,1.46-1.41-1-2.82-2.07-4.28-3.07-.76-.56-6.71-4.32-6.76-4.5-.54-2.14,5.35.44,6-2.63-1.68-.52-3.34-1.06-5-1.62-2.3-.72-1.22-2.06-2.94-3.32-3-2.14-6.16.85-9.28.14s-4.71-3.81-7.6-4.29c-3.19-.57-7.15-2.27-10.3-1.26-5.18,1.64-3.6,4-.25,7.76s5.19,3,9.27,2.34c3.49-.55,5.14-2,7.65,1.33,1.52,2,5.65,5.81,3,8.66C393.8,122.41,394.69,123.15,396.45,127.41Zm90.72,81.54c-2,2.49,6.09,2.45,6.81,2.49C493.1,207.07,489.27,206.35,487.16,208.95ZM413.26,32.05l-7.55,7.18c4.25,3.43,8.74.66,13.76.45,4.57-.18,9.43-2.21,13.82-3.49-4.13,2.42-7.19,4.12-11.77,4.57-4.36.46-7,.25-11.07,2.4,4.35,1.35,8.76,4.49,12.69,1.5,5-3.77,7.3-4.28,13.13-4.77-5.15,1.77-7.66,3-11.77,7.21a77.19,77.19,0,0,0,11,1.29c3,0,3.33.76,3.7-2.95.14-1.3,3.44-1.73,4.44-2.06-.59.63-1,1.55-1.59,2.18,2.35-.82,4.7-1.61,7-2.41l-5.28,5c2.9-.64,5.82-1.24,8.73-1.87,1.79-.39,6.22-.27,7.65-1.83,4.41-4.81,8.36-6.81,13.85-9.59-2.33,2.42-4.68,4.81-7,7.19l4.39,2.19c-9.36,2.77-18.63,5-28.11,7l9.47,9.8c-4-2.73-8.93-7.83-13.36-9.13-.75-.22-13.55-.22-13.39-.62-3.89,8.44,3.67,7.86,7.77,11.07,3.76,3,7.13,7.93,9.33,12.64-6-3.56-15.65-4.64-21,1.44-4.92,5.6-.41,5.93,4.25,7.06,3.25.82,5.78-3.85,8.17-6.4C432.83,83,428.2,86.44,433.8,91c4.44,3.58,9.69-3.78,12.27-6.91-4.25,6.79-7,11.55-14.52,9.34-3-.9-3.3-5.62-6-6-3.68-.57-5.57-.82-9,.63,2.22,4.57,2.24,5,6.55,5.5-3,3.47-4.78,2.45-8.39,4.18-1.24.62-4.22,1.26-5.08,2.5s1.44,2.39-.34,3.65c2.33,3.45,3.13,1,5.14-1.63.12,4,4.9,6.84,6.2,2.33.6,3.92,2.77,1.82,5.08,2.07a60.64,60.64,0,0,0,7,.69c2.71,0,3.43-2.86,5.4-2.1,1.68.65,4.62,2.06,3.95-1.67,1.13,2.86,6.11,5.51,6.35.73,2.19,2.67,3.38-.71,4.86.64,2.17,1.92,1.25,2.94.58,6,3.1-1.06,6.19-2.14,9.32-3.19.94-.38,1.38-2.31,2.27-2.69.32-.15,1.24,1.51,2.38,1.06.74-.3,3.31-.71,3.19-1.83-.13-1.32.08-4.1-.94-4.77-1.7-1.14-2.09-2-3.76-.84-2,1.34-2,2.07-3.32-.2-1.12-2,4.52-6.57,5.55-7.61,3.11-3-1.83-4.66-.3-6.08,1.14-1,5.36,2,7.23,1.31,3.71-1.48,4.6-2.11,7-5.89-1.78-1.1-3.52-2.19-5.3-3.25,3.11-.46,6.22-.89,9.31-1.34.37-4.34-7.81-4.66-10.38-5.41h10.73c.86-4.84-9.43-3.47-12.11-3.74,6.51-.85,13-1.56,19.5-3-.36-1.32-.7-2.64-1.06-3.91,2.31.67,5.38,2.6,7.59,1.29A21.7,21.7,0,0,0,508,54.47c-2.37-.11-4.68-.27-7-.42,3.75-.84,7.49-1.69,11.26-2.59,3.22-.74,7.17-4.95,10-6.91,3.87-2.71,16.55-6.38,16.83-11.64-9.6,2.18-19.21,4.39-28.81,6.54l17.57-5.88-10.2-1.95q11.3-1,22.58-1.9c5.4-.43,12.14-6.83,17-9.73a109,109,0,0,0-19.57-5.85c-6-1.22-11.33.93-17.22,2.37,3.2-2.06,6.4-4.07,9.6-6.09-5.93-1-12.28-2.93-18.28-2.93-5.62,0-11.9,2.12-17.55,2.93.76,1.73,1.56,3.47,2.34,5.22-2.72-2.09-6.33-6.33-9.55-6.42-4.71-.09-9.43-.16-14.11-.25,2.81,2.62,5.63,5.22,8.44,7.85l-9.92-4.58c-1.79-.82-7.32-2.55-9.06-1.81C461,11,460.7,13,459.14,13.1c-2.16.14-4.3.31-6.49.44-2.41.19-5.06,4.07-7,5.9Q454,24.5,462.35,29.56c-6.13-1.7-12.28-3.43-18.41-5.14-2.66-.79-5.78-4.23-8.12-6-1.83-1.35-4.89-.68-7-.77.46,1.38,1,2.76,1.45,4.12-2.35.06-4.68.15-7,.23l4.92,2.64c-6.2.43-14.47-3.53-17.75,4.57-4.25-4.16-9.57-.94-14.06,2,2.89,1.53,5.78,3,8.63,4.57ZM350.08,88.37c-1.82-2.64-4.13-2.2-6.57-1.66-2.82.64-1.06,2.86,1,2.8C346.46,89.17,348,87.7,350.08,88.37Zm110,188.12c1.49-1.61,6.17-6.93,1.65-8.58-1.89-.68-3.76,1.87-3.93,3.69C457.6,274.25,458.59,274.65,460.11,276.49ZM825.9,366.33c-.59.35-1,1.26-1.57,1.63,4.78,4.56,11.3-3.9,15.9-5.32,1.56-.49,2.71,1.11,3.32-1.06.52-2,1.06-3.94,1.62-5.92.68-2.57-.65-5.84-2-7.63,3.23-2.53,4.25-2.6,4.59-7.28-1.65.62-2.09-2.82-3.38-4.48-.8-1-3.77.47-4.89.77.29-.5.54-1,.79-1.51-3.66-2.45-7.28,2.16-9.06,5.53,1.17.51,2.38,1,3.54,1.43-1.5,1.31-2.25,2.67-4,2.15-1.17-.37-2.86-1.44-4-.7-2,1.23-1.43,1.52-.75,4.15.32,1.26-1.51,2.61-2.22,3.43a14.61,14.61,0,0,0,6.06,2.09,37.19,37.19,0,0,0-4.93,5.86c2.06-.5,4.2-1.57,6.29-.75-1.41.33-4.3.3-5.17,1.7a5,5,0,0,1-3.46,2.54c.86.15,1.67.74,2.55.86a22.29,22.29,0,0,1-2.65,1.53C823.56,365.69,824.74,366,825.9,366.33ZM438.59,267.91c.22.67.54,2.94,1.24,2.87,4.33-.43,9.3-2.55,10-8.68-1.1,0-2.19-.08-3.27-.13-2.71.48-4.41.6-6.58,2.62C438.48,266,437.94,265.77,438.59,267.91ZM388.74,123.79c-.54-3.23-3.79-8.17-6.9-7-1.81.62-10.85,2.4-9.35,7.52.64,2,7.68,4.86,9.39,5.92C385.91,129.58,389.77,130.27,388.74,123.79ZM328.56,73.31c2.7.35,3.55-4.22,6-1.47-.53.38-.88,1.12-1.43,1.47,1.39.28,2.74.59,4.11.86.44,5.17-5.87,1.16-8.67,3.21.87,8.89,9.77.21,11.35,2.33,1.78,2.38,5.06,1.86,7.57,2.23s2.69,1.94,4,4.64c1.15,2.31,12.1,2,6.66-4.89-.81-1-2.7-2.43-2.33-3.88.52-2,.71-1.86-.59-3.07-2.35-2.16-3-1.71-5.92-1.16,1-6.51-6.25-3.22-8.2-2-1.49-3.87-3.27-6.91-7.28-6.27-4.49.72-6.89-.37-8.52,5l4.57-.17A28.81,28.81,0,0,0,328.56,73.31Zm1.24,23.41c1.25,1.64,2.82-.91,1.49-2.7a21.12,21.12,0,0,0-3-3.26c-1.64-1.38-3-3.36-5.08-2.28.38,1.67.78,3.32,1.16,5C325.88,94.9,328.9,95.51,329.8,96.72Zm31.38-41c-1.25-3.5-8.9-2.57-6.6,2.32C358,59.53,363.84,63.28,361.19,55.73Zm10,27.37c-1.48.81-3.11.47-4.63,1.23,1.29.65,3.65,3.45,4.15,3.46,1.57.06,3.19-.73,4.7-1.15s4.73-.55,5.7-2.4c.88-1.68-1.38-2.53.74-4.92-1.89-.77-4.49-.74-6-1.46-1.33-.59-2.87-2.58-4.57-3.33-2.41-1.15-11.12-2.93-6.27,2.76-.55.09-1.11.2-1.65.3C364.53,82.87,368.62,80.23,371.22,83.1ZM292,85c-4.79.86-7-.17-6,6.35,2.16,0,4,3.46,5.84,2.9,2.91-.82,5.84-1.67,8.74-2.49,2.06-.61,1-1.45,1.51-3.14.39-1.41-3.26-.24-4-1.79,2.46-.61,4.82-.68,6.56-3.19C301.11,81.91,295.63,84.37,292,85Zm8.82,22.65,5.68,3.92-3.85,1.75c1.2.6,6.17,2,6,3.6-.44,3.41-3.33,1.79-5.87,1.63-1.29-.09-6.62.55-7-1.16-.79-3.82-1.19-3.44-4.33-3.11.49-.3,1-.62,1.53-1-2-1.84-4.62-5.64-7.22-5.14-4.78,1-3-1.15-6.92-2.87-.75-.3-6.71.27-6.78,1.9s4.82,2.27,6,2.64c-3.94-.33-6.78-.9-10.41.9l0,2.18c2.48,1.64,6.85.36,9.65.27-1.27,1-12.57.24-12.3,3.38.27,3,9.8-.33,11-.68-3.65,3.43-11.22.93-13.52,5.86,3.14,1.12,4.5,1.54,7.68.66-.11.58-.25,1.16-.38,1.71a27.89,27.89,0,0,0,3.9,1.17c-1-3.07,2.1-2.56,2.56.42,3.32-2.29,3.9-2.59,5-7.07,2.46.92,1.45,3,1,5.34,1.9-.17,6.31.82,6.57-2.21,1.17,3.11,5.78,1.55,7.77,0-3.84,4.58-11.72,5.36-17.14,7.45,6.54,4.75,9.24,3.21,16.23.36,3.9-1.55,7.79-3.18,11.71-4.76,2.27-.9,3.51,1.49,5.67,1.32,1.08-.09,1.22-2.25,3-2.25h5.58c2.43,0,3.51-3.3,4.1-6.21.74-3.65.43-7.06-3.86-6.41-5.16.82-.86,2.5-2.89,5.44-.77-3-1.66-3.48-3.93-4.26-1.45-.51-1.76-3.6-3-4.72-2.57-2.28-.57-9.07-5.77-6.66A26.24,26.24,0,0,1,300.84,107.7Zm71-52.77c.76,6.85,7.41,6.85,11.43,5-1.37,2.39-3.32,2.18-5.45,2.54-1.73.29-1.11,2.71.44,2.49s1.41,3.12,3.27,1.49c1.32-1.15,2.14-2.31,3.82-1.59-.08.47-.16,1-.25,1.5,1.86,1.11,2.49-.64,4.06-1.5.44-.28,2.27,2.23,1.73-1.1,3,1.36,8-.35,10,1.74-2.46.37-4.92.72-7.38,1.07,3.63,1.68,7.33.78,11.15.57-7,1.48-13.37.87-20,3.92,1.87,1.58,4.16,2,6.35,2.7-1.19.12-2.37.23-3.53.31,1.94,3.31,7.32,2.14,10.62,3-2.22.29-4.46.6-6.68.87,2.94,5.25,9.52,4.3,14,4.56a3.55,3.55,0,0,0-2.29-2.72c3-.14,4.23,1.29,6.59,3.39-1.08-2.48-2.15-4.93-3.24-7.44,2.19,2.46,4.39,4.83,6.58,7.23,1-2.86,1.73-4.25.08-7,9.24,5.57-.82-4.38,5.37-6.42-.6,2.23.35,4,1,6.08C421.27,74,423.86,73,422.66,70c1.62,1.57,8.12-2.37,10.81-3.28-1.06-2.23-2.8-3.69-4.4-5.33-.25,1-1,1.75-1.22,2.72-.35-5.16-5.31-2-7.46-1.09,2.4-5.18,3.59-7.51-2.13-8.26,3.56-3.44-1.45-7.77-4.65-4.68.7,1.38,1.41,2.74,2.11,4.13a4.67,4.67,0,0,1-4.66-2.5c-.62-1.15,1-4.67-1.64-3.76-2.93,1-5.47-.49-7.47-3.08-3.19-4.06-4.94-7.36-9.35-8.64-2.65-.8-7-2.48-8.95.76,2.44,1,5.14,0,7.28,1.42-2.27,4.44-10.2-2-12.63,5.12,2,.75,4.92.34,6.47,1.85-1.88.46-10.93.84-8.14,4.15-1.4.56-2.84,1.14-4.22,1.73,2.43,1.29,3.85.68,6.22,1.34-.38.23-.76.47-1.13.74,2.29,1.21,4.71-1.61,6.76,0-.79.2-1.45,1.08-2.2,1.3.54.47,1,1.25,1.49,1.64a23.49,23.49,0,0,1-2.54-.76Q376.43,55.17,371.88,54.93Zm-40.25,54.89c1.83,2.4,10.29,3.16,9.49-1.84C338.83,107.53,333.29,107.7,331.64,109.81ZM263,110.4c-1.56.47-9.92,4.17-9,6.84.67,1.93,4.71,1.12,5.59-.18C260.78,115.34,263.6,112.78,263,110.4Zm580.76,209c-.22.15-.44.34-.68.48l.59.75C843.66,320.22,844.16,320.06,843.8,319.4ZM318.3,144.56c2.7.94,3,1.51,5,3.54,1.74,1.8,2.73,3.9,5,2.8,1.54-.8,3-3.91,3-5.84-.09-2.8-1.61-3-3.62-4.52C324.08,141.33,319.81,139.87,318.3,144.56ZM336.2,123c-1.33-4.16-3.12-3.61-6-2.45C326.71,126,334.44,123.92,336.2,123Zm-5.75-19.1c.84,1.92,1.27,1.79,1.48,3.58,2.41.22,5.41,1,7.33-1.3l-3.46-2.49A5.64,5.64,0,0,0,330.45,103.94ZM388.08,92.6c.82-1.29,1.62-2.6,2.46-3.9-5.51-1.82-11.33-2.25-16.28,1C375.37,94.23,385,92.45,388.08,92.6Zm70.15,58.55c.7,1,2.62,1.77,3.59,2.42,1.77,1.19,7.43-1.57,9.47-2.09,2.54-.63,5.79.27,8.38.4-3.46-5.12-5.93-6.84-10.79-9.76-1.57-.93-3.85.47-5.54-.25l-6-2.49c-3.35.68-3.89,5.81-.86,7.46C458.89,148.2,456.87,149,458.24,151.15ZM401.05,91c-1.94,2,2,3.71,2.95,4.26,1.76,1.05,3.44-.16,5.29-.79C409,90,403.43,88.56,401.05,91Zm3.54,10.19c-1.89,1.63,2.55,4.85,4.12,4.11-.39-.62-.49-1.71-.79-2.17C410.2,101.36,405.95,100,404.59,101.22Zm1242.61,28a38.09,38.09,0,0,0,16.17-2.1c.38-.13.79-3.8.56-4.28-.32-.71-3.54-1.24-4.16-1.41-3.12-1.1-4.36-.59-7.54.54.19-.78-.08-1.71.09-2.48-2.75-.14-5.51-1-7.82,1.31-.19-6.22-6.57-2.3-5.86,1.46C1639,124.21,1645.67,128,1647.2,129.2Zm-498.08,41.72c3.26,3.91,7.27,6.58,11.68,6.92,4,.31,12.42,3.2,16-.13-5.59-4.36-10.2-8.07-10.39-16.94-.15-7,5.75-12.86,9.22-17.44,2.09-2.78,4-5.79,5.95-8.7,1.78-2.56,5.92-4.26,8.28-6,4.59-3.27,7.67-7.44,12.8-9.23,6.18-2.14,12.43-4.12,18.55-6.51,3.08-1.17,15.42-3.64,15.93-9.86.59-7.51-12.09-4.27-14.38-2.19-5.07,4.65-10.79,5.61-16.91,7.58-5.65.08-9.35.5-14.65,2.88-4,1.87-10.62,3.21-13.95,6.56a140.7,140.7,0,0,0-11,11.72q-3.59,4.52-7.24,9c-1.87,2.35-.81,3.88-.17,7.1.24,1.27-5,4.56-5.92,5.29-3.33,2.69-.25,2.91-1.87,6.45-1.14,2.61-4.67,1.42-4.87,4.95C1145.81,167.36,1146.27,167.46,1149.11,170.92Zm11.13-119.84c-5.79-2.38-6-2-10.9,2.47,2.36.35,4.71.66,7,1C1157.68,53.41,1159,52.23,1160.24,51.08Zm21.91-15.41L1178,31.62c2.79-.77,5.55-1.55,8.35-2.32-4.62-.94-6.43-2.06-10.3,1-3.06,2.47-6.13,4.85-9.28,7.08,2.84.42,5.69.89,8.55,1.33C1177.63,37.72,1179.9,36.72,1182.15,35.67ZM1182,182.94c.82,2.38,7.41,8.53,9.76,6.28s-5.73-7.37-6.81-8.32C1184,181.6,1183,182.25,1182,182.94Zm7.38-127.06c-1.12-2.72-3.53-1-5.38-.44a24.46,24.46,0,0,0,2.46,2.17C1187.47,57,1188.44,56.45,1189.41,55.88ZM1179.33,42.8c-3.56-1.26-6.79-2.8-10.5-2.67-5.16.25-7-.51-10.44,4.13,3.4,1,6.79,2,10.17,3C1172.87,46.33,1175.84,46,1179.33,42.8ZM1128,46.3c-2.52,1.87-5,3.78-7.5,5.64a29.81,29.81,0,0,0,12.29,2.18c-.38-1.53-.76-3.08-1.17-4.63q7.38-2,14.76-3.92c-2.68-2-4.46-3.82-7.73-2.83-3.1.9-6,2.43-9.17,1.57-6.63-1.83-11.06.43-17.66,2.72l6.8,2C1121.79,48.14,1124.92,47.2,1128,46.3ZM1130.73,200c1.68,1.88,6.81-3.2,8.09-4.25-2.3-2.43-3.58-2.91-6.57-3.78C1128.38,193.71,1127.27,196.13,1130.73,200Zm-141.4-15.4c5.11-.88,8.27-2.47,11.72-7.06-2.32,0-2.38,2.33-4.2,3.39-1.51.94-4.36.48-6,.68C991.78,183.22,990.85,184.18,989.32,184.56ZM292.46,80c2.51,1.59,2.21-.63,4.24-.94,1.59-.21,10.89,3.73,9.73-1.67-.7-3.28-8-3.11-9.95-2.42-3.14,1.11-9,1.59-11.06,5,.4.33.81.63,1.24.94C288.32,80.53,290.88,79,292.46,80ZM1182,48.61c-1.3.1-14.82.64-13.49,4.88s10.46,1,13.72.34c-.53-.51-.75-1.49-1.28-2,1.67-.3,3.28-.59,4.92-.86C1184.63,50.14,1183.31,49.4,1182,48.61Zm413.16,77.72c1.84,1.35,3.7,3.54,5.86,3.36,3.63-.35,3.49-.57,5-4.68,2.78,4.91,6.84.79,10.84-.94,1.11-.48,2.49,3.92,3.71,3.64,2-.48,4-.93,5.95-1.38q-1-2-2.09-3.93c2.54,1.21,3.41,2.25,5.76.61a15.13,15.13,0,0,0,4.79-4.42l-16-6.85c-1.4-.61-3.79-2.43-5.28-1.7-2.64,1.34-1.37,3.39-.91,6.68-3.74-1.83-11.38-9.93-15.07-6.55-3.4,3.09-5.22,4.07-6.38,9C1590.77,121.92,1593.76,124.32,1595.18,126.33ZM843.88,333c1.34-.49,1.54-1.68.81-3.23a5.26,5.26,0,0,0-1.76,1.38C844.31,331.46,843.42,332.18,843.88,333Zm771.92-187.45c3.45,3.26,5.83,2.45,10.19,2.3-1-4.49-1.28-4.61-4.54-6.86-.78-.48-6.39-3.34-6.42-3.54-.33-3.11-2.49-6.11-5.66-3.7-3.7,2.77.76,5.59,2.36,7-2.13,1.64-4.24,3.3-6.35,4.95C1608.24,145.3,1613.46,143.28,1615.79,145.52ZM1216.13,43.38c3.19-.82,2.16-2.32,2-6.24-1.22.14-4-.36-5,.43s-1,3.58-2,4.2c-2.68,1.71-5.45-2.76-7.49,1.76a16.91,16.91,0,0,0,2.22,2.46C1209.25,45.11,1212.7,44.23,1216.13,43.38ZM1187.77,49c1.87,0,2.94-.62,4.15,1.13,2.11,3,7.4-1.33,9.3-3.7,2.25-2.77-2.68-6.84-5.13-6.15a46.52,46.52,0,0,0-10.9,4.53C1185.88,46.86,1185.88,49.06,1187.77,49Zm207.35,34.61c2.85,4.39,10.06-1.14,13.52-2.57,1.1-.4,2.94,2,4.54,1.73,3-.61,6.06-1.19,9.11-1.8,2.26-.42,3.14-1.22,5.08-2.9,1.16-1-1.29-5.08-2.65-5.21-3-.34-3.51-1.74-5.57-4.47-.87-1.15-4.82,0-6.11.11l2.57-2.61c-4.17-1.73-7.15-1.59-10.23,2.13s-5.24,8-7.57,12.38C1396.91,81.48,1396,82.54,1395.12,83.62Zm-39.48-22.38c3-.22,8.93-2.4,11,.64,2.63,3.84,4.21,8.85,8.41,8.37,5-.62,7.48-.74,12.21,1.28,4.3,1.84,6.24.81,10.69-.69-.43-1.58-2-5-1.49-6.55.7-2.09,2.58-4.83.7-6-4-2.51-6.31-.34-10.53,1.5l4.19-5.06c-2-.51-6.79-.36-7.23-3-.94-5.72-.92-5.1,3.6-6.59-2.91-2.33-8.28-8.88-11.7-9-3.95-.16-1.38,2.48-3.69,3.29-2.65.93-5.26,1.85-7.9,2.73-3,1.05-2.65,2.12-3.54,6-.32,1.33-4.94,1.86-6,2.21s-2.41,5.52-3,6.87C1351,57.92,1354.94,60.67,1355.64,61.24Zm460,114.9c1.39-.46,2.58.68,3.93.37,4.49-1,8-.89,11.27-4.88-1.86-1.87-3.3-4.16-5.73-4.3l-9.53-.48c-2.21-.11-5.52,2.54-7.6,3.52-.55.26,1.11,6.74,1.3,7.81ZM961.29,194.57c-1.78.89-4.27,1.05-3.54,4.13,1-.88,2-1.81,3-2.72C961,195.5,961.13,195,961.29,194.57Zm-13.6,13.05c1.33.42,2.35-.38,3-1.83-.86-1-1.81-.85-2.81.23C947.78,206.53,947.75,207.11,947.69,207.62Zm7.55-10.33c-1.13,1.4-2.27,2.82-3.35,4.24,1.07.27,2.22.51,3.35.77C957.48,200.74,957.06,199,955.24,197.3ZM860,302.23c1.25.4,1.47.15,2.61-.58-.87-.09-1.38-.52-2.33-.3l.86-.59c-1.8-1.57-2.11.58-2.21,1.38.27.42.53.86.78,1.24C859.84,303,859.9,302.61,860,302.23ZM996.48,180.34c1.19-1.26,2.43-1.95,2.54-3.84-1.7,1.05-1.38,2.21-3.49,1.53a7.58,7.58,0,0,0-4.32-.24C991.9,181.47,994.15,180.47,996.48,180.34ZM845.54,330.93a21.65,21.65,0,0,0,1.3-2.68C845.77,327.92,844.69,328.92,845.54,330.93Zm110.3-127.54c-2.25.08-4.39-.66-4.3,3.14C953,205.51,954.41,204.47,955.84,203.39Zm-107,128.35a4.14,4.14,0,0,0,.94,2.64C850.45,333.05,850.08,332,848.83,331.74Zm-1.22-15.29c-.29.14-.55.33-.84.46.42.15.81.28,1.19.44a8,8,0,0,0-1.84,4.06c-.16.76-1.84,1.42-2.53,2.49,2.24.51,2.28,1.55.09,2.08,1.35,1.5,4.91-.11,1.89-2.16,1.87,1.28,2.78-.67,4.19-2.15.19.28.35.55.53.84-2.11,1.28-2.48,4-3,6.58-.35,1.74.54,1.77-.24,4-.39,1.11-1.19,1.68-.37,2.57,1.72,1.72,1.33-2.32,1.51-3.66.25-2,.16-4.25,2.33-5.17-2.5,2.32-.39,4.64,1.29.55a10.39,10.39,0,0,1,.62,2.13c-1.46.13-1.17.72-.86,2.37.48,2.25.81,1.42,0,4.14s-3.06,3-.33,5.39c0-.64-.06-1.31-.1-2,1.29.54,3.32,2.39,2.57-.15,2,1.52,4.44-1.45,7.27-1-4.82,1.29-2.25,9.72.7,7.18-1.33,2.09-1.19,6.47.44,7.72l-.57.21c-.79-1.28-.54-.49-1.46-1.07.11.48.21.94.32,1.42-1.78-.38-3.32-1.2-4.87.22a2,2,0,0,0-2.87-1.5c2,1.86,1,3.62-.79,5,1.19-.27,2.38-.53,3.55-.76-.35,2.66,1,3.36-.57,5.88-.85,1.33-4.38,2.07-5.71,2.71a3.81,3.81,0,0,1,.23,1.48c1.55,3,3.57-.92,5.89.55-.29.27-.59.52-.87.76,1,0,3.39,1.66,3.76,1.51l5.14-2c-1,1.4-2.11,2.42-2.36,4.25-3.25-.5-6.68-2.13-7.77,2.62-.56,2.53-4.25,4.55-5.81,6.61,2.87,2.26,6-4.41,10-1.08,2.28-6.41,3.16-1.19,7.28-3.46,1.22-.71,3.76-2.94,5.09-2.87,1.76.13,2.17,2.29,4.16,1.77,3.38-1,5.68-.83,9.25-2.5,4.57-2.11-2.45-3.75-3.83-4,3.46-2.92,5.83-4.39,6.35-9.65.55-5.44-7.59-1.76-8.38-2.76,3.14-2.54-1.57-7.07-3.95-7.07a2.61,2.61,0,0,1,3.68,1.31c-1-6.92-6.14-7.49-7.69-13.14-2-7.23-4.68-7.83-10.49-8.75,1-1.42,2.32-2.2,3.78-1.75-1.76-4.15,6.51-9.19,4.32-12.94-1.4-2.39-10.93-1.16-12,1.29l-.5-.47c.7-.69,1.08-1.95,1.87-2.52a14.12,14.12,0,0,0-2.49-.85c.59.08,1.19,0,1.76,0,.47-2.59,4.81-3.22,5.41-7.13a10.54,10.54,0,0,0-7.44,1.55c-1.1-.65.11-.87-1.54.05-.45-2.68-2.44-.44-1.62,1.73-.52.13-1,.21-1.57.33-.24.69-.35,1.14-.48,1.51.68.71,1.22,1.74,1.94,2.37a3.35,3.35,0,0,0-3.67-.35c.49.95.54,2.26,1,3.2-.48-.12-1-.25-1.44-.33C846,316.16,846.62,316,847.61,316.46Zm6.29,26.93a3.77,3.77,0,0,0-2,3.16c.33,0,.66,0,1,0A2.52,2.52,0,0,0,853.89,343.38Zm110.26-142c2-2.39,4-4.79,6-7.2-1.4,1.31-2.79,2.62-4.15,3.93C964.22,198.1,963.57,199.36,964.16,201.4Zm10.41-14.11c-1,1.51-2,2-3.41,3.59,1.21.05,2.4.14,3.59.19C975.68,189.24,977.15,188.32,974.57,187.28Zm-7,4.11c-2.44.9-2.41.6-2.59,3.71-.29,4.63,5.25-1.6,6.47-2.71C970.43,190,969.27,190.78,967.57,191.39Zm12-5.38c-1.6-1.12-3.67-1.34-4.33,1.11a11.57,11.57,0,0,0,1.78.9C978.15,188.06,979,187.35,979.53,186Zm-17.88,12.63c-1.13.82-.42,2.75-2.29,3.78.23-1.48.45-2.9.7-4.37-1.7.05-2.49,1.61-1.94,3.61-.47,0-1,.08-1.41.08-.24,2,.07,1.31-1.21,2.84,2.11.42,2.87,1.21,4.25-.86,1-1.48,1.84-2.13,3.54-1.54C963.73,200.58,963.39,197.43,961.65,198.64Zm-4.71,8.47c0,2.82-1.35,3.39-3.26,3.7.76.61.48.92,1.43,1.38a11,11,0,0,1-1.11,2.12C956.13,211.85,957.37,210.95,956.94,207.11Zm2.36-.91a7.18,7.18,0,0,0-1.87-.31,9.77,9.77,0,0,0,.29,3c1.65-1.88,3.3-3.81,4.93-5.72C961,203.06,960,204.31,959.3,206.2Zm24.06-19.26c-2.27-1.61-6.13,1.3-7.71,3.56,1.06-.38,2.14-.79,3.2-1.15C980.37,188.56,981.87,187.72,983.36,186.94Zm2.06-3.33a5.47,5.47,0,0,0-2.39.12c.17.6.33,1.2.52,1.75C984.93,186.64,985.63,185.77,985.42,183.61Zm258.94-39.45c-3.3.43-2.48,2-2.81,6,2.92-.55,5.85-1.16,8.79-1.74C1249.29,144.92,1247,143.84,1244.36,144.15ZM1552.9,511.86c.19,1.54.37,3,.54,4.61,3.32.39.78-3.84,3.14-3.54,2.89.4,1.35,4.61.62,5.92-1.54,2.71-1.86,11.55,2.32,8.16,3.35-2.75,4.56-7.77,6.36-12.14.44-1.1-1.39-4-1.79-4.74-1.14-2.22-2.22.33-3.81-2.29,2.62-2.73,5.59,1.48,6.92-3.93,1.37,2.58,2.4,1.51,4.11.35.85-.59,3.79-1.28,4.15-1.83,1.76-2.46,5.6-.87,8.14-.63-3.88,3.74-1.51,6.33,1.4,9.21,1.55-2.48,3-6.9,6-6.23-1.79-1.75-2.37-3.74-.19-5.39,2.46,4.49,7.44,2.46,9.86-1.38.55,1.24,1.1,2.48,1.65,3.72,1.35-2.21,2.54-4.53,4.3-6.2-.27,1.36-.53,2.76-.79,4.13,2.59-1,3-3.46,5.21-4.82.28-.18-.46-6-.15-7.66.62-3.25,1.72-3.34,1.68-7.28,0-2.48-.51-6.59,2.68-4.76,0-2.52-.62-4.35,1.15-5.67,2-1.44,1.3-4.11,1.36-6.83.07-1.91-1.84-4.6-2.57-6.28s0-3.5.38-5.41c-2.73-1.63-4.35.74-3.59,4-1.65-7-5.41,2.16-6,4.84-.51,2.14,1.81,3.12,1.49,4.23-.83,2.85-1.65,5.74-2.46,8.63-1.08,3.74-3.35,7.73-6.41,9.44-1.92,1.08-3.52,2.2-5.62,2.36-1.94.06.33-3.86.94-4.47-2.74,1.18-3.76.79-3.84,4.39-.06,1.87-2.63,4.39-3.6,5.76-1.21,1.76.57,3.33-1.53,4.39-3,1.48-1.69-1.33-3.58-1.12-3.44.43-9.9-.53-12.06,3-2.45,4.06-5.65,6.69-9.55,6.55C1561.32,507.85,1555.51,509.86,1552.9,511.86ZM1547.67,718c-1.51,1.55-4,3.42-5.06,5.46-1.65,3.15-.55,3.74-.11,6.32a26.71,26.71,0,0,1,.31,7c-.17,1.44,3,3.44,3.87,4.35-.38-2.89-1.43-9.24,2.92-7.25-.65-.62-5-3.9-2.83-4.55a2.53,2.53,0,0,0,0-4.94,20.22,20.22,0,0,1,1.46-2.65A38,38,0,0,0,1547.67,718Zm116.68,173.42c-3.06-3.13,1.11-7.32-3.68-9.15-.53-.21-3,3.53-3.57,1.42-.68-2.6-1.38-5.13-2.08-7.67-1.24-4.66-1.19-7.28-4.62-9.51-1.36-.89-10.82-5.66-10.82-7.34,0-4.41,1-9.41-1.49-12.71-3.55-4.66-3.3-6.51-3.6-13-.2-4.09-4.66-6.26-7.11-4-1.29-9.3-3.62-16.32-6.79-25-3.9,1.06-4.2,9.07-5.19,13-1,4.28-.18,9.41,0,13.85.18,5.36-2.55,22.29-9.06,19.62-2.3-.92-4.3-5.51-6.7-7.16-4.35-2.9-8.69-5.79-13-8.71-4-2.68-2.3-4.25-1.14-9.78.9-4.45,3.1-6.71,5.65-10.07-4.09-4.49-5.11-4.74-10.52-5.33-4.18-.46-8.46-1.28-12.69-1.08.14,2.22.3,4.45.47,6.69-4.71-.79-8.93-3.62-11.93,1.3s-3.68,9.33-5,15.27c-4.06-2.42-8.09-4.87-12.16-7.27-1.47-.88-6.49,5.49-7.65,6.6-6.59,6.33-15.44,11.78-18.73,21.45-1.65,5-1.68,9-5.92,10.16-5.58,1.46-11.22,3-16.82,4.39-3.84,1-5.92,2.87-9.3,5.6-4.18,3.42-5,4.69-7,10.49-.7-2-1.4-3.88-2.09-5.83-2.81,7.75-4.56,14.3-1.76,22.16,1.64,4.68,1.2,5.39-.23,10.29-1,3.45,1,6,2.28,9.15a92.14,92.14,0,0,1,6.53,24c.41,3.27,2.85,11.71,1.84,14.6-.36,1-6.62,5-3.57,7.69,2.53,2.24,5.4,6.25,8.6,6.25s7,1.22,9.46-1.49c3.57-4,4.51-5.42,9.11-5.93,3.29-.37,6.59-.92,9.87-1,2.52-.09,5-.15,7.52-.25.77,0,1.94-4,2.33-4.9,1.29-3.09,6.29-4.36,8.79-5.73,2.79-1.52,6.73.86,9.2-.8,2-1.32,5.84-5.37,8-5.06,7.81,1.16,14.77,2.09,22.19,5.25,4.7,2,5,3,7.67,8.35a84.29,84.29,0,0,0,5.5,9.87c4.17-5.35,7.68-9.95,10.78-16.27,1.92,6.65-1.91,11.89-4.89,17.43,4.92,1.24,4.69-1.93,7-7.26.28,3.36-.54,11.63,2.5,11.63,2.72,0,4.68,6.37,5.21,9.13,1.78,9.48,7.82,12,14.95,13.32,4.6.85,5.26,1.5,8.87-2,4.11-4,3.79-2.15,7.24,2.55,1.65,2.23,6,.46,7.61-1.35,3.67-4.15,4.21-4.54,9.14-4.71,8.27-.31,7.52-13,8.83-21,1.12-6.91,7.82-12,9.33-18.81,1.76-8.09,5.5-17.88,5.73-26.24.24-8-2.22-17.12-3.27-25C1671,898.18,1667.65,894.81,1664.35,891.41ZM1533.92,756.26c-1.63,5.25,6,3,7,2.49C1541.14,755.58,1535,752.75,1533.92,756.26Zm27.15,52.11c-2.6,2-5.63-2.14-5.9,3.43,2.2,0,4.49,1.22,6.22-.06S1563.76,807.54,1561.07,808.36Zm113.6-41.72c1.22-3.17,1.67-3.3.11-6.2-.25-.44-1.22.35-1.67-.39a10.39,10.39,0,0,0-1.32-2.35c-2.49-2.32-5.6-4-8.25-6-1,3.65,11.2,5.44,9.88,12.15A19.15,19.15,0,0,0,1674.67,766.64ZM1648.24,1014c-1.6.7-6.41,4.15-7.93,3.36-2.82-1.41-5.66-2.83-8.45-4.25a36.1,36.1,0,0,0,1.62,15.41c2.19,5.78,4.68,7.06,9.32,8C1648.44,1037.76,1653.94,1016,1648.24,1014Zm8.38-242.92c-2.09.08-4.21-.6-6.22.22,1.35,3.7,7.78,5.62,10.84,4.8,2.32-.62,5.27-1.79,6.32-4.43.38-.89,5-.51,2.11-3.8,3.87-1,2.09-4.45,0-6.07-2.84-2.08-2.2,3.78-2.16,5.36-.31-.06-9.58,7.57-7.27,1.3C1659.85,767.58,1658.56,771,1656.62,771.06Zm-19.28-.65c-1.7-2.08-.6-5.37-3-7s-4.65-3.3-6.92-4.92c-3.42-2.42-8-3.48-11.74-5.07-6-2.54-12-5.14-17.94-7.7-2.89-1.22-7.59,1.24-9.54,4.17-.7,1-3.85,6.89-4.73,6.46-2.52-1.38-3.79-1.52-4.82-4.58a40.34,40.34,0,0,1-2.27-9.57c-.44-3.84-1.35-3.1-4.43-4-4.71-1.24-9.58-.1-12.18,5.57,1.66.33,3.33.57,5,.84.87.18,0,3.23,1.08,3.9,2.82,1.75,6.38.69,9.5.51a8,8,0,0,1-.24,2.77c-3.79-1.45-6-.61-10,.44,1.64,3.17,3.27,6.3,4.92,9.44,1.43-2,2.87-4,4.35-6,.73,4.72.68,4.55,4.19,6.22,4.13,2,8.22,4,12.35,5.9,1.69.81,6,1.73,6.8,3.9,1.41,3.74,2.78,7.46,4.16,11.17-4.84,1.55-5.3,1-6,7.09,3.71-.4,7.39-.81,11.09-1.27,1.92-.21,3.33,6.28,5.66,6.41,3.89.22,7.48,1.38,10.86-1.08,1.91-1.35,2.74-8,4.46-7.69,2.11.31,8.36-.07,9.87,1.73,2.94,3.51,5.89,7,8.86,10.51,2.35,2.75,5.42,2.45,8.6,3.09,2.19.41,5.62,3.38,7.38,2.7-1.32-1.61-5.59-4.88-3.52-6.82-2-.53-4.87-.16-3.51-3.62-4.82-.2-4.59-1.57-6.88-6.8-.55-1.3-2.7-2.24-3.72-3s-1.39-3.56-1.81-4.86c1.56-.22,3.13-.4,4.68-.61C1648.63,771.17,1639.91,773.54,1637.34,770.41Zm-18.85-396.34c0,4.14.4,7.95-1.19,11.61-2,4.73-.43,4.83.43,9.63.51,3,.43,3.18-1,5.71-.7,1.28.32,3.38.33,4.86,0,4.66-.68,5.64.92,10.15.52-2.5.51-6.47,3.16-6.94s4,3.25,3.88,5.81c2.55-3-.56-7.72-2-10.49-1.86-3.58-3-4.3-1.91-8.34,1.56-5.56,1.07-7.12,5.73-8.11,3.06-.64,2.75,5.22,5.69,5.29-2.44-5-3.49-9.17-4.74-14.82-.6-2.6-1.19-5.19-1.78-7.82-.4-1.77-2.22-3.18-2.51-5-.84-5.7,3.13-8.51.56-14.19-1.38-3,.27-11.31-4.52-7.15,1.82,2,3,5.32,1,7.4-.81.83-1.06-1-2.59.4s-1.09,1.66-.54,4c.63,2.72-.84,7.34-1.25,10.14C1615.77,369.26,1621.08,370.88,1618.49,374.07ZM1524,673.29c2.41.55,4-3.66.89-4C1524,670.18,1521,672.6,1524,673.29Zm-3.7.94a11.19,11.19,0,0,1,3.35-6.47c1-1,.4-4.46.79-6.16-.28.16-.55.34-.84.5C1522.56,665.77,1519.78,670.32,1520.3,674.23Zm8.58-13c-1.3.82-2.59.28-3.58-1,.14,1.73,0,3.27.89,4.5,2.2-2.16.65,4.19,2.87,5.61-.13-.95,0-2-.17-2.88.35.81.74,1.62,1,2.5C1531.28,667.66,1528.7,664.35,1528.89,661.23Zm-7.73-5.37a7.76,7.76,0,0,0,2.82,3.42,13.94,13.94,0,0,0,.14-3.62c-2.11.18-1.62-2.64-4.46-2.42a4.13,4.13,0,0,1-.68,4.66A13.83,13.83,0,0,1,1521.16,655.86Zm3.92-2.15c.06,2.3,1.65,3.05,3.07,4.39,1.57,1.54-.15,1.71.85,3.19,3.52,5.27,3.11-1.79,2.57-5.08C1530.66,652.38,1527.58,653.57,1525.08,653.71Zm-12.52,5c.48,6.61-.28,11.33,5.81,8-1.56,2.31-5.1,6.18-1.76,7.89,1.3.67.84,2.7,2.43,2.38s.79-2.83.76-4.46c0-2.36,2.57-6.95,1.78-8.54-1.94-3.68-2.9-4.07-6.28-5.55A8.65,8.65,0,0,0,1512.56,658.71Zm-13.44,84.83c-.71,2.46-.19,4.1-1.28,6.79-1.52,3.67-2.4,4-.42,7.34,1.13,1.81,3.9-.63,3.34,3.68-.23,1.77-2,8.64-1.27,10s4.87,2,5.6.41c.36-.7-.79-3-.76-3.9,0-1.08,1-2.09,1.12-3.17.24-2.18-.22-5,0-7.51s-2.72-4.13,1.52-4.72c2.33-.3.51,4.66.81,5.82.81,2.81,3.73,2.32,3,5.21s1,3.56,3,3c-1,.27,4.28-4.62,3.67-3,1.53-3.95-2.06-2-3.14-4.9-.28-.74,1.52-2.21,1.08-3.13-.63-1.39-1.3-2.75-1.95-4.15-1.06-2.26-2.13-2.12-3.51-3.81,4.75,2,6.48-8.74,10.69-5.68,1.15-4.7-2.49-1.86-4-1.8-2,0-2.08,1-3.62,1.47-1.84.55-.91-1.95-2.72.33-4.55,5.59-9.33-4.24-5.82-9,1.68-2.31,3.84.35,6.14.12,2.6-.22,6-1.47,8.43,0,5.84,3.85,9.14-3.45,10.93-9.19-2.44,0-4.41,4.33-6.54,5.92-1.19.85-3.24-.73-4.54-.8-1.59-.12-1.32,1.18-3.21.45-2.4-.92-6.77-3.84-9.12-2.12-3.08,2.25-3.78,4.19-5.51,8.08C1503.31,738.84,1500,740.43,1499.12,743.54Zm5.54-95.85c1.51,2.9,3,5.79,4.49,8.7,3-4.06,2.59-6.16-.89-8.81Zm-29.29,140.23c0,3.36,2.08,6.16,4.24,3S1477.25,787.06,1475.36,787.92ZM1609.59,435c-.21,1.22-.19,4.06-1.1,4.61-1.79,1.08-2.09,1.08-2.65,3.44-.16.63,1.79,7.52,2.35,7.73s1.69-2.73,2.82-2.4c.78.26,2.6.43,1.7-1.3-1-2.11-4.46-.71-4-4.44,1.67-.63,3.44,1.32,4.33.79s3.23-2.15,4.11-1.16c1.33,1.43,5.49,5.44,7.21,4.52a31.94,31.94,0,0,1,1.41-5c.67-1,2.9-2.52,3.9-2.46,3.06.14,5.51-.45,7.67-3.36-5.73.2-1.41-5.25-2.27-8-4,4.64-4.11,3.39-9.09.55-3.52-2-5.24-5.62-7.68-9.38-3.08-4.7-1.78,5.76-1.36,7.32s-2.18,3.44-2,5.33.32,3-.57,4.68C1612.8,436,1611.19,435.49,1609.59,435ZM927.85,333.69c.19,1.5,2.4,4.87,3.74,4.5,2-.5,1.54-3.48-.11-3.9C931,332.15,929.42,332.7,927.85,333.69Zm129.37,160.42c-1.68.85-4.22,3-6,2.78-1.06-.12-5.1-1.08-5.91.71-2.68,6,8.24,2.54,9.3,2.18C1053.2,496.93,1055.69,495.69,1057.22,494.12Zm-43.24,4.8c.11-2.22-3.79-3-5.52-2.74-3.52.57-4.47-.17-7.63-2.28a9.45,9.45,0,0,0-1.22,3C1004.78,498.76,1008.57,499.06,1014,498.92Zm-79.1-166.38c-.46,1.64,0,4.59,1.78,4.48,2.18-.2,1.76,1.92,2.21,4.37.39-2.82.12-5.77,3-6.08-.61-.45-1-1.44-1.61-1.89,7.17-1.66-4.51-9-1.06-1.29-1.53-.14-2.07-.94-1.29-2.63a4.22,4.22,0,0,0-1.76,0A2.56,2.56,0,0,1,934.88,332.54Zm64-26.57c-3.57-1.26-5-.93-8.55.28,1.22,1.5,2.16,3,1.3,5.36C993.13,308.56,996.37,307.76,998.84,306ZM921.6,459.26c.14.86-1.25,2.56-1.43,3.48-.08.47,1.3,1.28,1.24,1.75-.38,2.74-2.44,3-.44,5.11,1.57,1.63,3.17,1.87,3.38-.92.11-1.61,2.24-.1,2.55-3s.67-6,1-9c.66-6.14-5.52-2.44-7-1.34-.54-.23-1.06-.43-1.6-.67C918.3,458,921.17,457,921.6,459.26ZM1864.83,254.5c-1.09-.06-5.76-1.23-6.56-.37-1.17,1.22,0,4,.83,4.72,2.89,2.6,6.84-1.25,8.7,1.44,2.17,3.11,5.55,4.34,7.11-.8C1871.88,257.84,1868.16,254.69,1864.83,254.5ZM971.17,320.63a10.65,10.65,0,0,1,4.37-3.93c-1.72-2.18-.15-3.41,1-5.22C971.39,310.05,970.88,316,971.17,320.63Zm10.81-29c-.09-.65-.16-1.32-.27-2h.84C982.12,285.76,977.57,288.64,982,291.62ZM921.33,444.81c-1.9,1.81,1.56,5.59,3.25,5.49,1.33-4.66,1.68-6.83,1.21-11.74-1.51.35-.19,1.75-1.06,3.05S922.36,443.85,921.33,444.81ZM1687,773.66c-1.44-.82-1.18-3.29-3.37-4a6.3,6.3,0,0,0,1.13,4.68c.84,1.12.43,2.79,1,3.5,1.17,1.58,5.92,3.15,4.38-.8A9.36,9.36,0,0,0,1687,773.66ZM1574.67,510.33c.7-.34,1.84,2.44,2.51,1.45.52-.83,2.55-3,2.58-3.94.33-7.14-8.15-.94-9.47-2.08-1.94,4.68-3.43,3.6-1.92,9.25C1571.68,517.47,1572.22,511.55,1574.67,510.33ZM1543.9,755.74c-2.46,3.6,2.36,3.6,3.71,3.39,1-.14.58-2.6,1.51-2.19s2.46,1.45,3.56,1.12c3.14-.95,4.06.45,6.81,2.57,1.21-6.21-4.82-6.8-8.14-7.79C1548.59,753.4,1545.72,753.1,1543.9,755.74Zm236.46,263.43c.11-2.54-.76-4.42-1.63-6.67-2.46,1.51-3.39,1.53-4,4.79-.7,3.46-1.54,1.91-3.12,4.37-1.12,1.75-.92,4.81-2,6.67s-3.38,3.34-4.76,4.72c-1.54,1.48-3,3.29-4.78,4.19-1.32.69-4.4,1.48-5.33,2.84q-4.4,6.67-8.77,13.32c-3,4.54,5.81,3.32,7,4.89,1.76,2.29,8.12,4.75,9.92,1.36,2-3.69,5.68-8.26,6.7-12.55,1.38-6,3.28-6.87,7.49-10.37a2.85,2.85,0,0,0,2.36,2.48c-1.61-3.68-1.84-4,.32-7.2s4.3-6.31,6.48-9.48c-.62-2.33-1.25-4.65-1.87-7C1783,1016.77,1781.7,1018,1780.36,1019.17Zm-27.59,41.75c-1.64.67-.58,3-1.91,4.94C1752.61,1064,1757.42,1065,1752.77,1060.92Zm53.41-70.65c-4.19,3-5,2.66-9.76,1.3-2.91-.85-1-7-4-8.62.32,3.43-1.68,6.16-3.57,1.91-.54-1.22.44-3.19-.29-4.42a13.15,13.15,0,0,1-2.06-3.31c-1.27-4.52,1-3.95-3.41-5.86-2.2-.95-3.3-3.41-5.37-4,1.11,2.58,2.24,5.18,3.32,7.82l1.24-1.1c1.18,2.81,3.68,13,6.43,12-1,3.23,1,6.4,0,9.48-1.41,4.33-2,5.42-5.09,8.09a33.38,33.38,0,0,0,3.7,3.72c.82.56,3.54.7,4,1.66,1.51,3.19-2,7.43-3.47,9.25,2.71,1.92,5.71,3.5,7.71-1.06,1.67-3.81,4.84-8.47,4.72-12.85-.09-2.68,2.77-2.93,4.14-2.19,1.63.89.33-1.59.87-2.22C1807.07,997.81,1810.33,990.88,1806.18,990.27ZM889.42,464.49c1,.93,2.11,1.91,3.17,2.83.94-.88,1.89-1.73,2.81-2.61C893.47,460.65,892.24,462.66,889.42,464.49Zm966.4-229.63c-.13,3.83.54,5.08-2.35,6.57-2.13,1.13-.3,4.71.22,7.16-3.84-.52-5.22-1.07-8.4-3.79-1.91-1.62-6.19,1.21-6.77-1.44-.86-3.88-.38-7.52-3.78-7.81l-11.11-.88c-2.24-.22,1.54-7.69-3.3-6.8-2.51.48-1.57,7.56-1.68,10.34-.19,4.39-12.55,5.65-15.9,6.67,2.87,2.31,6.23,3.33,6.46,7.76.27,5.16,2,7.23,4.62,11.39.27.4-1.81,3.51-2.31,3.72-1,.44-3.62-.81-4.62-1-1.78-.4-5.92-2.42-7.57-1.31q-10.23,7-20.42,14c-5.32,3.63-11,5.61-13.58,12.53-4.73-5.27-5-5.92-11.23-5-5.9.87-6.24,1.27-9.86,7.2q-.07-3.19-.18-6.33c-1.81,1-5.2,4-7.17,3.67-2.52-.41-4.86-2-6.36.78-3.41,6.13-6.77,12.29-10.17,18.42,1.81.66,8.18,1.54,7.61,4-1.37,6-1.63,6.18,1.52,11-5.31,2.61-10,5.23-7.2,13.05.48,1.28-4.09,3.3-5.25,3.75-2.57,1-4.86.66-5.11,4.11-.27,4.07.71,7.48-2.67,8.47-4.25,1.25-4.47.66-5.21,6-.73,5.18-6.57,10.57-9.36,14.48-3.49-18.34-15.31-53.31,4.24-64.07,5.62-3.07,8.87-4,12.11-10.32,3-5.91,6.62-8.48,11.36-12.47,3.27-2.75,7.68-4.24,8.73-9.13.78-3.67,1.57-7.33,2.35-11,.19-.85,4.66-1.3,5.5-1.5a18.55,18.55,0,0,0-8.29-.8c-2.43.33-3.73,4.62-5.06,7-2.7,4.86-8.36,8.35-12.15,11.87-1.83-5.47-1.35-7.6-.34-13.5-3.58,2.4-5,3.28-9,3.19s-5.12-.36-8.35,2.59c-5.16,4.67-9.28,10.06-13.72,15.79,1.35,1.34,4.73,3.17,3.7,5.24-.4.84-5,1.2-5.94,1.34-4.76.63-9.52,1.29-14.25,1.92,1.68-1.4,3.38-2.77,5.06-4.13-4.52-1-9-2-13.55-3-1.24-.3-4.36,2.83-5.5,3.58-1.45,1-3.24.05-4.81-.24a50.65,50.65,0,0,0-12.09-.68c-2.6.14-10.14-1.22-12.17.93-7,7.36-13.92,14.68-20.6,22.51-6.22,7.24-13.17,12.48-20.35,18.29,1,2.76,2.6,2.5,4.66,2.71,2.65.3,2.91-.21,3.93,2.8.3.93,1.22,5.32,2.08,5.42,5.41.51,5.84,1.46,8.47-4.45,2.28-5,15.09,6.78,14.45,10.78-1.49,9.52-3.39,18.91-5.3,28.33-1.79,8.91-4.62,13.77-8.92,21.47-4,7.16-7.38,14.09-12.62,19.89l-10.65,11.86c-2,2.18-6,2.17-8.52,2.84-1.25.34-2.4-3.8-3.57-4.07-.92-.2-3.87,2.56-4.68,3.11-4,2.64-4,3.87-5.62,9.27-2.52,8.42-8.38,12.89-13.76,18.77,5.95,5.81,11.22,12.14,10,22-.79,6.65-.09,8.13-4.92,11-4,2.34-6.24,2.21-10.73,2,.48-3.76.93-7.52,1.38-11.27.54-4.35-3-4.06,0-8,1.86-2.46.87-5.88-1.79-5.59-2.49.3-6.47,2.18-7.3-2.18-.42-2.24,2.13-7.76,2.75-10,.08-.35-5.47-4.43-6.25-4.39-2.06.08-5.79,3.93-7.57,5.13-2.53,1.69-5,3.41-7.57,5.12-2-5.67,2.72-9.82,5.64-13.28-3.11-2.78-3.21-3.56-6.67-1.7a29.73,29.73,0,0,0-6.08,4.94c-2.57,2.44-4.15,4-7.2,5.12-.54.22-6,2.38-4.46,4.29a58.05,58.05,0,0,1,5.72,7.73c2.32,4.11,2,3.56,5.7,1.5,5.25-2.93,9.37-.41,14.93,1.22q-9.14,8.68-18.28,17.43c2.62,2.54,5.82,4.62,7.36,8.36,2,4.78,3.89,9.52,5.79,14.28q-4.69-1-9.46-2c3.34,2.77,6.68,5.51,10,8.28-2.43,2-4.9,3.9-7.38,5.9,3,1,6.11,2,9.15,3-3.78,7.87-7,17.85-11.85,24.73-5.19,7.38-9.14,15.58-16.58,19.08-8,3.76-16,7.51-24.11,10.84-2.51,1-5,2.05-7.5,3.07-2.07.83-1.58.85-1.11,3.6.32,1.77.35,5.45-2.45,3.8-.76-.43-1.58-4.61-1.95-5.66.92-.24,1.72-1.06,2.63-1.28-2.82-2.46-7.89-4.33-11-1.49-2.66,2.4-9.09,6-10.19,9.93-.32,1.22-2.44,6.39-1.87,7.44,1.59,2.87,3.19,5.72,4.78,8.6,2.27,4.11,5.09,7.75,7.7,11.57,3.28,4.76,5.12,6.36,5.35,12.43.14,3.72,2,12.49-.48,15.07a275.73,275.73,0,0,1-21.33,20.33c-2.46-2.87,1-7.14-.81-9.26-2.38-2.94-4.79-5.83-7.17-8.74-4.3-5.18-7.61-8.11-13.46-8.38.18-1.6.37-3.21.54-4.78-5.68.28-4.63,1.14-5.11,8.09-.29,4.16-2.11,8-3.4,11.91-.54,1.65-.09,3.52,0,5.29.27,3.36.27,2.81,3,2.64,1.41-.08,3.17,10.15,3.65,12,.82,3.09,6.19,5.94,8.3,7.75,1.84,1.61,5.3,5.35,6.16,7.87,1.25,3.62-.08,8.79.7,12.65.78,3.66,2.65,7.39,3.87,10.9-4.8-.91-7.71-4.35-11.68-7.82-3.67-3.25-3.9-5.1-5.46-10.49-1.08-3.69-2.08-12.17-4.39-14.93-3.43-4.13-6.84-8.2-10.27-12.31-1.54-1.89.62-12,.88-14.82.42-5.19-.62-11.15-.94-16.33-.61-10.37-3.51-19.14-6.27-29q-2.73,3.75-5.47,7.56c-2.33,3.2-2.11,3.13-5.6,2.22-3.68-1-3.38-.57-2.81-5.1.22-1.94,1.67-7,1-8.81-2.44-6.39-3.78-12-8.39-16.15-4-3.64-5.39-9.94-7.52-15.44-2,1.6-4.92,5.11-7.33,5.49l-12.74,2c-.55.08-3.24,0-3.65.57-.7.93.54,4.17-.22,5.08l-6.25,7.24q-8.86,10.24-17.76,20.56c-2,2.31-6.06,3.41-8.5,4.78-3.16,1.73-2,4.37-1.94,8.61.08,3.58,1,8.92.18,12.37-.78,3.23-3.1,8.39-2.32,11.69,1.19,5.31,1.76,7.55,4.74,11.49,2.57,3.42,3.75,7,5.35,11.29,2.91,7.6-8.58,14.25-9.41,4a102.57,102.57,0,0,1-.37-13.26c.17-4.45-1.27-5.1-3.9-8.26-.33,3.11.18,6.34-2.06,8-2.41,1.73-4.82,3.55-7.23,5.31-6.68-14.24-12.34-28.9-18.15-43.71-1.52-3.87-4.06-8.33-4.87-12.5-.59-3-.21-6.88-.29-10q-.39-14.2-.78-28.37c-1.78,2.73-3.53,5.49-5.31,8.22s-2,2.4-4.94,2.26c-3.3-.14-7.11-7.26-9.42-10.06,2.36-.59,7.33-.24,7.73-3.91-1.24.12-3,.73-4.22.41-3.41-.93-7.23-4.64-10.36-6.65-2.13-1.38-3.52-7.61-4.6-10.2-1.16-2.85-19,1.6-22,2-6.61.87-13.3-2.07-19.77-3.72-2.84-.73-6.11-.39-7.58-3.64-2.62-5.82-2-7.5-7.13-5.37-4.3,1.79-6.92,1.11-11.49.28-2.81-.51-4.6-4.4-7.17-5.76-4.63-2.5-5.13-3.09-7.38-8.62-1.52-3.66-2.14-8.42-5.57-9-5.95-1-5.92-.69-10,4.74-1.4,1.91,3.54,8.64,4.6,10.61,3.73,7,6.88,14.38,10.25,21.6.49-3.27.94-6.53,1.41-9.8,2.44,4.88,1.93,9.76,2.09,15.47,4.25-.3,11.38.53,15.3-2.16S1168,565,1171.08,561c.28,4.11-.6,10.84,2.4,13.14,1.75,1.34,3.6,3.33,5.52,4.27,1.71.85,3.74.1,4.73,2.21.74,1.51,1.92,5.71,3.41,6,2.62.49,1.54,2.55,1.35,5.56s-5.7,8.17-7.4,10.43c-.12-1-.76-1.85-.88-2.81-1.47,3.7-2.29,5.57-2.29,9.64,0,3.56-1.17,3.19-3.82,4.62s-5.46,3-8.16,4.39c-1.62.85-1.57,6-3.12,6.83-1.25.68-3.28-1.18-4.62-.54l-6,2.94c-2.73,1.38-2.35,5.51-4.87,6.53-4.52,1.81-9,3.62-13.54,5.47-1.35.53-1.57,1.32-2.43,2.81-1.1,2-2.48,1.7-4.35,2.09-3.9.85-7.76,2.26-11.6,3.43-2.85.82-3.44,4.5-6.55,4.5-4.86,0-5.27,1.2-6.21-4.43s-1.91-11.45-2.84-17.16c-1.49-8.91-5.3-14.77-9.38-22.44-2.4-4.55-2.78-5.39-7-7.15-2.41-1-2.38-9.24-2.84-12.11-.65-4.35-3.14-8.28-4.82-12.14-1-2.31-3.41-3.44-4.68-6-2.69-5.43-5.37-10.82-8.06-16.29-1.35-2.67-2.36-7.34-5.54-6.41.38-3.32.81-6.67,1.2-10q-1.74,6-3.51,12c-4-4.78-6.11-8.93-8.79-15-2.86,4.07,2.19,10.88,3.82,14.58,3.27,7.58,6.58,15.15,9.89,22.72,2,4.53,1.27,9.61,4.19,13.17,1.25,1.5,4.38,4,4.7,6.2.51,3.85,1,7.65,1.58,11.51.29,2.24.11,6.51,1.61,8.13,1.86,2,4.66,4.11,6.06,6.59,2.78,4.86,4,12.37,5.84,17.88.6,1.91,5.38,1.59,6.57,3.17,1.83,2.4,3.68,4.82,5.51,7.24,3.06,4,9.27,8.4,4.48,13.59,3.23,1.11,6.72,8.58,9.31,7.84,8.82-2.66,17.63-5.34,26.45-8,1.63-.47,6.33-2.72,7.7,0,.84,1.66-2.25,11.17-2.67,13.22-1.6,7.93-6.73,15.44-10,22.39-2.86,5.94-5.21,12.39-9.25,17.16-10.66,12.62-23.12,24.25-31.1,39.69-1.79,3.39-13.19,20.89-11.35,24,3.19,5.37,3.22,6.37,2.86,13-.3,6,0,6.47,3.09,11.17,4.78,7.3,3.16,18.61,3.54,27.78.27,6.79-4.57,14.67-9.44,17.31-2.7,1.47-8.16,2.89-10.22,5.57-2.64,3.48-5.29,6.94-8,10.45-2.35,3.05-5.19,4.5-3.7,8.48,1,2.66,4.61,8.81,4.33,11.71-.34,3.46.19,11.37-1.4,14.15-1.36,2.48-8,4.33-10.3,5.55-3.75,2-2.92,3.94-3.37,9.11-.22,2.74.24,10.25-1.14,12.47-4.42,7.06-8.52,15.42-13.65,21.68-2.71,3.28-6.13,5.94-9.09,8.83-1.7,1.66-5,6.37-7.14,6.86q-11.82,2.81-23.66,5.59c-3.62.85-7.28,1.71-10.9,2.58-1.76.39-5.28-4.78-6.55-6.12-4.29-4.34-4.14-4.26-3.49-11.21.26-2.64-2.43-7.4-3.25-9.75-1.84-5.16-3.7-10.33-5.52-15.48-1.09-3.07-4.47-5.45-6.47-7.68-1.36-1.51-1.33-8.66-1.62-10.8-.81-5.92-1.6-11.79-2.41-17.69-1.06-7.91-4.6-14.17-7.7-21.21-2-4.63-4.06-9.23-6-13.82-.89-2,.34-5.84.61-7.95,1.33-10.12,1.55-19.63,5.89-28.35,4.22-8.4,1.65-15.08-.16-23.78-2-9.42-3.9-18.81-5.85-28.23-.61-2.86-4-6.24-5.44-8.46-2.87-4.3-5.68-8.6-8.53-12.88-1.55-2.29-.45-5.3-.13-8.19q.88-8.79,1.83-17.59c.54-5,.76-5.33-1.83-9.32-3-4.63-2.81-5-7.43-4.68-2.68.14-8.06,2.06-10-.59l-8.19-11.31c-1.17-1.62-17.82,1.34-19.91,2.54l-11.81,6.76c-3.08,1.79-4.44.87-7.84-.14s-5.77-2.24-9.15-.9c-4.32,1.69-8.63,3.42-12.93,5.14-2,.82-4.36-2.31-6-3.67q-6.2-5-12.41-10.05c-5.24-4.23-7.8-6.24-11.06-12.57-5.26-10.35-10.52-20.62-15.79-30.93q-2.52-5-5.06-9.92c-.78-1.55,2-7.32,2.53-8.89.89-2.74,3.63-7.75,3-10.77-1-5-1.95-9.83-3-14.77-.65-3.3-2.87-9.23-2.49-12.63.25-2.06,2.49-5.07,3.36-6.83C796,575.69,801,565.36,806.09,555c3.57-7.26,7.84-9.36,13.94-13.73,3.16-2.26,4.58-2.3,5.17-6.69.73-5.43,1.48-10.9,2.21-16.35.87-6.43,12.26-7.61,14.48-13.89,1.56-4.37,2.25-10.45,6.16-11.7,1-.32,3.84,5.62,7,4.86,1.39-.33,4.63-1.93,6-1.14.73.46,3.62,2.87,4.3,2.42,3.07-2,6.13-4.56,9.34-6.22,5.89-3,13.2-5.94,19.55-6.83,1.72-.22,4.38-1.26,6-.73,1.36.55,3.38,1.87,4.81,1.79,1.62-.08,3.16-2.18,4.74-2.52,1.35-.27,3.06.22,4.43.28,4.29.27,7.24,1.1,11-1.42,3-2.06,5.82.65,8.95,2.13-2.3,5.72-2.78,5.94-.17,11.41,1.22,2.49-3.48,6.3-5,8.2,2.5,2.52,5.57,7.16,8.72,8.08l16.17,4.82c4.17,1.24,3,6.41,7.12,8.42,3.61,1.73,7,1.06,10.35,3.72,4.71,3.73,7.19,4.66,10.23-2,.7-1.59-1.59-4-.87-5.45.6-1.18,1.84-5,2.91-5.31,5.24-1.67,7.83-2.58,13.06-1,1.16.35.11,3.07,1.61,3.4,2.45.57,4.87,1.11,7.32,1.69,2,.45,2,1.51,3,3.74.53,1.16,2.41-1.4,3.28-1.09l11.7,3.88c4.3,1.42,4.84,1.42,8.95-.82,4.49-2.48,4.93-3.25,9.36-.83,5.28,2.91,13.51,2,15.95-5.59,1.48-4.72,8.87-19.32,6-24.1-1.84-3,2.17-9.56,1.24-10.72-1.06-1.34-2.6.79-3.46,1.6-1.08,1-2.57-1.57-3.7-1.3-1.51.32-2.75,3.86-4.16,4.63s-3.95.2-5.41.29c-3.38.14-4.84-4-7.91-4.56-2-.41-3.76-1.79-4.56.79-.9,3.07-.89,2.91-3.55,3.46s-6.82-3.46-8.9-4.84c-3.86-2.5-10.52-15.07-6.37-20.3-1.36.2-2.76.35-4.14.55-.6-5.17,5.37-6.59,7.87-6.67,4.8-.18,7.24-.24,11.48-2.91-1.3-.75-2.62-1.48-3.94-2.26.81-2.54,5.62-1.44,7.79-1.1,4,.65,4.24-.61,7.43-3,2-1.49,5-3.89,7.46-3.69,3.25.3,6.23.9,9.34-.31-.74,1.47.56,2.79,2,3.56,2.2,1.24,1.38-2.09,3.62,1.45.82,1.28,6.92,2.32,8.87,3.25,3.3,1.48,5.37-.74,8.71-.27,3.74.49,6.4-1.08,9.6-3.39,2.68-1.89,1.18-7.16-.49-9.28-2.38-3-5.31-3.58-7.87-6.32-2.71-2.91-5-6.61-8.6-7.12a35.22,35.22,0,0,1-3.71-2.5c-1.48-1.12-2.86-2.44-4.29-3.64.16-.33,1.18-1.87,1.18-1.89,1.38.31,2.73.63,4.09.92-1.25-4.92,1.55-6.43,4.76-6.35-1.53-1.42-3.59-2.72-4.41-4.74l4.11-.14c-1-3.52,3.08-.94,3.68-3.09.7-2.56-2.6-1.42-3.54-1.24-3.38.63-7.06.73-9.46,4.29v-1.28c-3.77,1-5.25,1.73-8.17,4.84.22-.55.44-1.1.68-1.63-3.87-.55-2.11,4.92-.54,7,2,2.65,5,1.3,8.23,1.3-2.25,4.58-4.87,1.18-7.34,2.68-2.62,1.58-7.67,6.71-10.52,4.13,1.71-5.37-.5-4.7-4.46-6.83,1.95-1.16,9.5-4.25,4.37-6.22-1.58-.61-3.46-.14-5.11-.06-1.19.08-2.84-2-3.85-2.79,2.1.15,4.74,1.41,5.85-1.24-2.28,1.28-8-1.67-9.39.06-1.51,1.91-5.87,5.68-6.22,8.3-.22,1.58-.16,5-.87,6.24s-3.68,1-4,2.54c-.85,4.64-.65,8.07-4,10.53s-2.51,6.73-1,10.15c1,2.2,6.28,5,6,6-.88,3-5.7-.81-7.43,1.06-2.6,2.7-5.17,5.41-7.76,8.13-.29-3.17,1.32-3.77,3.24-5.09-1.49-.71-3.24-.73-5-1.5-2.71-1.16-4.25-.41-6.66-1.16-1.21-.35-2.74.77-3.86,1.26s.41,2.69-.17,3.2c-2.13,2-3.62.19-5.46-1.26-2,2.5.22,4.86,1.36,7.16,1.76,3.54,1.86,3.15-.64,6,3.25,2.57,6.84,3.46,6.13,8.79-1.95-1.69-3.3-3.75-5.35-.88,2.54.55,2.76,2.34,1,4s-1,2.66-.19,5.31c-2.18-.47-3.84-.06-4.79-2.56-.88-2.14-1.81-1.51-3.43,0-1.7-6.47-2.87-7.06,1.57-11.11-4.13,0-4.13-.57-6.62-4.78-1.41-2.36-2.43-6.37-4.27-8.06-3.27-3-2.08-5.31-1.66-10.29.36-4.61-1-4.61-4.06-7.36-4-3.62-8.73-8.66-13.73-9.4-1.29-.22-4.22-4.56-4.66-6.12-1.19-4.49-1.53-5.66-4.6-8.36-1.38,4.72-3,2.36-3.6-1s0-2.5-3.17-1.54-5.08,1.34-3.08,5.43c.7,1.43-1.79,4.8.46,6.75,1.87,1.57,5,3.2,6.35,5.35s1.21,5.81,3.08,7.67c2.27,2.2,3.43,4,6.29,4.15,1.86.12,5.11,0,2.21,2.64,2.64,2.44,15.93,8.66,12.55,13.73-1.35-.79-5.19-6.71-6.74-5s-1.81,2.1-2.34,4.61c-.42,2.16.8,2,2.16,3.19,3.86,3.38-2.64,4.33-2.39,6.37.33,2.91-4.87,8-4.75,3.29-2.62,1.69-3.12,5.35-1.84,8.2s-4,3.88-4.59,1.54c-1.14-4.27-13.82-3.76-8.85-10,.7.93,7.57,1.61,9.15,1.2,1.83-.47,5-.51,6.58-1.71s.18-2.54,2-3.6c1.22-.69-1.76-9.56-2.63-9.7-1-.14-3.59-.22-3.32-2,.32-2.32-1.67-3.18-3.14-2.3.3-1.95-3.48-5.13-5-4.92-2.72.43-4.26-2.61-6.21-4.8-3.49-3.81-8.24-5.74-9.32-11-1-4.94-1-5.26-4.73-7.42-1.92-1.16-4.3-2-5.69-.06-1,1.38-11,9.66-12.28,9.19-3.3-1.2-6.6-2.46-9.92-3.68-1.7-.59-4.33,3.44-5.6,4.76-.67.67,1.32,6.38.06,8.38s-5.74,3.29-7.57,4.33c-5.38,3.17-7,8-10.27,14.29-1,1.83,3.22,3.54,1.2,6.55-1.22,1.91-4.49,4.92-3.5,7.2-1.17.34-3.94.46-4.6,1.69-.62,1.08-1.89,4.54-3,4.66a66.22,66.22,0,0,1-10.3,0c-3.06-.15-4.85,4.07-7.27,4.94-2.19.81-6.08-4.64-3.4-6.81-2.65,1.42-3.92-3.64-7.28-1.47-2.68,1.73-4.65-.87-7.06,1.18a27.61,27.61,0,0,0,.76-6.69c-.09-1.24-.17-2.5-.27-3.76s-1.24.31-1.68-.45c-2-3.5-.54-4.33.28-8.27s3.3-9.72,1.92-13.38c-1.3-3.42-.67-7.3-.08-10.8-1.87,1.67-3.11-1.54-2.35-3.56.7-1.85,4.21-1.87,5.43-2.09a8.35,8.35,0,0,0-.59-1.24c3.24-3.29,4.76,1.18,7.59.37,4-1.12,5.46-1.37,9.36,0,3,1.1,5.59-.65,8.35.49a15.5,15.5,0,0,0,7.52.91c5.36-1.28,4.67-13,4.64-17.87-.05-4.56.67-6-3.14-7.36-2.21-.77-2.51-5.23-2-6.59-2,.55-1.25-.86-2.09-1.28s-3.27-.63-3.65-.95c-1.65-1.45-2.25-2.37-4.27-2.25a2.85,2.85,0,0,1-3.33-1.83c.57-.07,1.13-.52,1.7-.59a3.84,3.84,0,0,1-2.22-3.64c2.32-.18,4.76.23,6.75-1.34,4.09-3.23,1.76,2.59,4.41,1.82,1-.23,6-1.17,5.81-2.76a28.72,28.72,0,0,0-2.08-7.12c1.08.12,3.08-.31,3.48,1,.54,1.87.33,2,1.85,2.21a10.27,10.27,0,0,0,7.17-1.1c-.7,0-1.35-.62-2-.72,1.49-2.39,4.33-3.19,6.54-4.37,3.14-1.73-.16-4,1.38-6.87.68-1.24,5.55-2.5,7-3.25,2.49-1.32,4-1.15,6.66-.93-.93-.35-3.54-.7-3.6-2,0-.27,2.44-.54,2.66-.81.43-.53,0-1.85.51-2.54,1.66-2.45,2-4,2.65-7.13.28-1.49,2.51-1.18,3.36-2.3,2.83-3.83,5.63-1.62,9-2.81.49-.18,0-2,.84-2.15s1.84-.3,2.76-.46c1.36-.25,3,.34,4.35.54-.49-3,1.73-2.21,3.58-2.47-1-.43-3.8-3.09-2.43-4.31,2.29-2,.29-1.85-.45-4.48-.77-2.79.71-4.3-1.37-6.21-1.65-1.55-1.26-2.59-1.38-5.2-.16-4.32.59-9.16,4.6-9.35,3.08-.1,5.62-3.79,8.55-5.5-2.06,3.38-3.12,10.57,1.33,11.81-2.6,4.67-7.52,6.22-6.63,12.45.68,4.55,4.46,8.44,8.22,6.43-.5,1.24-1,2.49-1.52,3.69,3.7,2.43,6.86-3.48,10-3.91,1.16-.17,4.19,2,4.6,3.39.64,2.42,2.54,2.94,4.35,4.09a7.65,7.65,0,0,0,.35-2.28c-1-.09-2.06-.24-3.09-.33,2.25-1.61,10.25-1.79,11.82-4.13,2.54-3.8,10-6.14,13.39-2.86-.32-.24-1.58-.69-2.24-1.1.08,3.91,4.81,4.46,6.58,2.08.7-.92,1-3.2,1.43-3.7s1.38-.08,1.82-.52c1.19-1.21,2.76-1.83,3.62-3.39a10.47,10.47,0,0,1-2.29,3.7c5.84,3.2,2.34-8.92,2.19-11.89a9,9,0,0,1,1.76-6.13c1.24-1.67.24-4.35,2.29-6.06,5.22-4.38,6.47,5.29,10.33,5.6,2.12.18,3.65-3.28,3.35-5.4-.22-1.39.81-6.9.49-7.17-.57-.52-1.68,1-2.09.68a28.51,28.51,0,0,1-2.32-2.8c-.57-.73-1.65-5.65-1.07-5.92,3.63-1.8,8.14-4.4,12.15-3.83,3,.41,6,.83,9,1.26,4.11.57.6-1.11,3.06-2.88,1.58-1.11,3.88-.42,5.72-1.71,1.26-.92,4.2.41,5.65.65-.86-3.12-6.36-4.22-8.74-5.36.42-.72.42-1.91.87-2.57-8.35,1.82-16.91,4.1-25.45,5.95-.88.21-4.4,1.65-4.94.63-1.68-3-2.13-3.54-4.87-4.8-3.35-1.5-3-1.19-2.45-5.55a16.18,16.18,0,0,0-.11-7.21c-.44-2-2.32-6.58-1.93-8.64.33-1.85,3.74-4.78,4.82-6.21,2.71-3.49,6.36-5.69,9-9.36,1.33-1.83,3.38-6.2,5.17-7.2s4.29,1,3.31-2.84c-1.14-4.74-4.36-7-8.51-7.13-5.79-.25-6.3-.48-10.35,4.61-2.57,3.24-3.9,5.85-1.83,10,1.84,3.75-13.87,12.87-15.2,14.8-3.95,5.58-10.6,14.5-6.35,22.76,1.82,3.55,7.06,3.43,8.71,7.51,1.16,2.89-3.2,5.37-5.09,7.22-3.25,3.19-5.79,4.43-6.44,9.47-.54,4-.4,10-1.82,13.71-1.94,5.08-5.3,5.08-9.21,6-1.54.32-1.46,2.47-1.87,4.22-.52,2.17-1.67,1.5-3.44,1.63-2.76.22-3,1-3.47-2.44-.23-1.79-1.08-4.61-.51-6.33,1.16-3.57-3.41-7.86-5.26-10.62-.79-1.18-.33-3.4-.89-4.79-.75-1.73-2-3.76-2.41-5.66s1.06-5-.75-5.44c-1.57-.42-1.81-3.47-2.33-5.25-1.11,4.84-2,5.32-5.33,8.08-2.37,1.92-4.27,4.86-6.72,6.53-3.76,2.59-13.39,1.25-13.58-5.34-.24-8.12-3-16-2.68-24,.3-6.94.73-7,5.19-11.22,2.52-2.38,5.17-3.71,8-5.34,3.47-1.93,6.49-3.18,9.12-6.52,2.39-3,4.79-5.85,7.42-8.64,5.55-5.94,8.06-13.32,12.16-20.77,4-7.27,9.22-12.59,14.17-18.89,4.82-6.12,9.22-12.84,15.68-16.13a161.65,161.65,0,0,1,21.8-9c2.86-1,4.35-6.18,7-7.9s6.24-2.1,9-1.77c-3.52,4.37-5.08,6.32-6.4,12.21,3.24-.69,6.06-6.85,8.14-9.8q.52,2.8,1,5.56c1.49-2.19,3-4.43,4.41-6.61.63-.94,4.41,0,5.44.1-.92,1.7-1.81,3.38-2.71,5.1,3.89,3.33,1.63-4.79,4.81-3.37s6.66,2.94,10,4.42c2.82,1.27-2.41,4.26-3.48,4.52-2.4.58-5.73-.63-8.17-.88,1.25,2.57,3.85,1.64,5,4.63.3.74,3.65-.44,4.86-.35,2.87.3,5.57,1.69,7.47-1.16.86-1.37,4.41,1.61,5.65,2.3-.7,3-3.21,1.07-5.09.55-.81,6.2,8.71,3.8,11.28,3.89,5.39.24,7.81,1.76,12.66,4.85,4.49,2.86,8.45,5.34,13.27,7.08,3.65,1.28,8.38,3.95,9.81,8.7s1.17,4.58-1.16,8.61c-1.46,2.49-1.92,4-4.24,4.91-5.28,2-7,2.23-12.22.85-9.77-2.6-17.73-5.11-26.79-10.25,2.64,3,10.2,8.64,10.2,13.13s-.68,13.63,3,15.38c4.13,2,9.43,7.35,13.47,5.44,2.38-1.1,1.12-5.41-1.22-5.41-2.54,0-3.38-2.45-5-4.79,3.75-3.84,4-3,8.6-1.15,3.76,1.5,7.52,2.92,11.26,4.4-.33-1.09-3.29-9.34-2.89-9.62,2.84-2.16,5.67-4.29,8.47-6.41,1.48-1.12,4.25-4.37,6-3.74l9,3c.38-1.91,1.81-5.48,1.19-7.31-.15-.55-3.09-5.84-3.26-5.16.68-3.12,1.35-6.17,2-9.26.26-1.09-3-4.38-3.6-5.3,3.6.55,7.24,1,10.86,1.59,2.71.38,4.52,5.06,6.19,7.55-1.79.21-7.09-.38-8,1.51-1.57,3,1.35,5.05,3.06,7.59,1.89,2.71,4.7,1,7.45.53,3.4-.52,1-3.41,2.8-6.14.82-1.24,3.95-2,5.13-2.62l9.8-5q7.48-3.81,14.93-7.62c1.43,5.28,1.4,5.24,5.78,6.47,2.85.79,4.34-5.2,6.8-4.9,3.7.5,5.9,1.11,9.25-.72,3.85-2.07,4.92-1.91,9.09-.86-.64,1.25-1.29,2.48-1.92,3.71,4.59,1.55,4.4,1.79,7.44-2.78,2.82-4.28,1-4.63-1.82-8.76,6.46-3.18,15.74-2,22.34.92,4.46,2,8.9,4,13.38,6,3.21,1.45,6.43,5.49,9.26,7.89.21-1.9,1.88-8.24.54-9.34-3.27-2.76-6.56-5.51-9.85-8.28-2.17-1.79,1.3-7,2.24-9.48.81-2.07-4.28-4.28-5.76-5.35,3.22-2.87,6.46-5.78,9.69-8.69,2.21-2,3.12-9.07,4-12.17,1.22-3.91,16.56.21,20.17.6-1.38,4.25-2.76,8.53-4.14,12.76-.73,2.22,2.62,7.36,3.51,9.43,1.62,3.75-3.73,20.42-1.09,22.44,3.17,2.38,6.77,2.81,5.09,7.36-1,2.51-2.06,8.41-4.06,9.81l-10.42,7.18c-1.51,1.06-6.22-.77-8-1,4.44,4.09,9.49,7.67,15.47,5.45,4.73-1.73,10-9.17,13.58-13.18,3.92-4.48-6.22-11.25,2.1-14.11,1.58-.53,6.09-3.29,7.33-1.66,2.1,2.76,4.22,5.51,6.33,8.24-.48-3.61-.09-7.07-2.66-9.15-3.38-2.73-3.76-2.76-7.78-2.07-1,.19-9.11,2.2-9.31,1.35-.6-2.49-2.63-6.95-1.65-9.38,1.28-3,4.34-7,2.54-10-1.4-2.36-5.79-7.1-4.27-9.76,2-3.49,4.92-4.06,8.14-5.57,2.38-1.11.34-7.4-.28-9,1.76-.5,5.22,4.87,4.18,7.08-2.41,5.22-2.14,5.1.4,10.23,1.73,3.49,14.48,3.52,17.74,3.8a134.32,134.32,0,0,1-13.63-6.33c-5.19-2.75,3.81-7.09,5.85-7.83,6.24-2.22,8.83-.51,15,2.13,1.91.84,3.63,2.5,5.4,3.77s4,.11,6-.23c-.62-1.87-1.27-6.29-2.48-7.6s-5.63-1.06-7.24-1.38c-2.11-.39-2.54-10.78-2.94-13.44q10.45-1.22,20.93-2.4c4-.44,7.9-.93,11.84-1.35,2.62-.31,1.59-3.41,1.65-6.4.16-5.82-.25-5.89,3.74-8.57,2.84-1.91,5.86-4.62,8.92-5.93,6.48-2.73,14.38-3,21.12-4.41,12.78-2.62,25.09-4.35,37.29-9.6,2.84-1.24,1.56-6.48,3.89-7.81,3.6-2.1,7.24-4.14,10.81-6.23C1420,88,1427.77,88,1431,93.26c-3.4,1.18-6.83,2.33-10.21,3.5,5.38.85,10.78,1.75,16.16,2.6l-6.65,6.55c3,.23,5.95.41,8.95.65,0-1.3-.46-6.35.65-6.29,2.33.08,4.65.2,7,.29,3.51.11,7.4-.73,10.43,1.61s8.14,4.74,10.46,8.17c.59.89,3.58,4.31,3.17,5.29-.51,1.25-1.4,5.09-2.36,5.79q-21.69,15-43.37,30c10-3.18,20-6.39,30.07-9.57-2.59-.45-5.17-.89-7.73-1.32,3.08-3,7.81-5.73,11.47-2.71,5.47,4.53,6.74,4.31,13.35,3.61,8.62-.92,17.36,1.11,25.94,2.15l-4.92,3.25c2.11,1.16,6,4.5,8.17,4.35,3.44-.19,6.87-.4,10.3-.59,2-.14,7.7,1,8.06-1.9.74-6,.23-5.75,4.9-5.82,3.22-.05,6.67.38,9.84-.28,2.38-.53,7.39-2.93,9.66-2.06s5.39,6.83,7.08,9c1,1.27-1.22,8.46-1.24,10.41,0,1.56.25,10.39,1.19,11,3.16,2.06,6.3,4.06,9.46,6.08,1.41.9,5.6-7.09,6.58-8.55,2.71-4.07,2.22-4.55,5.88-1.87,3.83,2.86,4.46,4.09,8.63,2.6,2.65-.94,5.81-3.16,8.45-1.7,1.87,1.09,6.06,4.85,8.09,3.94,3.21-1.52,6.41-3,9.7-4.51-.92-1.84-4-5.78-2.79-7.6.9-1.38,3.87-7.56,5.3-7.37l18.68,2.73c4.7.69,9.49,2.68,14.09,4.05,4.89,1.42,11.71,1.87,16.17,4.71,2.73,1.72,9,13.16,11.71,12.61l18.58-3.55c5.09-1,10,1.74,14.93,3.37,3,1,4.41.49,5.39,4.08,1,3.83.86,4.68-.17,8.55,5.24,2,9.28,4.16,14.66,3.09,6.25-1.25,10.2-1.55,16.42-.35,2.27.41,5.37,2,7.33.33,3.06-2.57,2.7-2.63,5.36.36,2,2.12,4.75,6.78,7.16,7.89,1.76.79,5.51-.63,7.39-.86-.57-4.66-1.16-9.3-1.74-14l26.61,2.35c7,.59,13.62,6,19.92,9.49,7.28,4,14.29,8.22,21.35,12.77,4.35,2.81,5,3.08,6.83,8.66,2.08,6.31,1.47,8.32,7,8.32-.65-2.53-1.26-5.06-1.93-7.61,5.17,0,8.68.36,13.59,2.3,3.58,1.4,7,6.05,10,8.81-1.82,1.68-4.51,5.41-6.68,6.1C1861.27,236.79,1857.8,235.21,1855.82,234.86ZM1159.23,450.29c-1-1-.92-3.93-1.91-4.63-4.3-3-5,4.63-5,7.4-2.46-4.7-3-6.67-.93-11.74-1.79-.93-5.76-1.85-7-3.62-1-1.44-1-6.53-1.24-8.42,0-.15-6-2.79-3.35-3.5s3.25,2.77,5.88.59c-1.74-1.85-3.44-2.2-2-4.64a4.63,4.63,0,0,1,4.15-1.91c3,.57,7.79.39,10.37,1.75a6.79,6.79,0,0,0-3.63,6.24c1.89-3,2.62-4.92,5.87-5.37-1.62-5.74-2.76-2-7-3.48.67-2.5,2.14-5.35,1-7.72-.48-1-2.38-6.08-3.92-4-1.65,2.24-4.11-.08-6.25-1-1.59-.71-4.3,2.28-6,2.61-4.19.85-3.92-1.65-5.14,4.25-.37,1.65-5.11,2.87-6.35,3.5-2.94,1.38-2.71,1.53-3.42,5.41-.31,1.77-2.77,3.7-3.82,5a6,6,0,0,1,5.46,6c-.08,5.14.55,7.12,2.38,11.75,1.14,2.85,4,3.77,5.34,6.43,2.25,4.35,3,5.75,6.71,7.79-3.09,1.06-3.71.67-4.54,4.51a55.37,55.37,0,0,1-2.14,6.9c-1,2.82-.64,4.58-.41,7.64.27,3.32,1.06,2.7,3.74,3.42,2.32.63,2.43,2.6,4.28,3.23,2.27.82,4.57,1.63,6.81,2.4,2.92,1,7.95-1.06,11-1.5-.39-4.17-1.19-8.15-.46-12.22,1.08-6.26-1.42-3.38-3.63-7.85a15.86,15.86,0,0,0,2.09.18c-.25-1-.48-3.11-1.06-3.8s-2.49.18-3-.57c-1.49-2.11-.55-4.17.27-6.16-.16.4,8.46,1.45,10,.63C1162.92,452.94,1160.75,451.88,1159.23,450.29ZM277.44,101.46c2.29.48,5,2,7.15.16a11.11,11.11,0,0,0-1.66-1.61C281,100.1,278.88,99.55,277.44,101.46ZM468.17,615.78a17.74,17.74,0,0,0,5.95,3.54c1.17.38,2.66-1.87,4.87-1a16.49,16.49,0,0,0-1.25-2.17C475.05,615.09,470.34,612.12,468.17,615.78ZM449.84,417.61c-.22.27-.47.55-.73.83l.5.39c.89-1.22,1.3-1.77.89-3.09-.19.29-.42.59-.59.9a2.12,2.12,0,0,0-3.33-1.42c-1.78.85-2.46-1.08-4.27.43l1.46.37C445.51,416.88,448.13,418.82,449.84,417.61ZM439.42,413c-1.09-.87-1.29-.35-1.58-.08.35.43.73.83,1.08,1.28C439.08,413.75,439.23,413.38,439.42,413Zm2.49,2.79c0-.26-.05-.51-.07-.79-.49-.31-.92-.55-1.56-.95l-1,1A5.49,5.49,0,0,0,441.91,415.76Zm143.6-42.47c.7-1.71,1.42-3.4,2.1-5.09-4.32-2-9,4.64-10.61,9-2.68,7.27-5,10.6-9.73,16.11-.84,1-1.24,6.34-.63,7.48,1.08,1.91,4.84,1.36,6.35,1.16,5-.65,10-.57,14.62,2.22a3.67,3.67,0,0,0-2.56,4c4.35-1,5.25-4.39,9.79-4.74-.62,3.78-1.1,3.82,1.87,5.11,2.44,1.06,2.84,1.12,4.3-1.35,1.63-2.75-.22-9.19-.83-12.17-.4-2-3.44-2.78-3.28-3.91.42-3.29,0-3.37-1.87-5.85-1.46-1.9-7.6.62-9.4,1.19-.13-1.29.17-4-.84-4.51-.79-.43-2.62-.79-2.63-2C582.12,376.09,583.13,375.75,585.51,373.29Zm-59,243.77c1.22,3.42,6.47.67,7.69-1.45a11.08,11.08,0,0,0-.84-1C531,614.39,524.74,612.16,526.49,617.06ZM483.2,605c2.14-.63,4.25-1.37,6.38-2.1-1.73-1.57-2.94-3-5-3.38-1.51-.3-2.32-2.87-3-2.81-3,.3-6.55-1.73-8.58-4.68-.13.28-.27.57-.38.89-6.2-4.65-13-8.92-20.15-9.7-4.28-.47-7.56.57-11.77,1.75-3.37.95-4.27,4.62-7,6.53,5.38,3.19,11.53-10.45,16.87-4.39a3.23,3.23,0,0,1-2.75.61,3.52,3.52,0,0,0,3.89,1.6c1.68-.59,1.84.89,3.63.94,2.94.12,5.7,2.48,8.84,3,2.94.45,3,4.33,6.24,6,.84.44,4-.49,4,2,0,.81-2.7,3.09-3.21,3.7C475.11,605.73,479.13,604.6,483.2,605Zm59.14-198.7c-2.54,5.29,1.85,6.16,5,7.81s4-.42,6.22-3.15c-3.27-.27-6.56-.57-9.82-.88C543.29,408.85,542.82,407.57,542.34,406.29Zm-2-23.35c3.24,2.93,10.66,9.93,14.78,6.23C551.27,384.28,545.53,382.77,540.35,382.95ZM693.13,779.29c1.58,7.75,1.73,7.61-2,13.77q-6.93,11.33-13.92,22.61c-2.16,3.58-4.81,6.31-5.08,10.76-.71,11.1-1.43,22.23-2.13,33.33-.46,7.35-7.25,14.91-10.62,20.76-1.48,2.5-2.71,6.74-5.36,6.91s-8.47-.83-10.63.85c-6.51,5-13,10.09-19.52,15.09-1.29,1-1.26,12-1.46,13.92-.22,2.31.11,6.3-1.19,8.16q-8.09,11.72-16.2,23.44-7.41,10.77-14.84,21.48C589,972,573.44,964.42,571,963.58c-1.41,6,7.49,6.64,8.41,11.84.46,2.56,2.21,7.42,1.8,9.94-.4,2.3-3.37,5.59-4.47,7.45-3.27,5.39-7.65,5.27-12.92,6.88-5,1.54-7.47,1.4-12.67.25,1,3.67,1.81,5.22.6,8.7-.71,2.19.18,5.71-.94,6.61-5.16,4.06-8.16,2.31-13.55-.73,0,3-.76,7.11-.18,10,.43,2.15,3.57,5.76,2.75,7.83-1.65,4-3.27,7.95-4.91,11.94s-2.17,3.54-5.79,4.52c-3.11.85-3.69,3.89-5.3,7.22-1,2.1,2.84,6.1,4,7.9,1.45,2.29,6.19.3,5.2,4a18,18,0,0,1-3.62,7.81c-1.82,2.48-4.46,5-5.35,8.17-1.33,4.8-2.43,5-6.11,7.43s.41,15,1.11,19.54c.29,1.67.22,5.66,1.41,6.75,2.75,2.69,5.5,5.33,8.23,8,4.79,4.61,8.06,3.8,14.22,3.95-5.57,2.81-11.17,5.71-16.76,8.55-4.47,2.3-5.33,1-9.9-1.52-6.6-3.56-13.17-7.18-19.77-10.72-3.4-1.85-4-6.12-5.51-10.26-3.7-9.81-9.73-19.44-8.63-30.37q2.45-24.45,4.92-48.83c1.57-15.64,2.2-32,4.81-47.48Q497,959.73,502,930.45q3-17.82,6-35.55c.84-5.07,2.46-10.7,2.67-15.86.14-4.35-1-9.33-1.51-13.63-.3-2.83,0-9.66-1.32-12.08s-6.11-4.78-8.19-6.42c-4.08-3.16-8.12-6.35-12.18-9.54s-5.27-6.45-7.79-11.76q-7.48-15.79-15-31.6c-4.11-8.7-8.24-17.35-12.36-26-2.54-5.34,1.76-15.22,2.94-20.79.59-2.76.88-8.93,2.41-11.1,2.38-3.43,4.7-6.82,7.06-10.21,5.25-7.56,9.76-12,8.4-22.63-.32-2.42-1.62-3.72,0-5.51.22-.23-.56-3.68-.29-4.91.65-3.25-5.73-6.23-5.06-9.36.87-3.88.68-3.43-2.16-5.24-2-1.35-2-1.18-4.13.09a22.78,22.78,0,0,0-4.16,3.83c-.73.76,1.35,3.5,1.81,4.42-4,2-3.88,2.5-5.73-2.48-.82,2.72-4.88-1.89-7.14-2.38-1.18-.25-2,1.26-2.7.67-1.22-1.06-2.46-2.15-3.7-3.19-2.54-2.15-7.55-4.82-9.3-8-1.49-2.63-.74-6.66-2.64-9.12-4.8-6.24-7.73-11.77-14.42-13.89-5.2-1.61-13.85-2-17.94-6.57-3.59-4-7.22-8-10.81-12-2.35-2.6-5.68.14-8.51,1.14-6.39,2.22-12.93-3-19-5.78-4.92-2.25-9.85-4.47-14.77-6.71-1.51-.69-4.46-1.24-5.7-2.64q-4.81-5.49-9.6-11c-3-3.36-1.21-5.39,0-10.12.79-3.07-4.3-9.11-5.72-11.55a33.64,33.64,0,0,0-5.08-6.91c-3.44-3.62-6.9-7.18-10.36-10.82-.78-.82.21-3.32.38-4.45s-1.68-3.07-2.26-3.89c-2.46-3.58-4.51-6.73-7.57-9.42-2.6-2.26-5.35-3.64-6.34-7.41-.56-2.11-2-12.24-3.57-13-3.21-1.63-6.4-3.3-9.59-4.94,1.06,4.07,1.79,12,4.08,15.11,3.48,4.66,6.46,8.32,8.52,14.09a13.3,13.3,0,0,0,4.27,6.49c1.73,1.69,2.2,4.38,3,6.93s2,5,2.06,7.93c.19,4.41,1.87,1.26,3.06,2.25s3.89,3.78,3.62,6c-.37,3-2.7,3.7-3.83,1.42-2.31-4.78-6.39-7.61-10.11-10.64-1-.87-.66-6.34-.76-7.87-.16-2.38-3.22-4-4.66-5.33s-2.79-.69-4.33-2.24c-1.78-1.73-3.56-3.52-5.31-5.31,2.11-.27,7.09-.77,4.31-5.37-2.43-4.05-3.51-6.06-7.21-8.09-2.41-1.34-3-5.88-4-8.77-1.71-4.92-3.41-9.82-5.09-14.74-1.84-5.37-8.06-10.05-12.6-11.47-3.73-1.14-5-.79-6.67-4.88l-5.47-13.38c-2.66-6.59-8-10.62-9.85-17.82-2.43-9.35-2.25-15.4-1.84-25.3.33-8.24.73-16.45,1.11-24.67.37-8-1.3-13-3.53-20.59a86.8,86.8,0,0,1,12,4.12c.16-6.7.42-7.51-3.43-12.18a55.65,55.65,0,0,0-9-8.63c-3-2.39-6.2-2.39-9.45-4-5.32-2.63-6.11-2.83-8.5-9.16-2.73-7.31-12.39-11.13-11.76-19.27.57-7.44.09-6.86-5.21-10.62-.75-.54-3.94,7.38-6.18,3.51-1.67-2.91-4.36-10.31-7-11.71-3.71-2-4.49-3-6.84-7-2.32-3.87-4.46-9.23-7.33-12.46-2.38-2.72-5.92-4.59-8.63-6.71-6.63-5.16-12.46-7.86-19.93-10.92-2.93-1.24-6.5,1.57-9.47.8s-6.76-4.66-9.51-6.56c-3.81-2.64-4.87-3.59-9.14-3.13-3.79.41-5.68,1.55-4.24,7,1.19,4.56-14.31,9.29-17.72,10.58a2.72,2.72,0,0,1,1.78-3.93c-2.62-.9-.64-9.42,1-10.45,3.86-2.34,5.78-2.5,10.12-2.41-1-1-2-2-3-3.06,1.16-.92,2.28-1.9,3.43-2.84-6.87,1.49-9.73,3.15-15.51,8.08-5,4.23-7,9-10.23,15.45,1.59.45,3.17.87,4.76,1.32C72,308.78,67.28,312.84,61,318c-3.11,2.56-13,5.38-13.36,10.6-.36,4.71-13.19,7.38-16.83,8.57a24.11,24.11,0,0,1-4.56.78c-1.91.24-1,1.38-2.38,2.45-3.1,2.31-5.25,3-8.6,2.07,3.06-3.34,6.24-4.2,9.71-6.63,2.64-1.84,10.35-10.16,12.7-5.58,1.65-3.33,7.81-11,11.15-8.35-1.13-3.57,4.64-5.85,5.28-9.83.54-3.31.59-4.11,2.52-6.31,1.27-1.42,2.51-2.16,1.22-4.36-4.17,2.59-8.68,6.78-13,3.23-1.48-1.21-4.3-4.82-6.06-4-2.18,1.08-4.37,2.14-6.52,3.22q-1.17-7.47-2.29-14.93c-1.08.69-6.76,5.34-7.56,4.65-2.12-2-6.22-4.3-7.65-7.05-1.56-3-1.73-8.75-2.4-12.19-.57-2.88,1.48-5.1,2.75-7.49,2.47-4.75,2.17-6,6.7-5.51,3.76.42,4.32-3,7.61-4.53s6,1.41,7.57-3.18c1.27-3.64-.62-4.31-2.84-7.08,1-.66,2-1.28,3-1.94-1.41-4.79-4.81-.52-7.23,1-3.1,2-3.57-.38-6.66.05-6.16.91-13.1,2.33-16.49-5.24.77-.25,1.49-1.15,2.28-1.32-3-1.16-7-1.68-9.14-5,4.44-2.63,7.57-5,12.47-5-.33-.5-.7-1-1-1.53,3.78-2.43,5.92-3,10.18-3.27-.19,5.53,3.56,4.68,7.33,5.81,3.3.95,4.36-.71,7.23-3-1.33-.67-2.68-1.31-4-1.95.5-.2,1-.45,1.57-.68-1.46-1.32-1.94-2.85-.35-4.12a36.66,36.66,0,0,1-9.87-2.23c-2.73-1-2.72-5.93-5.4-7.34-1.81-1-9.61-3.38-10.38-5.46-.37-.93,1.36-5.11,1.65-6.18.21-.78,1.95-.51,2.52-.55,2.9-.23,7.36.82,9.25-2.22,2.16-3.43,4.09-7.12,6.81-9.91a32.66,32.66,0,0,1,17-8.83c3.9-.76,7.11-.76,10.28-3.59,4.38-3.95,4.11-4,8.94-1.16,4.27,2.55,16.41-.94,18.28,4.94,1.37,4.34,14,3.95,18.2,4.56,6.31.91,12.65,1.74,18.93,3,9.29,1.83,18.57,3.7,27.86,5.52,6.11,1.23,11.87,5.21,17.6,8.1,1,.49,7.49-8.38,8.54-9.53,1.71-2,5.06,3.87,7.06,2.86,3.3-1.63,18.09-11.78,20.26-7.82-5.39,3.22-10.77,6.39-16.17,9.6,4.17,3.25,17.9-10.27,19.08-4.52,1.62-2.12,3.21-4.22,4.82-6.36,1.3-1.71-1.93-2.21.45-4.37,4.11,5.39,8.23,10.38,12.75,15.25,1.45-5.18,2-6.93,5.38-10.31,2,2.42-1.54,3.49,1.25,5.31,1,.68-.65,3.17-1.13,4.29,1.78-.53,5.13-.59,6.57-1.9.54-.5-.66-3,.35-3.09s2-.35,3-.51c3.6-.56,8.36,3.29,11.68,4.91,6.85,3.33,14.68,4.55,21.85,6.68-.16-.58-.34-1.15-.48-1.75,4.59.2,7,2.62,10.94,5.63,2.95,2.29-6.06,5.8-6.73,6.13,3,1.06,6.25,2.9,9.4,2.63l15.63-1.4c2.43-.19,6.66-1,8.35,1.88,2.4,4,4.78,8,7.16,12-.37-1.73-.73-3.49-1.08-5.23-.24-1.06.73-2,.6-3-.57-4.17-2.17-3.13-.17-7.16,1.4-2.73,12-3.06,9.65-7.22-5.15,2.35-8.94,4.23-14.4,4.09,1.24-5.29,3.14-4.74,7.38-6.35,4.41-1.62,5-2.11,9,.48,1.16.72,1.87,3.75,2.49,5.08.81,1.82,2,1.56,3.65,2a60.27,60.27,0,0,1,9.62,3.37c2.7,1.14,17.53,3.06,18.15.73,1.27-4.79,1.46-7.06,6.14-7,2.89,0,6.28,1.78,9.14,2.61-.4,1.58-2.24,6.37-1.78,7.82s4.59,3.48,5.75,4.36c-1.51-5.43-3.27-10.17,2.6-11.21,2.44-.45,3.85-2.92,5.65-4.91,1.27-1.39.38-3.25.08-5.23l-4.56,2.47c-.56-5.36,2.87-6.18,6.2-6.52-.16-4.19-3.67-1.22-5.94-2.18-1.79-.8-8-2.12-8.77-4.29-1.67-4.53-1.56-7.46-1.51-12.48.08-4.84,2.06-5.49,5.32-4,.57-2.32-.83-3.16-2.57-2.91,3.2-2.31,3.65-2,3.54-6.53-.13-4.06-.19-5.63-1.8-9.08-1.2-2.61-.33-6.4-.17-9.35.13-2.31,3.51-1.06,5.09-1-5.81-7.2,4.41-5.16,8.38-5.13a39.78,39.78,0,0,1,14.69,2.37c-2.22,3.64-5.25,11.52-8.43,13.68-2.82,1.9-9.76.33-12.76.26,9.57,1.59-1.44,8.6-.84,12.06,4.87-1,7.63,3.85,8.52,9,.57,3.34,5.36,7.36,7.3,10-2.4,1.8-4.76,3.6-7.12,5.39,2.36,1,4.25,2.8,6.42,1.08s4.13.39,6.44,1.67L401.67,195c2.26,2.18,3.48,2.25,2.72,5.72s-1.24,4.19,1.48,6.17c1.6-2.67,2.55-4,2.82-7.25.09-1.24,1-6.3,3-4.94,1.27.89,5.64,2.76,5.95,4.52.58,2.94,2.24,6.36-1,7.54,0-.72-.35-1.49-.33-2.19-6.63,4.15,8.15,19.09,8.81,11,.17-2.28-.09-3.64,1.35-5.07.69-.74,2.93-2.23,2.93-3.46,0-6,.08-5.72,4.59-8-1.81-3.19-3.49-4.73-2.82-8.49s2.54-2.84,5.5-2.27c2,.37,7.3.14,8.66,1.92,2.57,3.27,3.4,3.87,7,4.77-1.54,3.16.92,5.19-.72,7.4-1,1.39-4.57.87-6.08,1,1.35,3.29,2.27,6.24,4.5,8.56,2.4,2.53,3.51,4.54.89,8.27-1.71,2.46-5.92,4.08-8.22,5.67s-3.84-1.78-5.67-3.7c.92,2.35,1.83,4.69,2.76,7-1.44-.84-2.86-1.69-4.28-2.52.16.66.35,1.3.54,2-1.47-.37-2.9-.78-4.36-1.15-1-.26-.19-3.1-1.18-3.05-2.22.08-5.28-.94-6.41,1.93,1.35.93,2.71,1.81,4.08,2.7-1.47,2.5-2.68,5.51-4.92,6.93-3.25,2-4.42.33-7.74-1.66-5.21-3-9.77-2.79-15.57-3.07l12,6.81c2.92,1.65,7.78,1.08,11,1.56-1.27,2.44-3.41,9.13-5.54,10.25-1.24.67-2.92,2.09-4.27,2-1.68-.2-3.3-.87-4.74.28-4.43,3.51-4.76,3.76-9.79,2-3.15-1.07-6.36-1.94-9.53-2.92,2.11,1.1,4.22,2.16,6.33,3.27-.45.45-.74,1.11-1.24,1.55,3.35-.9,3.9-.84,6.93,1,1.59,1,4.06,3.65,1.4,5.05-2.83,1.49-4.16,1.52-7.29,1.33-1-.09-2.63,4-3.17,4.89-2.54,4.49-6.56,9.31-7.58,14.77-1.14,6.16-2.27,12.36-3.44,18.53,2.19.57,7,.62,8.66,2.32,1.82,1.86,2.9,9.1,3.81,11.83,1.59,5,2.59,3.19,6.86,2.12,2.24-.57,4.78,1.19,6.88,2a59.62,59.62,0,0,1,16.68,9.56c1.78,1.44,5.22,5.61,7.38,5.83,3.18.41,6.39.79,9.55,1.15,1.12.14,7.22,0,7.17,1.52-.18,5-.38,9.95-.56,14.92-.25,6.92,5.9,12.18,9.46,17.19s10.92-4.18,10.31-8.39c-.64-4.42-1.3-8.84-1.95-13.3-.35-2.35-3.1-5.48-4.25-7.49,3.87-2.84,11.36-6,14.06-10.34,2.45-3.9,3.06-14.55,0-17.92a50.78,50.78,0,0,1-6-7.17c-2.44-3.87-3.24-3.54-.18-6.72,3.39-3.42,3.65-3,2.4-8-.67-2.73-2.21-6-1.43-8.82,1.41-5.05,1.52-6,.16-11-.86-3.15.9-4.21,3.78-4.63,5.25-.73,10.09,4.4,15.23,1.69,3.27-1.71,4.13.21,7.14,2.64,1.43,1.17,5.52,3.17,6,5.33.73,3.23,2.36,5.75,5.57,5.21,2.59-.42,4.33,1,6.71,2.29-1.38,2.63-2.19,3.37-1.75,6.35.43,2.78,1.21,5.44.21,8.17.7-.17,1.44.21,2.12,0-1.27,1.79-4.89,4.68-2.94,6.69,3.36-11.27,15.42,13.32,17.92-1.88.54.68,1.57.76,2.13,1.44,1.35-3.24,3.52-6.36,2.94-10-.42-2.54,2.87-7.56,5.14-7-.29,1.35-.56,2.7-.81,4.06,5.22.28,8.71,12.31,11.2,17.16,1.38,2.7,5.6,8.09,5.77,11.17.09,1.67-2.54,4-2.24,5.66.14.76,2.75,2.48,3.22,2.94,1.18,1.05,3.48,2.38,4.29,3.86.95,1.79-.6,3.72,1.52,3.86,4,.26,5.7.33,9,2.87,2.28,1.78,6.81,4.2,1.84,5.06-2.81.48-5.54,1.73-8.27,2.71,1.67.7,3.88-.67,5.67-1.29-1.22,2.5-5.16,2.72-7.38,3.49s-1.45,5.58-.3,3.88c1-1.48,1.72-1.66,3.22-2.31,1.32-.54.81-1.38,1.58-1.86a14.11,14.11,0,0,1,6.42-2,3.24,3.24,0,0,1-2.36-1.45c1.57-.07,4.7.17,5.36,2.27.9,2.74-1.84,2.55-.34,4.66,1.8-3.75,4-1.77,6.78-.74,2.27.85.5,5.68.06,7.14-.92,2.82,1.94,3.78,0,7-.82,1.38-4.86,3.91-6.2,4.29-2.17.64-4.31.11-6.79,1s-3.49,2.61-5.32,4.89c-3.78,4.66-6.88,5.35-12.46,4.71a86.85,86.85,0,0,0-16.44-.41c-5,.34-10.08-1.56-11.39,5.89-.37,1.95-5.16,2.52-6.47,3.57-2.16,1.68-4,4.84-5.84,7-3.3,4-5.09,8.76-9,12,6.66-3.64,10.23-11.55,16.9-15.19,4.57-2.48,17-10.35,20.23-1.14-.54-.33-1.14-.43-1.69-.74,3.36,2.57-1.21,4.47-2.89,6.12-2.16,2.11-3.92-1.58-6.41.35,1,.31,3.44,3.32,3.57,3.28,1.59-.47,2.9-.89,4.57-.3a9.08,9.08,0,0,1-3,5.24c.76-.32,1.72.08,2.53-.1-1.26,3.93,2.44,7.1,5.11,7.83-.3.26-.59.53-.89.75,3.86,2.1,7.64,3.9,11,1.14.11.71.22,1.38.35,2.06a4.84,4.84,0,0,0,2.29-.77c-2.3-3.34,2.33-8.14,3.9-10.88,3,1.24,1.3,4.23.62,6.91,2.19-1.95,5.35,1.89,3.46,2.81-2.51,1.24-4.81,2.89-7.6,2.36.62.56.92,1.6,1.51,2.18-3.16,1.44-6.31,2.89-9.46,4.31a11.05,11.05,0,0,0-3.49,1.93c-1.35,1.35-1.71-1.75-2.86-.71-2.14,1.93-4.06,5.69-6.38,8.16-1.55,1.67-3.08-.71-4-1.1-3.32-5.33,4.68-10,7.38-12.14,1.92-1.57,1,.28,1.87,1.16,1.79,1.73,2.87-.67,4.52-2.32-2.11-.1-4.79-1-6.61.49,0-1.28,1-2.55,1.74-3.82-2.48-.69-5.58,2.91-7.63,4.41-1.32,1-1.3-1.2-2.84.82-.78,1-2.57.42-3.67.42,1.6,5.76-7.06,3.68-8.22,6.27l-1-1.2c-1.33,3.09-2.6,3.43-5.17,4.51-1.72.75-1.78,2.14-2.49,4.25-1,3-6,13.22.78,12.42-.19-.47-.37-1-.54-1.44a8.48,8.48,0,0,1,1.41,1.85c-2,1.59-4.38.22-6.49-.35-1.05-.28-.7,3.23-2.25,3.34-5,.43-7.18.73-11.44,3.93,3-.43,5.51-2.12,8.49-2.62-.33.27-.64.59-1,.85.84-.06,1.68.23,2.51.12-2.06,1.28-3.52,2.38-5.81,2.56-1.89.16-5.2-.61-6.31,1.64,4.61.59-2,10.46-3.73,12.1,1.08-2.16-2.22-3.58-3-6.1.16,3,3.56,7.16,2.33,9.93s-3.49,6.22-4.16,9.07l-.5-.16c0-2.14.89-3.83,1.59-5.76-1.21-.86-.62-3.6-3-2.85a28.65,28.65,0,0,1,1.19-6c.16-.33,1.68-4.27.05-2.93-3.94,3.21-2.76,5.31-1.68,10.74a9.94,9.94,0,0,0-3.78-2.2c1,1.63,3.39,2.15,4.18,3.75.58,1.26-.83,4.86-.51,6,.56,2.18,3.26,1.06,2.53,4.66-.55,2.91-2.18,2.64-4.43,3.46,2,0,5.35-.73,4.86,2.56-.18,1.35-4.25,1.42-5.33,1.63.59.38,1.06,1,1.67,1.42-.9.34-1.35,1-2.46,1,1,2.66,2.36.26,4,1.32-1.11.67-2.22,1.38-3.32,2-.87.49-2.08-1.06-2.76-.63-1.33.88-2.68,4.41-3.62,5.94-.68,1.12-3.06.63-4.32,2.4s-2.14,3.68-3.67,4.7c-5.28,3.5-6.2,5.1-9.06,11.63-1.33,3.09-.48,8.56.8,11.65a117,117,0,0,1,5.28,16c.78,3,1.47,10.7-.46,12.85-1.45,1.65-2.69,3.83-4.38,1.14-.54-.85-3.65-4-3.71-4.27a40.57,40.57,0,0,0-2.33-6.41c-.92-2.32-2-3.68-1.33-6.44-.38.36-.76.73-1.11,1.08-.92-3.54,2-8.62-1.17-11.06-2.76-2.15-4.27-6.39-7.54-5.21-1.76.65-3.62,2.1-5.25.88-1.46-1.08-3.37-3.15-5-3.68-2.87-.89-7.7,3.42-8.54-2.07-.54,4.78-10,1.34-12.73,3.82,1.94.22,9.16,1.22,3.77,4.13.57.34,3.51,1.48,3.6,2.07a1.66,1.66,0,0,1-2,2.16c.76-2.21-2.14-3-3.54-4,.3,1.55-.3,2.09-.34,3.27-1.31-3.07-2.48.13-4.25-1.38-2.25-1.91-3.23-3.7-5.84-2.67-1.48.57-3.56-1-5-1.6-2.66-1.12-6.87,2.29-9.43,3.5-4.19,1.93-14.2,10.29-14.25,17.06,0,2.08,2.44,4.21,2.56,6.29.08,1.42-.94,3.76-1.27,5.08-.92,3.7-2.36,7.5-2.35,11.39,0,9.78,1.18,16.78,6,24.95,2.82,4.78,3.89,8.12,8.51,9.64,1,.36,2.46,3,3.28,2.7q2.85-1.26,5.71-2.42A15.59,15.59,0,0,1,395,613c1.36-.12,2.45,1.89,3.14,1.54a10.3,10.3,0,0,0,2.41-1.3c.44-.43-.67-1.73,0-2.4,1.64-1.67,2.46-2.26,3.09-4.74,1.08-4.13.76-9,4.65-10.71,1.62-.74,6.93-2.18,8.58-1.92,2.19.3,8.47-1.16,6.49,4.17-.79,2.09-3.35,8.35-4.7,8.48.7.44.3,1.22,1.87,1.16-.6.57-1,1.35-1.65,1.83l.3.46c.29-.24.57-.46.88-.67a44.82,44.82,0,0,0-1.84,7.67,5.4,5.4,0,0,1-1.11-4.46,15.63,15.63,0,0,0-1.54,2.93c2.94.15-.43,6.49.56,8.85.89,2.13-2.28,6.06-3.56,7.4,4.16,1.63,8.19.38,12.77,1.16,1.78.27,3.06-1.5,4.82-1.16,2,.28,4.62.14,6.44,1,3.89,1.92,6.38,5,5.68,10-.48,3.26-.92,6.49-1.37,9.74-.27,1.9-1.63,3.54-1.86,5.34-1,8.84,8.52,23.2,15.65,19.93,4.41-2,6.66-4,11.28-2.48s6.2,4.25,9.52,8.36c-.24-6.25,6.66-14.73,9.32-19.79.81-1.55,6-2.5,7.33-3.07,3.73-1.49,7.48-3,11.24-4.54,3.42-1.4,9.63,2,13,2.86,8.89,2.34,17.73,4.62,26.61,7,4.81,1.25,9.66,1.34,13.38,5.33q10.38,11.24,20.76,22.43c4.38,4.7,13.93,4.82,19.49,6.36,5.2,1.45,9.3,11.2,12.58,16s6.65,9.8,10,14.7c.79,1.21,2.58,5.11,3.82,5.61,7.12,2.91,14.25,5.78,21.39,8.69s14.27,5.78,21.39,8.7c5.9,2.42,12,9.74,17.28,14,1,.12,7.58.21,7.76,1C691.64,772.15,692.4,775.71,693.13,779.29ZM464.22,437.46c0,2.49-7.23,4.48-9.38,4.39-3.19-.14-3.51,0-6,2.49-1.62,1.61-2.71,3.42-5,2.17a4.23,4.23,0,0,1,3.08-3.36c-.81-1.38-1-.35-1.4-2.19a46.63,46.63,0,0,0-4.41,7.61c1.21.35,2.35.71,3.51,1.1-.25.37-.5.79-.78,1.2,4.78.51,6.79-2.13,10.88-3.82s6.75-3.76,10.3-6.77C465,439,465.2,438.3,464.22,437.46Zm6.22-1.71c3.67,4,11.48-3.66,7.49-5.47,1.11-1.08,2.22-2.16,3.33-3.27-2.27,1-7,5.09-8.66,4.31-2.87-1.44-6.54.51-9.52,1.24C456.76,441.83,467.85,433,470.44,435.74Zm-74-27.48c2.19,1.28,4.33-.33,6.49-1.14-.19.51-.38,1.06-.59,1.6,5.17,3.12,12.6-8.75,16.5-5.31a7.23,7.23,0,0,0-4,4.86c1.81-1.12,3.54-1.26,4.78.69s2.43,1,4.14,2.11c.71.43,8.2-2.48,9.47-2.72-.71,2.62,1.46,1.93,2.9,2.72,1.1.57,1.6,2.73,2.6,3.84-1.81-.28-3.69-1.51-4.46.92-2.58-3.4-7.85-1.53-9.62,2l-.51-.48c.27-.49.54-.93.83-1.4-.71.57-1.33.57-2,1.32-.09-.55-.16-1.08-.22-1.61-1.81,2.09-4.92,7.48-5.38,10.31,2.12.49,3.12-4.07,4.84-5.33.3,2.19-1.65,5.51-2.19,7.81-.7,3-2,6.39-1.87,9.54.27,4.92,2.48,17.64,6.82,7.75,2.29-5.21,1.49-8.8.64-14-1-5.89,2.84-6.79,4.32-10.43-.1,1,.08,2.28-.08,3.3,1.45-1.73.84-4.76,3.67-5-2.41-3.58,2.52-2.93,3.93-1.28,1.65,2,4,1.06,4.65,4.39-.46-.06-.42-.16-.89-.12,1,1.85,1.43,5-.3,6.31-.34.25-2.57,2.91-2.32,3.91.43,1.81,4.41-2.3,5.35-2.24,2.14.12,2.22,6.41,2.55,8.32,1.21-1.55,2.41-3.05,3.62-4.55.75-.95.08-3.64.48-5,.85-2.87,3.54-6.16-.29-8.2,2.73-1.55,1.51,2.4,3.8,2.07-.35.79-.15,1-.79,1.71.64.49.62.37.86,1.1,1.29-1.37,3.63.57,5,.14.21,0-.57-2.73,1.71-1.28-2.57-2.6-2.33-8.66-6.41-9.66-3.38-.85-7.57-1-11.06-1.77-1.27-.29-8.44-2.65-7.89-3.76s-.13-1.85-.67-2.73.67-1.71.4-2.72c-.76-2.79-2.85-1.26-1.57-5.37-5.21,1-5.17-1.53-7.79-6.09-1.39-2.44-3.13.32-4.55-.38-1.76-.89-3.43-2.12-5.35-1.95,1.92,1.81.24,3.13-1.43,4.27a6.37,6.37,0,0,0,1-3c-1.59,1-1.3,3.2-2.94,4a18,18,0,0,0,.71-2.1c-2.76.55-1.59,3.44-3.53,4.4l-7,3.51C400.65,403.66,398.56,406,396.46,408.26Zm-133-182.11c-.69-.07-1.4-.76-2.1-.76.59-.5,1-1.39,1.67-1.83-2.43-.35-4.06,3-6.51,3.44-3.28.55-4.6.77-7.65-.74.85-2.89,4.75-3.78,6.88-4.89-4.46-1.85-5.53-2.31-9.92-.38-2.7,1.19-5.44,2.25-8.17,3.3-3,1.12-6,1.58-9,2.7-1.52.54-8.08.9-3.36,4.4l1.31-1.07-.47-1c1.93-.87,6.89-.87,8.93-.17a5.22,5.22,0,0,0-.52-1.17,11.62,11.62,0,0,1,9.45,2c-1.51,2.78-5.58.35-8,1.12a8.88,8.88,0,0,1,2.69,3,10.75,10.75,0,0,0-3.44,2c2,2.73-1.43,3-3,3.38,2.17,1.89,4.65.54,6.88,1.68,1.57.83,3.67-3.69,5.1-4.74,2.32-1.73,6.49-.37,3.17,2.06-1.32.95-1.54,2.27-2.16,2.86s-1.95.56-2.54,1.11c3.25,3.34,6.51-6.11,10.62-4.7a4.15,4.15,0,0,0-3-2.94c3.33-3.93,9.93,1.89,11.43-2.39a7.25,7.25,0,0,1-1.92.22c.13-2.6,1.7-1.21,2.24-2.71C262.59,228.63,263,227.4,263.47,226.15ZM308.3,264c-3.49-1.68-9-2.91-12.38.13-1.28,1.19-2.14,3.25-3.13,4.41-1.84,2.17-2.74,2.64-5.07,3s-5.94.1-7-3.13c-.3-.87-4.17.16-5.25-2.08-.29-.62-3.91-2.34-4.36-1.87-.79.79,3.62,3,4.33,2.9-1.27,3.38,5.46,6,1.33,7.13-1.29.38-2.43-.82-3.35.77s-.41,2.34-2.17,2.78c.27.23.57.52.82.79-1.35,1.28-3,0-4.62,0,.07.33.13.68.18,1-1.73.07-3.08-1-4.75-.87,2.19,3.36,7.77,4.1,11.22,4.72,2.16.37,10.55-1,9.15-4.13,2.64-2.59,4.21-1.75,7.08-3.23,1.62-.83,3.35-3.38,4.76-4.8a11.35,11.35,0,0,1-1.24.1c1.79-1.83,2.84-3,4.94-3.63,1.82-.53,3,.36,4.58-1.59-1.39.7-1.57.44-2.87.06,1.24-.35,2.52-.74,3.82-1.06a4.26,4.26,0,0,1-3.43-.79c.92.09,1.89-.07,2.83.09-3.43-1.34-6.43,1.35-9.65,3.61,1.13-4.48,11.82-7.21,12.38-2A17.83,17.83,0,0,0,308.3,264Zm58.14,101.69c.32-2.43.09-1.31,1.4-2.14-.08.64-.21,1.24-.3,1.87a2.12,2.12,0,0,0,.56-1.1c1.68.71,1.19,3.17,1,5,.48-1.08,1.36-2.26,2.47-1.63.8.43-.66,2.91-.9,3.92.78-.76,1.41-.76,1.93-1.14-1.95,1.47-2.36,4.49-1.66,7.15s2.08-.43,2-1.83c.43.29.92.29,1.33.56-.92-2.27.78-4.79-.59-6.11s-2.33-4.94-2.88-6.6c-1-3.05-6.26-15.85-4-17.33l-.56-.26c-.75,1-.92.87-2,1.09a3.5,3.5,0,0,1,2.17-2.73,13.82,13.82,0,0,0-1.17-1.1c-1.67,3.38-1.63,4.4.78,6.34-1.86-.93-5.37-2.94-6.14.38-1.37,5.64-.56,4.53,3.11,5.6-4.25,1.05.95,6.72,2,9.1ZM12,288.76c-3.51-1.66-5.23,1.26-9,.8C4.6,292.27,7,292.73,9.4,293.7c.41-1.48,1.87-1,3.25-1.2,0-.34-.06-.67-.11-1C12.36,290.32,11.36,290.45,12,288.76Zm211-126.11c3.22,1.8,5.83,3,8.25,6.1,3.9,5.06,3.4,5,8.38,1.78L242,169c.71-.44.49,1.32,1,1.17a30.21,30.21,0,0,0,4.89-2.47l1.45-8c2.3,1.7,4.74-.46,5.39-3.26.55-2.45,1.65-2.35,3.58-3.3,4.17-2.06,10.79-3.57,14.3-7,2.25-2.24,2.06-3.4-.49-5.43-1.81-1.45-3.59-3.2-5.57-4.13-4.08-1.86-8.44-3.77-11.95.64.27-.69.2-1.6.43-2.29-4.73,1.52-8.92-4.72-13.3-4-5.22.87-10.46,1.67-15.69,2.51.89,1.82,4.78,7.65,3.92,8.56-1.75,1.86-6,6.42-3.38,9-4.6.49-1.21,2.42-2.92,4.95-1.46,2.11-3.87,4.24-3.24,7.35A10.33,10.33,0,0,0,223.06,162.65Zm20.26-49c2.66.42,1.24-2,2-2.88,1.51-1.59,3.55.63,3.14,3.7,1.37-.52,3.49-.76,4.51-2.07s-1.91-4,0-5c1.09-.6,2,4.09,4,1.51a2.18,2.18,0,0,0-1-3.54c1.71-1.19,3.35.48,3.35-2.92,0-1.63,2.33-1.36,3-.57-3.94,2.87-.08,7.32,3.4,6.24,2.32-.7,8.39-5.77,4.13-8.21a4.79,4.79,0,0,1,2.79-.65c-5.59-1.14-.59-4,1.78-5-3.6-2.2-4.93-3.81-8.71-2.16.62.4.76,1,1.67,1.31-1.67,1.77-3.25.47-5.06-.29-1.32-.53-3.33.29-4.68.48-3.65.55-5,2.24-7.92,5.09-2,1.9-5.69,7.2-8.23,7.54-4.08.49-7.16,1.87-3.79,6.55C239.61,113.07,241.46,113.37,243.32,113.65Zm40.62-26.33c-3.51-3.49-3.56-3.91-7.79-2l4.59,3.56C281.82,88.33,282.86,87.82,283.94,87.32ZM77.31,310c1.68,1.36,4-.71,4.76-1.95.27.28.54.6.82.88.29-.45.59-.88.86-1.31L80.37,306A6.19,6.19,0,0,0,77.31,310Zm112,37.79c.29-3.38-7.06-2.15-7.12-1.42-.35,4.27,7.88,20.09,10.68,16.26-.81-.85-1.64-1.68-2.46-2.52C189.56,355.66,188.86,352.36,189.29,347.81ZM73.5,314.44c-4.7-3.19-5.36,7.92-.48,7.49,1.4-.11,2.5-2.76,4.25-3a2.94,2.94,0,0,0,2.84-3.38c1.24.67,2.1.22,2.64-1.29-.48-.13-.94-.25-1.4-.35C82.43,310.4,73,309.75,73.5,314.44Zm157.19,74.87c-.65-1.3-2.72-1.66-3.81-2.07-1.65-.59-1.89-1.87-2.79-3.74-2.71-5.56-3.52-4.33-8.43-6.15-3.86-1.47-5.12-3.49-9.11-2.07,6.45,8.9,13.27,14,21.87,19.15C234,396.7,233.37,394.49,230.69,389.31Zm906.67,430.92c-1.35-2.12-5.72-9.74-6-2.42-.2,5.82-1.63,5.86-4.83,10-2.57,3.32-3.75,6.49-7.11,8.4a32.83,32.83,0,0,1-10.46,4.33c-1.51.27-3.16,8-2.74,10,.73,3.59,3,9.48,2.6,13.16-.38,4-4.37,7.9-5.48,11.72-1.35,4.62-.43,8,.66,12.4a111.18,111.18,0,0,1,2.08,12.61c.24,1.59,6.59,4.25,7.92,3.56.91-.51,7.61-2.76,7.73-3.17.84-3.22,1.71-6.46,2.57-9.66q4.67-17.61,9.34-35.19c2.13-7.95,2.6-11.59,2-20,.87,1,1.79,2,2.68,3,2.33-6.36.4-11.61-.81-18.42Zm365-191.92c-1.2,2.52.18,6.38.64,9.17.32,2.21,3,2.44,4.55,3.13-3.34,2-1,5.51,1.59,5.88,2.36.32,1.49-1.84,4.46,0a9.37,9.37,0,0,1,2.47,3.22c.24-1.57.48-3.13.7-4.68,2.86,1.2,3.35.79,3.43,4.56,0,1.38,3.22,3,4.24,3.72,1.67-4.1-2-3-1.85-6.66,2.49,1.42,4.25-.11,2.08-2.67-1-1.22-1.12,1.41-2,1.14a16,16,0,0,1-3.17-2.16,8.57,8.57,0,0,0-3-1.26c-1.33-.34-1.57,2.06-2.52,2-2.71-.14-1.68-3.13-2.67-5.33-1.95-4.36.57-2.89.4-6.85-.06-1.54,1.91.06,2.37-.77a15.82,15.82,0,0,0,.93-3.68c1.28-4.68-.17-2.68-.93-6.79-.42-2.16,1.85-3.2.62-6.2-3.92,2.18-2.2-.1-5.62-.89-1.13-.25-3.38.65-3.57,2-.53,3.59-1.06,7.21-1.59,10.78-.28,2,1.49,2.56.94,4.74C1504,630,1503.21,629.15,1502.37,628.31Zm9.17-50c.63-3.26,3.51-11.71-1.93-8.81-3,1.61-5.62,6.08-6.35,10.27-.81,4.64,1.94,7.69,4,11.11A52,52,0,0,0,1511.54,578.26Zm-12.06,82.18c-.92,4.84-1.35,7.44-4.43,10.7a35.31,35.31,0,0,0-6.92,10.1c4.06-2.82,8-3.8,8.82-9.58.2-1.55,3.39-3.33,4.47-4.25.29-.24-.71-4.09-.38-5.33A8.82,8.82,0,0,0,1499.48,660.44Zm34.8,14.83c-.52-1.83-1.56-3.32-3.09-3.62.24,1.71.49,3.39.73,5.1-1.76-.34-1.41-.62-2.22.71-1.71-1.22-2.28.21-2.06,2.52-2.33-1.95-3.4,2.46-5.54,3.42,1.26-1.73,1.06-4.62-1.17-4.78-2.54-.18-1.63,3.68-3,4.13-2.46.83-6.89,4.06-4.34,8.11,1.16-1.08,3.41-9.62,4.35-3.41.49-1.48.7-1.08,1.44-2,.16,1.87.16,1.3,1.4,2.23-.25-.83,0-1.87-.16-2.7,5.71-.86,1.94,5.21,3,8.42.7,2.06,5.28,5.88,6.11,2.58l.48,0c-1.22,4.45,2.76,2.72,2-1.12-.54-2.87-2.13-4.78.84-7.21,1.48,2.26.57,4.6,1.84,6.9.08-1.35.14-2.71.19-4.07.3.22.58.4.89.61.38-1.83,2.4-8.65,0-8.81a6.12,6.12,0,0,0,.08-2.16c-.7,0-1-.5-1.41-.55.36-.45.74-.89,1.11-1.32C1536.1,676.69,1535.7,674.59,1534.28,675.27Zm-28.05,123.94c-1-2.58-8.82-5.82-8.58-1.25C1500.26,799.14,1508.46,805.08,1506.23,799.22Zm-16.87-8.4c-.76-1.25-3.75-2.32-4.84-2.36-2.49-.07-2.32,1.22-3.38,3.94,5.15,1.89,8.57,1.43,13.77.45,7.6-1.44-.55-6.16-3.74-4.8C1492,790,1491,790.78,1489.36,790.82Zm22.06,2.56c.92-.12,1.19-1.4,2.24-1.2,2.35.47,3.44-2.1,4.91-2.15,3.17-.08,8.76,1.69,11.43-1.06-3.82-1.61-6.11-.16-10-.48-2.31-.18-2.5.07-4.35,1.89-1,1-2.29-1.16-3.44-.41-2.4,1.6-7.43-3.29-9.79-.3-2.71,3.38,4.47,2.48,5.57,3.88C1509.86,791.74,1510.21,793.55,1511.42,793.38Zm3.24-23.61c1,1,2,2.07,3,3.13,1.19-2,2.46-2.68,1.16-4.68-.92-1.46.13-2.54,1.29-2.23-.84-3.18-2.84-2-2.55.91C1516.3,762.73,1514.92,768.23,1514.65,769.76Zm-69.49-38.53c-.16,1.41,1.38,2.55,1.65,3.85.16.76-1.07,1.12-.82,2.12s.62,2.15.9,3.27c.4,1.55,1.16.17.71,2.73,1.62-.87,1.37-.08,1.86-1.85,2.71,2.68,2.24,8.4,2.6,12.3.32,3.44,6.24.69,7.71-.11.22,1.54.44,3.11.68,4.65,4.6-2.91,5.08-4.1,9.54-.93.71.47,2.33-.33,3.43.12s1.27,3.4,1.58,4.75c2.41-1.35,4.84-2.74,7.27-4.06-.49,1.81-.44,3.42,1.26,3.19.08-3.91.14-7.76.19-11.65.06-3.62.9-3.72,3.28-6.08,3.24-3.2,3.21-3.16,2.89-8.32-.13-2.32,1.33-6.49,3.21-6,3.79.93,5.5.28,2-3.3-.84-.9-2.75-2.16-3.29-3.41-.32-.74.75-2.34.48-3.18-1.45-4.65-2.94-4.32-2.81-9.75.06-2.63,4.81-2.59,6.22-2.9-.74-1.14-1.49-2.31-2.25-3.46,1.86-.57,3.68-1.21,5.5-1.74-.62-1.87-1.57-1.63-3.11-2.06-1.21-.31-2.16-2.56-2.92-3.67-1.06-1.55-5-5.84-6.49-5.62-1.63.25-5.22,6.69-6.39,8.15-2.09,2.71-.27,4.78-3.28,5.66-3.78,1.1-4.38,1.1-6.62,4.92-1.57,2.7-2.53,5.6-5.14,6.57-2.87,1-5.43,1.09-7,4.23-2.08,4-2.84,3.87,0,7.08-2.7-.79-8.06-.59-8.68-4.8-1.13.74-2.25,1.55-3.41,2.32C1445.71,726.54,1445.42,728.89,1445.16,731.23Zm81.76,69c1.2-1.86,1.79-3.06,3.49-4,2.62-1.38,9.17-3.26,10.11-7a56.53,56.53,0,0,0-7.28.95,14.85,14.85,0,0,0-3.34.79c-.6.33-.6,1.77-1.29,2.12-2.11,1.14-4.41,1.93-6.2,3.75-1.94,2,1.16,3.13-1.29,5.59C1523.1,802,1525.6,802.3,1526.92,800.26ZM497.11,616.55c1.21.21,3.14-.57,4.22,0,.81.47.48,4.66,2.65,3.8,1-.38,1-4.23,1.87-4.94,1.57-1.24,2,.51,2.52.49,2.79-.1,4.74-1.15,7.9-1.15,2.35,0,1.88,2.32,3.51-.74.65-1.28-1.76-2.89-2.84-3.17-2.61-.61-2.76-.61-4.06-3.5-1-2.14-1.13-.69-2.81-1.34-1.27-.46-3.36-2-4.62-1.22a11.31,11.31,0,0,1-3.42,1c-3.84-.08-4.91-1.42-8.59.51,3.84,2,3.4,3.42,5.79,7.41-2.31,1.93-12-2.49-10.84,1.4C491.69,617.8,493,615.84,497.11,616.55ZM796.74,248.76c2.87.9,4.66-1.66,4.55-5.26,2.32,1.44,3.57-1.18,5.21-3-1.92-1.47-.46-4.53-1.45-5.21-1.95-1.29-3.51-2.93-5.83-2,2.83-5.35-10.93-11.66-8.52-4.66-4.11-.46-5.21,1.85-9.16-.16.23,1.69.42,3.35.65,5-1.56-2.53-2-4.62-4.63-4.69-2.08-.08-2.89,2.58-2.22,4.76-1.48-1.76-2.78-4.68-5-4.13,1.74,4.66-.52,2.33-1.65,4.41a51.94,51.94,0,0,0-2.07,5.4,63.18,63.18,0,0,1-3.08-5.61,1.86,1.86,0,0,0,2.22-2.12c-.09-1.23-2.41-1.76-3-2.32-3-2.9-2.82-3.61-6.75-3.54.51,2.21,1.91,1.76,3.63,2.1.54,5.75-4.65-.65-6.28,1.6-2,2.71,1.6,2.63,1,3.95s-2.3.28-3.27-.38c0,.61-.05,1.26-.06,1.87-1.48-.27-1.19.25-2.37,1,3.36,1.63,4.32.85,7.76-.68,1.62-.72,5,1.1,6.71,1.54-1.41.77-2.81,1.55-4.2,2.33a3.81,3.81,0,0,0,4,.36c0,.42.08.86.11,1.31-4.11-.12-8.19,1.74-11.87,1.68.6,3.42,7.28,1.73,9.55,1.73-1.21,1.5-.51,2.73,1.17,2.45-.09.5-.18,1-.25,1.45l1.29.16c-1,3.32-6,2.28-4.73,6.08,3.26-.44,6.49-.93,9.73-1.41.86-.12,1.62,2.51,2.33,3,1.06.77,3.19.8,4.38,1.1,2.67.66,4.84.94,7.46-.54,1.27-.7,1-1.94,2.51-2.18s3-.47,4.49-.72C790.93,252.32,794.81,248.16,796.74,248.76Zm-34-72.78c-.6-2.74-3.1-9.14-2.27-11.87,2.16-7,3.43-15.79,7.75-21.13,2.85-3.59,5.73-7.16,8.64-10.75.79-1-1.22-9.22-1.41-10.6-.46-3.12-.16-8.08-2.48-9.86-2.89-2.21-5.78-4.44-8.68-6.65q6.31-7,12.64-13.94c-4.44-3.38-7.32-4.73-9.47-10.57-1.65-4.45,3.48-10.22,5.51-14,2.25-4.17,6.46-5.9,9.85-8.56a50.46,50.46,0,0,0,9.82-9.88c-1.1-1.05-2.19-2.12-3.29-3.17,3.89-.89,8.33-1,11.85-3.34q6.59-4.31,13.22-8.6c-4.83-2.13-10.19-5.68-15.24-6.69-3.66-.74-11.24-1.64-13.76,1.9-1.6,2.27-2.73,5.59-5.27,5.08-3-.54-6.09-1.13-9.14-1.69C767.58,31,760.65,36.4,757.3,38c.53-1.13,7-12.64,2.36-12.8-4-.15-7.9.75-11.28-2.32q8.21-3.32,16.41-6.68c-10.66-5.27-20.14-10.69-31.46-12.48C720.66,1.74,708.65-.93,696,.32L682.34,1.67c-1.54.15-4.69-.31-6.11.62-2.17,1.41-2.48,7-5.31,6.46C667.28,8,663.68,7.31,660,6.61c-4.41-.87-9.7-3.42-13.87-1.3l-18.42,9.48C633.53,19,639.93,22,643.67,29a185.64,185.64,0,0,0-30.8-10.14c-3.28-.74-8.06,1.16-11.35,1.63q-11.16,1.67-22.31,3.34c-3.24.49-8.36,0-11.38,1.78-4.22,2.44-8.44,4.92-12.67,7.35L524,51.08c3.82,4.74,8.47,4,13.8,4.65-1.14,3.29-2.3,6.58-3.44,9.88-1.27,3.67-1.74,3-5.06,3.13-4.85.3-8.71,1.46-13.43,2.94q-9.09,3-18.21,5.91c-1.45.47-1.43,4.57-1.73,6.26-.24,1.26,2.55,4.37,3.17,5.31,1.81,2.81,4.11,8.33,6.7,10.05,3.55,2.35,7.09,4.72,10.65,7.06,1.78,1.2,6.77,6.07,8.82,5.76,4-.55,8-1.16,12-1.73,7.22-1,13.54.6,20.76,2,3.7.69,7.38,1.43,11,2.1,1.81.34,5.59,7.95,6.76,9.66,5,7.17,7.65,15.72,11,24.23,1.82,4.59,2.4,5,1,9.75-1.33,4.43-3.54,7.12-.71,10.53s6.6,5.46,5.51,10.54-2.91,7.72.06,11.4c3.73,4.64,3.48,4.56,8.51,2.9,3.65-1.22,7.3-2.42,11-3.64-.35,3.11-.68,6.18-1,9.27-.09,1-3.52,2-4.25,2.3-2.52,1.21-5,2.45-7.57,3.64-.57.27-.63,4.34-.7,5-.48,4.13-2.51,11.26-1.27,15.2q2.79,8.75,5.57,17.52c3,9.46,8.27,17.18,13,25.47,2.79,4.94,5.57,9.86,8.38,14.77,1.38,2.45,5.33,2.91,7.49,3.8,4.47,1.87,8.9,3.71,13.36,5.53,1.09.45,7.25.61,7.46-.22q4.16-14.56,8.31-29.17c2.21-7.81,4.64-15.42,7.14-23.06,1.35-4.15,1.19-4.23,4.59-5.49l13.42-4.93c2.78-1,6.9-1.58,9.41-3.48,2.81-2.16,5.33-7.48,7.54-10.57,2-2.74,2.71-4.49,5.47-5.29,4.19-1.29,8.4-2.55,12.58-3.8,6-1.8,13.43-2.52,18.9-6.31,6.84-4.7,13.66-9.38,20.48-14.11C763.68,181.42,763.93,181.59,762.76,176Zm686.7,438.78c1.27-.65,3.7-.71,4-2.89.29-2,.7-4.9,2.57-4.74.38-2-.16-3.56-1.81-3.88-.08.45-.19.95-.27,1.4-4.76-3-7.09,1.93-10.41,4.32,0,3.78-.59,4.55,2.1,6.28a4.66,4.66,0,0,0,2.89,1C1449.94,616.35,1448.59,615.17,1449.47,614.76ZM1428.4,773.45c.84-4.86-.06-11.26,1.28-15.62,1.57-5.13-4-9.07-7-4.87,2.44-2.76.08-2.63-.3-4.93-.21-1.21-.37-5.35-1.3-5.81-1.09-.51-3.9-1-4.09-2.56-.35-2.41,1.57-3.14,1.24-5-.46-2.68-3.63-2.4-3.63-4,0-3.06-1-1.67-2.79-3.2s.31-2-2.73-2.67c-1.86-.35-3.14-.16-4.3-1.95-2.14-3.33-5.39-4.41-8-7.24-2.17-2.34-5.73-5-7.57-7.75-2.43-3.9-1.72-5.86-6.27-6.45-1.41-.18-8.25-3.12-8.95-2-1.11,1.83,4.33,9.52,5.29,10.44,2.11,2.11,6.66,3.09,6.81,7.5.17,4.91,5.24,3.95,6.3,8.44.62,2.64,1.27,5.3,1.89,8,.44,1.83,2,1.18,3,2.38,2.46,2.89,4,9.78,5.47,13.51,1.37,3.39,3.73,5.73,5.9,8.43,4.4,5.45,8.84,10.78,13.84,16,0-1.1.37-2.26.35-3.34C1425.09,773.94,1426.52,769.18,1428.4,773.45Zm11.53-22c-2.8-2.48-1.74,4-1.54,5C1442.07,757.85,1442.25,753.55,1439.93,751.49ZM1469.7,785a4.58,4.58,0,0,1-5.43-5.47c-1.81,1-6.5.45-7.73-1.32-1.51-2.11-2.33-1-3,1.29-.36,1.34-1.77.55-2.77.44-3.92-.46-6.7.47-8.87-3.68-.32-.66-5.65-2-6.77-2.86-.63,2.09-2.2.8-3.73.37s-1.62.31-2.73,1.79c-3.26,4.25,1.08,4.6,3.81,5.31-.09.59-.22,1.2-.32,1.75,3.27.72,6.3,2.84,9.35,3.51,1.59.35,3.44-1,5.06-.83s3.38,1.4,4.87,2a18.2,18.2,0,0,0,4.14,1.57c1.15.14,2.25.34,3.37.47.71.1,1-1,1.52-1,3.31.34,4.63,1.58,8,.85,2,1,4.08,2,6.09,3C1472.21,788.77,1475.33,783.62,1469.7,785Zm-44.38-36.67a2.49,2.49,0,0,0,2.49.67c.6-.06,1,1.59,1.55,2.31.76.94.32,1.63,1.3,2.55a4.26,4.26,0,0,0,3,1.47c-.88-1.16-.7-2.28.49-3.36-4.46.18-2.19-7.3-5.79-6.92.06.59.14,1.12.24,1.67C1427.08,744.11,1426.42,746.75,1425.32,748.36Z"/></g></svg>