<?xml version="1.0" encoding="utf-8"?>
<!-- Generator: Adobe Illustrator 19.2.1, SVG Export Plug-In . SVG Version: 6.00 Build 0)  -->
<svg version="1.1" baseProfile="tiny" id="Layer_1" xmlns="http://www.w3.org/2000/svg" xmlns:xlink="http://www.w3.org/1999/xlink"
	 x="0px" y="0px" viewBox="0 0 200 200" xml:space="preserve">
<path fill="#CC187B" d="M100.834,32.945c-30.108,0-54.598,24.49-54.598,54.598c0,48.082,50.355,78.006,52.487,79.256
	c0.656,0.367,1.397,0.578,2.111,0.578c0.74,0,1.481-0.21,2.137-0.578c2.132-1.25,52.487-31.174,52.487-79.256
	C155.458,57.435,130.947,32.945,100.834,32.945L100.834,32.945z M100.834,158.204c-9.31-6.112-46.186-32.629-46.186-70.66
	c0-25.472,20.715-46.186,46.186-46.186c25.477,0,46.213,20.715,46.213,46.186C147.046,125.491,110.169,152.092,100.834,158.204
	L100.834,158.204z M100.834,74.951c-6.952,0-12.591,5.64-12.591,12.592c0,6.978,5.639,12.618,12.591,12.618
	c6.978,0,12.618-5.639,12.618-12.618C113.451,80.591,107.812,74.951,100.834,74.951L100.834,74.951z M100.834,74.951"/>
</svg>
