<svg id="Layer_1" data-name="Layer 1" xmlns="http://www.w3.org/2000/svg" viewBox="0 0 330.32 341.29"><defs><style>.cls-1{fill:#fff;}</style></defs><title>Artboard 1</title><path class="cls-1" d="M72,281.38H55.75V234.56H41.08V221.28H86.63v13.28H72Z"/><path class="cls-1" d="M144.63,281.38H108.94V221.28h35.69v13H125.18v9.46h18v13h-18v11.35h19.45Z"/><path class="cls-1" d="M196,233.73a10.35,10.35,0,0,0-9,4.75q-3.25,4.75-3.25,13.09,0,17.35,13.19,17.35a27,27,0,0,0,7.73-1.11,77.41,77.41,0,0,0,7.53-2.67v13.73a41.64,41.64,0,0,1-17,3.33q-13.61,0-20.86-7.89T167,251.49a36.4,36.4,0,0,1,3.52-16.4,25.14,25.14,0,0,1,10.11-10.87,30.53,30.53,0,0,1,15.52-3.8,42.74,42.74,0,0,1,18.63,4.24l-5,12.79a55.57,55.57,0,0,0-6.66-2.63A23.25,23.25,0,0,0,196,233.73Z"/><path class="cls-1" d="M289.14,281.38H272.81v-24.5H253.94v24.5H237.62V221.28h16.33v22.28h18.87V221.28h16.32Z"/><path class="cls-1" d="M309.74,0,199.19,77.2a57.46,57.46,0,0,1,20.5,29c.09.3.17.61.26.92a57.05,57.05,0,0,1,2.31,16c0,1.25,0,2.5-.13,3.73h0v0c-.07,1-.17,2.09-.3,3.12,0,.21,0,.42-.08.63-.12.94-.27,1.86-.44,2.78,0,.21-.07.42-.11.62-.17.89-.37,1.78-.58,2.65-.07.28-.13.56-.2.83-.21.83-.45,1.64-.7,2.46a57,57,0,0,1-7.41,15.39l0,0q-1.43,2.09-3,4l-.12.15-.09.11q-.49.59-1,1.16l-.19.21q-.95,1.07-1.94,2.08l-.22.22-.27.27-.83.81-.62.58-.89.82c-.37.33-.74.65-1.12,1l-.47.39-.58.47-.92.73-.17.13-.61.47-1.25.9-.68.47-.06,0-1.35.89-.51.32-.25.16-1.39.83-.69.4q-.75.42-1.51.82l-.71.37-1.55.75c-.5.23-1,.47-1.51.7l28.57,25.53h25L225.46,167h0l-3.17-6.82,47.4-20.83,1.64-19.79-41.19,6.1L293.86,85.8l2.08-22.16L226,92.72l81-68.21Z"/><path class="cls-1" d="M140.89,175l-1.47-.72-.78-.4-1.44-.78-.76-.44-1.36-.82-.16-.1-.62-.4c-.45-.29-.9-.59-1.35-.89h0l-.72-.5L131,169l-.5-.38-.28-.21-.94-.75-.53-.43-.48-.4c-.38-.32-.77-.65-1.14-1l-.84-.77-.69-.65-.79-.77-.24-.24-.35-.36q-.89-.92-1.75-1.87l-.31-.35q-.49-.56-1-1.12l0,0-.26-.31q-1.55-1.89-2.94-3.92l-.1-.15a57,57,0,0,1-7.35-15.25c-.27-.86-.52-1.74-.75-2.62-.06-.22-.11-.44-.16-.66-.23-.93-.44-1.88-.62-2.83,0-.14-.05-.29-.08-.43q-.26-1.45-.46-2.92c0-.2,0-.39-.07-.59-.13-1-.23-2.11-.3-3.17h0c-.08-1.23-.13-2.48-.13-3.73a57.05,57.05,0,0,1,2.14-15.43c.14-.51.27-1,.43-1.54.29-.94.61-1.86,1-2.77,0-.12.08-.25.13-.37q.58-1.55,1.25-3.06A57.45,57.45,0,0,1,131,77.2L20.48,0l2.69,24.51,81,68.21L34.27,63.64,36.35,85.8l63.72,39.88-41.19-6.1,1.64,19.79,47.4,20.83-19,41h25l28.57-25.53C141.92,175.46,141.41,175.21,140.89,175Z"/><path class="cls-1" d="M213.71,116.33c-11.76-2.35-35.8-2.45-42,.31a17.46,17.46,0,0,1-13.36,0c-6.24-2.76-30.28-2.66-42-.31-.92,4.19-.51,5.88,0,7.82,2.45,3.17,2.25,9.16,4.6,13.45,2,3.72,26.08,7.41,34.78.87,5.35-4,5.22-14.24,9.34-14.16,4.12-.08,4,10.14,9.34,14.16,8.7,6.54,32.74,2.85,34.78-.87,2.35-4.3,2.15-10.28,4.6-13.45C214.22,122.21,214.63,120.53,213.71,116.33Zm-62.9,19.3c-5,3.55-21.94,2.7-24.59-1-2.94-4.11-3.67-12.94-1.29-14.46a7.65,7.65,0,0,1,3.51-1c23.21-2,24.89,1.39,26,2.58S156.36,131.66,150.81,135.63Zm53-1c-2.65,3.69-19.63,4.55-24.59,1-5.55-4-4.88-12.63-3.67-13.88s2.84-4.57,26-2.58a7.65,7.65,0,0,1,3.51,1C207.43,121.69,206.7,130.53,203.76,134.63ZM199,122.84c-.38,3.44-4,6.14-8.43,6.14s-8-2.7-8.43-6.14Zm-51.15,0c-.38,3.44-4,6.14-8.43,6.14s-8-2.7-8.43-6.14Z"/><path class="cls-1" d="M14.94,341.29V301.36h6.53v34.33h16.9v5.6Z"/><path class="cls-1" d="M95.63,321.27q0,9.75-4.88,15.16T77,341.83q-9,0-13.89-5.37t-4.85-15.25q0-9.89,4.88-15.18T77,300.73q8.9,0,13.76,5.38T95.63,321.27Zm-30.48,0q0,7.37,3,11.18T77,336.26q5.82,0,8.78-3.77t3-11.22q0-7.35-2.93-11.14T77,306.33q-5.87,0-8.86,3.8T65.15,321.27Z"/><path class="cls-1" d="M151.15,301.36V327.2a15.33,15.33,0,0,1-1.9,7.74,12.64,12.64,0,0,1-5.49,5.11,19.07,19.07,0,0,1-8.59,1.79q-7.43,0-11.55-3.93t-4.12-10.81V301.36h6.55v25.26q0,4.94,2.29,7.29t7,2.35q9.23,0,9.23-9.69V301.36Z"/><path class="cls-1" d="M210.26,341.29h-8l-19.64-31.82h-.22l.14,1.78q.38,5.08.38,9.29v20.76H177V301.36h7.92L204.5,333h.16q-.05-.63-.22-4.57t-.16-6.16V301.36h6Z"/><path class="cls-1" d="M252.76,319.63h14.69v20a42.59,42.59,0,0,1-6.92,1.67,49.1,49.1,0,0,1-7.17.49q-9.07,0-14-5.37t-4.92-15.14q0-9.64,5.54-15.09t15.27-5.45a29.75,29.75,0,0,1,11.85,2.4l-2.29,5.43a23.08,23.08,0,0,0-9.72-2.24q-6.39,0-10.1,4t-3.71,11q0,7.32,3.35,11.13t9.63,3.81a31.68,31.68,0,0,0,6.77-.79v-10.3h-8.27Z"/><path class="cls-1" d="M315.39,341.29H292.8V301.36h22.59v5.52H299.33v10.87h15v5.46h-15v12.54h16.06Z"/></svg>