<svg id="Layer_1" data-name="Layer 1" xmlns="http://www.w3.org/2000/svg" viewBox="0 0 69.62 71.93"><defs><style>.cls-1{fill:#fff;}</style></defs><title>Artboard 1</title><path class="cls-1" d="M37.09,1.06H31.73C20.67,1.06,12,10.08,12,21.59V50.34c0,11.51,8.67,20.53,19.73,20.53h5.35A20.55,20.55,0,0,0,57.62,50.34V21.59A20.55,20.55,0,0,0,37.09,1.06ZM34.6,11.82H35A1.18,1.18,0,0,1,36.19,13v8.36A1.18,1.18,0,0,1,35,22.53H34.6a1.18,1.18,0,0,1-1.17-1.17V13a1.18,1.18,0,0,1,1.17-1.17ZM54.93,50.34A17.87,17.87,0,0,1,37.09,68.18H31.73c-9.56,0-17-7.84-17-17.85V21.59c0-10,7.49-17.85,17-17.85h1.72V9.31A3.87,3.87,0,0,0,30.74,13v8.36A3.87,3.87,0,0,0,33.45,25v6.91a1.34,1.34,0,1,0,2.68,0V25a3.87,3.87,0,0,0,2.74-3.69V13A3.87,3.87,0,0,0,36.13,9.3V3.75h1A17.87,17.87,0,0,1,54.93,21.59Zm0,0"/></svg>