<?xml version="1.0" encoding="utf-8"?>
<!-- Generator: Adobe Illustrator 19.2.1, SVG Export Plug-In . SVG Version: 6.00 Build 0)  -->
<svg version="1.1" baseProfile="tiny" id="Layer_1" xmlns="http://www.w3.org/2000/svg" xmlns:xlink="http://www.w3.org/1999/xlink"
	 x="0px" y="0px" viewBox="0 0 200 200" xml:space="preserve">
<g>
	<path fill="#CC187B" d="M122.403,55.189c-0.963,0-2.515,0.017-4.223,1.114L35.915,82.292c-0.678,0.218-1.31,0.594-1.815,1.098
		c-0.588,0.588-5.797,6.105-5.797,16.606c0,10.518,5.209,16.013,5.797,16.623c0.504,0.504,1.137,0.879,1.815,1.098l14.792,4.682l0,0
		v17.939c0,7.393,6.038,13.431,13.431,13.431h22.403c7.421,0,13.459-6.038,13.459-13.431v-2.386l18.18,5.73
		c1.708,1.12,3.237,1.12,4.201,1.12h0.022c3.344,0,13.431-0.045,13.431-44.807C135.834,55.189,125.73,55.189,122.403,55.189
		L122.403,55.189z M91.027,135.852v4.486c0,2.447-2.011,4.464-4.486,4.464H64.138c-2.47,0-4.458-2.016-4.458-4.464v-15.122
		l31.482,9.958C91.139,135.393,91.027,135.611,91.027,135.852L91.027,135.852z M111.902,132.307l-72.004-22.734
		c-0.919-1.355-2.621-4.503-2.621-9.578c0-5.08,1.703-8.25,2.621-9.566l72.004-22.75c-1.731,6.648-2.957,16.78-2.957,32.317
		C108.945,115.549,110.171,125.676,111.902,132.307L111.902,132.307z M122.403,135.04c-1.731-3.041-4.486-12.602-4.486-35.044
		c0-22.426,2.756-32.009,4.486-35.028c1.703,3.019,4.486,12.602,4.486,35.028C126.89,122.438,124.106,132.021,122.403,135.04
		L122.403,135.04z M145.658,137.779c5.293-11.179,8.093-24.246,8.093-37.783c0-13.526-2.8-26.587-8.093-37.766
		c-1.047-2.229-3.719-3.193-5.948-2.123c-2.257,1.053-3.198,3.719-2.145,5.954c4.727,9.997,7.242,21.726,7.242,33.935
		c0,12.227-2.515,23.955-7.242,33.93c-1.053,2.235-0.09,4.901,2.145,5.976c0.611,0.28,1.266,0.437,1.899,0.437
		C143.294,140.339,144.891,139.375,145.658,137.779L145.658,137.779z M149.444,42.867c-1.837-1.641-4.682-1.462-6.324,0.398
		c-1.641,1.859-1.467,4.682,0.392,6.323c11.862,10.479,19.211,29.797,19.211,50.407c0,20.628-7.348,39.945-19.211,50.424
		c-1.86,1.641-2.033,4.464-0.392,6.323c0.896,0.986,2.123,1.512,3.372,1.512c1.047,0,2.1-0.375,2.952-1.137
		c13.935-12.299,22.252-33.65,22.252-57.123C171.696,76.539,163.379,55.189,149.444,42.867L149.444,42.867z M149.444,42.867"/>
</g>
</svg>
