<?xml version="1.0" encoding="utf-8"?>
<!-- Generator: Adobe Illustrator 19.2.1, SVG Export Plug-In . SVG Version: 6.00 Build 0)  -->
<svg version="1.1" baseProfile="tiny" id="Layer_1" xmlns="http://www.w3.org/2000/svg" xmlns:xlink="http://www.w3.org/1999/xlink"
	 x="0px" y="0px" viewBox="0 0 200 200" xml:space="preserve">
<path fill="#CC187B" d="M157.65,38.732c-2.419,0-4.394,1.947-4.394,4.366c0,2.446,1.975,4.394,4.394,4.394
	c2.425,0,4.394,1.975,4.394,4.394v21.941H39.187V51.886c0-2.419,1.947-4.394,4.366-4.394c2.446,0,4.394-1.947,4.394-4.394
	c0-2.419-1.947-4.366-4.394-4.366c-7.24,0-13.154,5.891-13.154,13.154v105.31c0,7.262,5.913,13.181,13.154,13.181H157.65
	c7.263,0,13.181-5.919,13.181-13.181V51.886C170.831,44.623,164.913,38.732,157.65,38.732L157.65,38.732z M162.044,157.196
	c0,2.424-1.969,4.394-4.394,4.394H43.553c-2.419,0-4.366-1.969-4.366-4.394V82.614h122.857V157.196z M56.734,56.279
	c2.419,0,4.394-1.975,4.394-4.394V34.339c0-2.424-1.975-4.394-4.394-4.394c-2.425,0-4.394,1.969-4.394,4.394v17.547
	C52.34,54.305,54.309,56.279,56.734,56.279L56.734,56.279z M74.281,56.279c2.419,0,4.393-1.975,4.393-4.394V34.339
	c0-2.424-1.975-4.394-4.393-4.394c-2.419,0-4.394,1.969-4.394,4.394v17.547C69.887,54.305,71.862,56.279,74.281,56.279
	L74.281,56.279z M91.828,56.279c2.425,0,4.394-1.975,4.394-4.394V34.339c0-2.424-1.969-4.394-4.394-4.394
	c-2.419,0-4.394,1.969-4.394,4.394v17.547C87.434,54.305,89.409,56.279,91.828,56.279L91.828,56.279z M109.375,56.279
	c2.446,0,4.394-1.975,4.394-4.394V34.339c0-2.424-1.947-4.394-4.394-4.394c-2.419,0-4.366,1.969-4.366,4.394v17.547
	C105.009,54.305,106.956,56.279,109.375,56.279L109.375,56.279z M126.95,56.279c2.419,0,4.366-1.975,4.366-4.394V34.339
	c0-2.424-1.947-4.394-4.366-4.394c-2.446,0-4.394,1.969-4.394,4.394v17.547C122.556,54.305,124.503,56.279,126.95,56.279
	L126.95,56.279z M144.497,56.279c2.419,0,4.394-1.975,4.394-4.394V34.339c0-2.424-1.975-4.394-4.394-4.394
	c-2.424,0-4.393,1.969-4.393,4.394v17.547C140.103,54.305,142.072,56.279,144.497,56.279L144.497,56.279z M124.739,139.649
	c-3.62,0-6.577-2.957-6.577-6.577c0-2.424-1.969-4.393-4.393-4.393c-2.419,0-4.394,1.969-4.394,4.393
	c0,8.464,6.9,15.364,15.364,15.364c8.464,0,15.364-6.9,15.364-15.364c0-4.306-1.755-8.184-4.63-10.97
	c2.874-2.786,4.63-6.687,4.63-10.97c0-8.464-6.9-15.364-15.364-15.364c-8.464,0-15.364,6.9-15.364,15.364
	c0,2.419,1.975,4.394,4.394,4.394c2.424,0,4.393-1.975,4.393-4.394c0-3.642,2.957-6.577,6.577-6.577
	c3.642,0,6.577,2.935,6.577,6.577c0,3.62-2.934,6.577-6.577,6.577c-2.419,0-4.394,1.969-4.394,4.394
	c0,2.419,1.975,4.394,4.394,4.394c3.642,0,6.577,2.935,6.577,6.577C131.316,136.692,128.381,139.649,124.739,139.649
	L124.739,139.649z M61.127,144.042c0,2.419,1.947,4.394,4.366,4.394h21.941c2.446,0,4.394-1.975,4.394-4.394
	c0-2.425-1.947-4.394-4.394-4.394h-15.21c1.821-2.337,4.393-5.035,6.511-7.24c6.429-6.752,13.093-13.735,13.093-21.277
	c0-8.464-6.878-15.364-15.364-15.364c-8.464,0-15.337,6.9-15.337,15.364c0,2.419,1.947,4.394,4.366,4.394
	c2.446,0,4.394-1.975,4.394-4.394c0-3.642,2.957-6.577,6.577-6.577c3.642,0,6.604,2.935,6.604,6.577
	c0,4.026-5.935,10.219-10.674,15.21C66.333,132.666,61.127,138.129,61.127,144.042L61.127,144.042z M61.127,144.042"/>
</svg>
