<?xml version="1.0" encoding="utf-8"?>
<!-- Generator: Adobe Illustrator 19.2.1, SVG Export Plug-In . SVG Version: 6.00 Build 0)  -->
<svg version="1.1" baseProfile="tiny" id="Layer_1" xmlns="http://www.w3.org/2000/svg" xmlns:xlink="http://www.w3.org/1999/xlink"
	 x="0px" y="0px" viewBox="0 0 37.486 37.486" xml:space="preserve">
<g>
	<path fill-rule="evenodd" fill="#FFFFFF" d="M19.376,7.407c0.326,0.13,0.66,0.243,0.972,0.4c0.109,0.055,0.229,0.215,0.233,0.332
		c0.036,1.119,0.007,2.236-0.304,3.321c-0.101,0.347-0.242,0.701-0.444,0.998c-0.595,0.877-1.733,0.82-2.172-0.136
		c-0.248-0.542-0.403-1.152-0.469-1.746c-0.087-0.778-0.036-1.569-0.062-2.355c-0.008-0.261,0.116-0.398,0.336-0.481
		c0.305-0.114,0.612-0.223,0.918-0.334C18.715,7.406,19.045,7.406,19.376,7.407"/>
	<path fill-rule="evenodd" fill="#FFFFFF" d="M30.19,12.905c0.069,0.357-0.138,0.608-0.465,0.851
		c-1.942,1.447-3.868,2.915-5.799,4.376c-0.393,0.298-0.813,0.367-1.04,0.168c-0.257-0.226-0.237-0.689,0.05-1.102
		c1.421-2.051,2.847-4.102,4.258-6.161c0.158-0.231,0.334-0.333,0.595-0.306c0.289,0.029,0.583,0.045,0.865,0.113
		C29.708,11.1,30.199,11.749,30.19,12.905"/>
	<path fill-rule="evenodd" fill="#FFFFFF" d="M7.401,12.856c-0.004-1.226,0.659-1.944,1.812-2.12
		c0.661-0.101,1.081,0.053,1.471,0.651c1.29,1.972,2.655,3.895,3.987,5.839c0.077,0.112,0.167,0.237,0.182,0.365
		c0.036,0.277,0.06,0.596-0.239,0.743c-0.309,0.153-0.616,0.052-0.887-0.154c-1.078-0.824-2.157-1.646-3.236-2.468
		c-0.877-0.668-1.746-1.35-2.638-1.996C7.519,13.474,7.334,13.209,7.401,12.856"/>
	<path fill-rule="evenodd" fill="#FFFFFF" d="M17.708,24.288L3.057,19.734c0,0-3.184,1.498-0.9,4.531L17.708,24.288z"/>
	<path fill-rule="evenodd" fill="#FFFFFF" d="M19.771,24.291l14.667-4.509c0,0,3.177,1.507,0.884,4.534L19.771,24.291z"/>
	<path fill="#FFFFFF" d="M3.746,27.691c0.001-0.309,0.056-0.606,0.165-0.889c0.11-0.284,0.268-0.532,0.478-0.747
		c0.209-0.215,0.469-0.386,0.778-0.514c0.31-0.129,0.665-0.193,1.066-0.192c0.55,0,1.009,0.116,1.379,0.346
		c0.369,0.23,0.645,0.525,0.828,0.887L6.85,27.059c-0.154-0.224-0.363-0.336-0.627-0.336c-0.223,0-0.412,0.084-0.567,0.253
		c-0.155,0.169-0.233,0.408-0.233,0.717c-0.001,0.309,0.076,0.549,0.231,0.718c0.154,0.169,0.344,0.254,0.567,0.254
		c0.263,0,0.473-0.111,0.628-0.334l1.589,0.483c-0.184,0.361-0.461,0.656-0.831,0.884c-0.37,0.229-0.83,0.342-1.38,0.342
		C5.825,30.04,5.47,29.975,5.16,29.846c-0.309-0.129-0.568-0.302-0.777-0.517c-0.209-0.215-0.367-0.465-0.476-0.748
		C3.799,28.297,3.745,28,3.746,27.691"/>
	<path fill="#FFFFFF" d="M8.653,27.698c0.001-0.309,0.056-0.606,0.165-0.889c0.11-0.284,0.268-0.532,0.478-0.747
		c0.209-0.215,0.469-0.386,0.778-0.515c0.31-0.128,0.665-0.192,1.066-0.192c0.55,0.001,1.009,0.117,1.379,0.346
		c0.369,0.23,0.645,0.525,0.828,0.886l-1.591,0.479c-0.154-0.224-0.363-0.336-0.627-0.336c-0.223,0-0.412,0.084-0.567,0.253
		c-0.155,0.169-0.233,0.408-0.233,0.717c-0.001,0.309,0.076,0.549,0.231,0.718c0.154,0.169,0.344,0.254,0.567,0.254
		c0.263,0,0.473-0.111,0.628-0.334l1.589,0.483c-0.184,0.361-0.461,0.656-0.831,0.884c-0.37,0.229-0.83,0.343-1.38,0.342
		c-0.401,0-0.756-0.066-1.065-0.195c-0.309-0.129-0.568-0.302-0.777-0.517c-0.209-0.215-0.367-0.465-0.476-0.748
		C8.707,28.304,8.653,28.008,8.653,27.698"/>
	<path fill="#FFFFFF" d="M18.396,29.974l-1.633-0.002l0.004-2.544c0.001-0.224-0.049-0.385-0.149-0.486
		c-0.1-0.1-0.216-0.15-0.348-0.15c-0.137,0-0.284,0.06-0.439,0.18c-0.155,0.12-0.269,0.275-0.344,0.463l-0.004,2.536l-1.633-0.003
		l0.007-4.52l1.47,0.002l-0.001,0.67c0.161-0.246,0.386-0.433,0.676-0.562c0.289-0.129,0.632-0.193,1.027-0.192
		c0.31,0,0.555,0.057,0.735,0.169c0.18,0.112,0.317,0.251,0.412,0.417c0.094,0.167,0.155,0.344,0.184,0.534
		c0.028,0.189,0.042,0.361,0.042,0.516L18.396,29.974z"/>
	<path fill="#FFFFFF" d="M20.519,30.063c-0.224,0-0.433-0.038-0.627-0.113s-0.362-0.177-0.502-0.306
		c-0.14-0.129-0.25-0.282-0.331-0.46c-0.08-0.178-0.12-0.37-0.119-0.576c0-0.229,0.049-0.439,0.147-0.627
		c0.098-0.189,0.233-0.352,0.405-0.489c0.172-0.137,0.377-0.243,0.615-0.317c0.238-0.074,0.5-0.111,0.786-0.111
		c0.367,0,0.67,0.058,0.911,0.173V27.1c0.001-0.211-0.061-0.369-0.184-0.473c-0.124-0.103-0.322-0.155-0.598-0.155
		c-0.257-0.001-0.496,0.041-0.713,0.124c-0.218,0.083-0.448,0.204-0.688,0.364l-0.471-1.015c0.597-0.383,1.276-0.574,2.038-0.572
		c0.722,0.001,1.277,0.163,1.667,0.483c0.389,0.322,0.583,0.803,0.582,1.445l-0.002,0.877c0,0.155,0.028,0.262,0.086,0.322
		c0.057,0.06,0.16,0.096,0.309,0.108l-0.003,1.375c-0.149,0.028-0.289,0.05-0.421,0.064c-0.132,0.014-0.249,0.021-0.353,0.021
		c-0.292-0.001-0.514-0.054-0.666-0.16c-0.152-0.106-0.25-0.263-0.296-0.469l-0.034-0.163c-0.201,0.257-0.433,0.453-0.697,0.587
		C21.097,29.996,20.816,30.063,20.519,30.063 M21.01,28.895c0.097,0,0.198-0.015,0.301-0.047c0.103-0.031,0.195-0.073,0.276-0.124
		c0.063-0.045,0.115-0.095,0.154-0.15c0.04-0.054,0.061-0.11,0.061-0.167l0-0.335c-0.097-0.035-0.203-0.064-0.318-0.086
		c-0.115-0.023-0.218-0.035-0.309-0.035c-0.201,0-0.367,0.048-0.499,0.146c-0.132,0.097-0.198,0.22-0.198,0.369
		c0,0.126,0.05,0.23,0.15,0.309C20.728,28.854,20.855,28.895,21.01,28.895"/>
	
		<rect x="24.267" y="28.532" transform="matrix(0.0016 -1 1 0.0016 -4.1757 54.2041)" fill="#FFFFFF" width="1.581" height="1.323"/>
	<path fill="#FFFFFF" d="M29.633,26.862c-0.315,0-0.602,0.033-0.859,0.102c-0.258,0.068-0.45,0.183-0.576,0.343l-0.005,2.682
		l-1.633-0.002l0.007-4.521l1.495,0.002l-0.002,0.859c0.161-0.303,0.36-0.536,0.599-0.699c0.238-0.163,0.495-0.244,0.77-0.244
		c0.109,0,0.178,0.004,0.206,0.009L29.633,26.862z"/>
	<path fill="#FFFFFF" d="M32.327,30.081c-0.407,0-0.763-0.066-1.069-0.195c-0.306-0.129-0.564-0.302-0.773-0.517
		c-0.209-0.215-0.366-0.465-0.471-0.749c-0.106-0.284-0.158-0.58-0.158-0.89c0.001-0.309,0.054-0.606,0.16-0.889
		c0.106-0.284,0.264-0.533,0.474-0.747c0.209-0.215,0.467-0.386,0.774-0.514c0.307-0.128,0.664-0.192,1.07-0.192
		c0.401,0,0.756,0.066,1.065,0.195c0.309,0.129,0.568,0.301,0.777,0.517c0.209,0.215,0.366,0.465,0.472,0.748
		c0.105,0.284,0.158,0.58,0.157,0.89c0,0.309-0.054,0.606-0.16,0.889s-0.264,0.532-0.474,0.747
		c-0.209,0.214-0.469,0.386-0.778,0.514C33.084,30.018,32.728,30.082,32.327,30.081 M31.532,27.734
		c-0.001,0.304,0.074,0.542,0.222,0.714c0.149,0.172,0.341,0.258,0.576,0.259c0.235,0,0.427-0.085,0.576-0.257
		c0.149-0.171,0.225-0.409,0.225-0.713c0-0.304-0.074-0.542-0.223-0.714c-0.149-0.172-0.341-0.258-0.575-0.258
		c-0.235,0-0.427,0.085-0.576,0.257C31.607,27.192,31.532,27.43,31.532,27.734"/>
</g>
</svg>
