<svg id="Layer_1" data-name="Layer 1" xmlns="http://www.w3.org/2000/svg" viewBox="0 0 1760.14 804.07"><defs><style>.cls-1{fill:#fff;}</style></defs><title>cs4hs</title><polygon class="cls-1" points="315.78 221.83 354.2 230.76 360.36 218.81 321.94 209.88 315.78 221.83"/><path class="cls-1" d="M371.32,841a9,9,0,0,0-9.48,4.49c-1.7,3.3-.22,6.64,3.32,7.46a9,9,0,0,0,9.48-4.49C376.35,845.19,374.86,841.86,371.32,841Z" transform="translate(-79.93 -557.96)"/><polygon class="cls-1" points="328.1 197.93 366.52 206.86 372.67 194.91 334.25 185.98 328.1 197.93"/><path class="cls-1" d="M476.61,845.44a9,9,0,0,0-9.48,4.49c-1.7,3.3-.22,6.64,3.32,7.46a9,9,0,0,0,9.48-4.49C481.63,849.6,480.15,846.26,476.61,845.44Z" transform="translate(-79.93 -557.96)"/><path class="cls-1" d="M1746.45,660.87c-16.14-10.62-32.84-20.79-50.77-25-118.5-27.93-481.34-74.26-481.34-74.26-48.53-9.49-98.85-.07-141.69,24.77,125.23,18.52,246.72,37.19,276.6,44.23,19.17,4.51,36.45,15.2,52.5,25.76,47.55,31.27,80.09,79.48,91.63,135.75s0.63,112.81-30.66,160.39l-5.37,7.52h33.38l123.89-190c31.21-47.46,92.5-64.22,136.2-35.49s54.38,91.94,23.17,139.4L1719,960h81.54l5.3-10.49C1868.92,853.66,1842.32,723.92,1746.45,660.87Z" transform="translate(-79.93 -557.96)"/><path class="cls-1" d="M283.79,989.88c44.08,0,149.26,14,149.26,72.13v63.11H337.38v-27.55c0-15-28.55-17.53-48.59-17.53-50.09,0-83.65,28.55-83.65,89.15,0,69.63,38.07,102.69,89.66,102.69,19.53,0,46.08-3,46.08-17.53V1226.8h96.17v64.11c0,56.1-100.68,71.13-150.77,71.13-110.69,0-192.84-80.64-192.84-186.32C93.45,1067,177.6,989.88,283.79,989.88Z" transform="translate(-79.93 -557.96)"/><path class="cls-1" d="M568.25,1223.29v22.53c0,15.53,19,23,42.57,23s37.57-8,37.57-20c0-21-38.57-28.54-73.13-42.07-49.59-20-94.17-42.08-94.17-107.69,0-86.16,70.12-109.19,136.24-109.19,64.11,0,128.22,23.54,128.22,73.13v56.1H649.89v-19c0-11.52-13-17-32.56-17-15.53,0-27.55,4-27.55,16,0,18.52,26,27,55.6,37.56,56.1,18.53,111.7,40.57,111.7,108.69,0,88.15-76.63,116.71-146.26,116.71-72.12,0-138.74-32.06-138.74-92.67v-46.08h96.17Z" transform="translate(-79.93 -557.96)"/><path class="cls-1" d="M781.58,1209.77L907.81,995.89h130.73v196.35h40.07v80.64h-40.07V1356H934.35v-83.14H781.58v-63.11Zm97.67-18.53v1h55.1v-70.63a163.84,163.84,0,0,1,2-27l2-14.53h-2l-5,12c-3.51,7.51-6.51,16-12,25.54Z" transform="translate(-79.93 -557.96)"/><path class="cls-1" d="M1119.14,1278.88h38.07V1073h-38.07V995.89h184.33V1073h-38.07v62.61h102.68V1073H1330V995.89h184.33V1073h-38.07v205.86h38.07V1356H1330v-77.14h38.07v-59.1H1265.39v59.1h38.07V1356H1119.14v-77.14Z" transform="translate(-79.93 -557.96)"/><path class="cls-1" d="M1651,1223.29v22.53c0,15.53,19,23,42.57,23s37.57-8,37.57-20c0-21-38.57-28.54-73.13-42.07-49.59-20-94.17-42.08-94.17-107.69,0-86.16,70.12-109.19,136.24-109.19,64.11,0,128.22,23.54,128.22,73.13v56.1h-95.67v-19c0-11.52-13-17-32.56-17-15.53,0-27.55,4-27.55,16,0,18.52,26,27,55.6,37.56,56.1,18.53,111.7,40.57,111.7,108.69,0,88.15-76.63,116.71-146.26,116.71-72.12,0-138.74-32.06-138.74-92.67v-46.08H1651Z" transform="translate(-79.93 -557.96)"/><path class="cls-1" d="M998.24,960h78.29l9.3-13.47c29.7-45.18,40-99.17,29.09-152.57s-41.84-99.05-87-128.73c-15.25-10-31.59-20.08-49-24.21-53.52-12.61-406-63.18-539.8-82.32A211.55,211.55,0,0,0,280,653.54L79.93,960h690L893.83,770c31.21-47.46,92.5-64.22,136.2-35.49s54.38,91.94,23.17,139.4ZM378.7,896.28l-38.42-8.93c-7.08-1.65-10.05-8.32-6.65-14.93L401.38,741c3.4-6.59,11.89-10.62,19-9l38.42,8.93c7.08,1.65,10,8.33,6.65,14.93L397.67,887.3C394.26,893.91,385.78,897.92,378.7,896.28Zm102.21,10.38-64-14.89c3.4-6.6,11.89-10.62,19-9L442,870.85l38.42,8.93-6.16,12C481.34,893.38,484.31,900.05,480.91,906.66ZM618.6,764.71L563.17,872.26c-3.4,6.6-11.89,10.62-19,9l-115.26-26.8,12.32-23.9,115.26,26.8,49.27-95.6-115.26-26.8L452.11,726l-12.81-3c3.4-6.59,11.89-10.62,19-9l153.68,35.73C619,751.43,622,758.11,618.6,764.71Z" transform="translate(-79.93 -557.96)"/><path class="cls-1" d="M1482.78,794.27c-11-53.43-41.84-99.2-87-128.88-15.25-10-31.59-20.16-49-24.28-53.29-12.55-402.92-62.77-538-82.1A209.5,209.5,0,0,0,721,588.76c119.34,17.71,231.8,35.09,260.39,41.83,19.17,4.51,36.45,15.2,52.5,25.76,47.55,31.27,80.09,79.48,91.63,135.75s0.63,112.81-30.66,160.39l-5.37,7.52h53.55l123.89-190c31.21-47.46,92.5-64.22,136.2-35.49s54.38,91.94,23.17,139.4l-55,86.13h73l9.3-13.47C1483.39,901.37,1493.73,847.67,1482.78,794.27Z" transform="translate(-79.93 -557.96)"/></svg>