<svg id="Layer_1" data-name="Layer 1" xmlns="http://www.w3.org/2000/svg" viewBox="0 0 612 792"><defs><style>.cls-1{fill:#fff;}</style></defs><title>logo</title><path class="cls-1" d="M132.19,601.45H101.93V514.21H74.59V489.46h84.87v24.74H132.19v87.24Z"/><path class="cls-1" d="M267.51,601.45H201v-112h66.49v24.28H231.27v17.62h33.55v24.28H231.27v21.14h36.23v24.66Z"/><path class="cls-1" d="M363.28,512.67a19.28,19.28,0,0,0-16.85,8.84q-6.06,8.85-6.05,24.4,0,32.33,24.58,32.33a50.31,50.31,0,0,0,14.4-2.07,144.17,144.17,0,0,0,14-5v25.58q-14,6.21-31.71,6.2-25.36,0-38.87-14.71t-13.52-42.51q0-17.38,6.55-30.56a46.85,46.85,0,0,1,18.84-20.26q12.29-7.09,28.92-7.09a79.62,79.62,0,0,1,34.7,7.89L389,519.57a103.47,103.47,0,0,0-12.4-4.9A43.32,43.32,0,0,0,363.28,512.67Z"/><path class="cls-1" d="M536.74,601.45H506.33V555.8H471.17v45.65H440.76v-112h30.41V531h35.16V489.46h30.41v112Z"/><path class="cls-1" d="M401.62,352.88a107.09,107.09,0,0,1-53.74,51.65l53.23,47.56h46.58Z"/><path class="cls-1" d="M401.62,352.88A107.08,107.08,0,0,1,350,403.57l68.11-15.18Z"/><path class="cls-1" d="M411.89,313.58a106.66,106.66,0,0,1-54.13,86l142.75-62.74L503.57,300Z"/><path class="cls-1" d="M411.89,313.58a106.24,106.24,0,0,1-4.76,25.4l51.67-32.34Z"/><path class="cls-1" d="M400.31,257.82a106.21,106.21,0,0,1,11.83,48.81,108.09,108.09,0,0,1-1,14.57l134.42-84.14,3.87-41.28Z"/><path class="cls-1" d="M400.34,257.86A106.06,106.06,0,0,1,409,280.93l34.42-41Z"/><path class="cls-1" d="M369.17,221a107.06,107.06,0,0,1,33.89,42.52l167-140.67,5-45.67Z"/><path class="cls-1" d="M209.7,352.88a107.08,107.08,0,0,0,53.74,51.65l-53.23,47.56H163.64Z"/><path class="cls-1" d="M209.7,352.88a107.09,107.09,0,0,0,51.62,50.69l-68.11-15.18Z"/><path class="cls-1" d="M199.43,313.58a106.66,106.66,0,0,0,54.13,86L110.81,336.86,107.76,300Z"/><path class="cls-1" d="M199.44,313.58a106.24,106.24,0,0,0,4.76,25.4l-51.68-32.34Z"/><path class="cls-1" d="M211,257.82a106.21,106.21,0,0,0-11.83,48.81,107.71,107.71,0,0,0,1,14.57L65.78,237.06l-3.87-41.28Z"/><path class="cls-1" d="M211,257.86a106.06,106.06,0,0,0-8.67,23.07l-34.41-41Z"/><path class="cls-1" d="M242.16,221a107,107,0,0,0-33.89,42.52l-167-140.67-5-45.67Z"/><path class="cls-1" d="M396.21,293.95c-21.92-4.38-66.7-4.57-78.32.57a32.54,32.54,0,0,1-24.89,0c-11.62-5.14-56.41-5-78.32-.57-1.72,7.81-1,11,0,14.58,4.57,5.91,4.19,17.06,8.57,25.06,3.79,6.93,48.59,13.8,64.79,1.62,10-7.48,9.73-26.52,17.4-26.38,7.67-.14,7.44,18.9,17.4,26.38,16.21,12.18,61,5.31,64.79-1.62,4.38-8,4-19.15,8.57-25.06C397.16,304.91,397.93,301.76,396.21,293.95ZM279,329.9c-9.25,6.61-40.88,5-45.82-1.86-5.48-7.65-6.84-24.11-2.4-26.94a14.23,14.23,0,0,1,6.54-1.87c43.24-3.72,46.37,2.58,48.52,4.8S289.38,322.5,279,329.9ZM377.68,328c-4.94,6.88-36.57,8.47-45.82,1.86-10.35-7.4-9.1-23.53-6.84-25.86s5.28-8.52,48.52-4.8a14.25,14.25,0,0,1,6.54,1.87C384.52,303.93,383.16,320.39,377.68,328Zm-8.88-22c-0.72,6.41-7.47,11.44-15.7,11.44s-15-5-15.7-11.44h31.4Zm-95.3,0c-0.72,6.41-7.47,11.44-15.7,11.44s-15-5-15.7-11.44h31.4Z"/><path class="cls-1" d="M25.89,713V638.66H38v64H69.54V713H25.89Z"/><path class="cls-1" d="M176.23,675.76q0,18.16-9.08,28.24t-25.72,10.07q-16.84,0-25.87-10t-9-28.42q0-18.42,9.08-28.29t25.92-9.87q16.59,0,25.64,10T176.23,675.76Zm-56.78,0q0,13.74,5.54,20.83t16.44,7.1q10.84,0,16.36-7t5.52-20.91q0-13.69-5.47-20.76t-16.31-7.07q-10.94,0-16.51,7.07T119.45,675.76Z"/><path class="cls-1" d="M279.67,638.66V686.8a28.55,28.55,0,0,1-3.54,14.42,23.56,23.56,0,0,1-10.23,9.52,35.53,35.53,0,0,1-16,3.33q-13.84,0-21.52-7.33t-7.68-20.15V638.66h12.21v47.06q0,9.21,4.27,13.58t13.13,4.38q17.2,0,17.2-18.06v-47h12.16Z"/><path class="cls-1" d="M389.78,713H374.88l-36.58-59.28h-0.41l0.25,3.31q0.71,9.46.71,17.3V713h-11V638.66h14.75l36.48,59h0.31q-0.1-1.17-.41-8.52t-0.31-11.47v-39h11.14V713Z"/><path class="cls-1" d="M469,672.7h27.37V710a79.38,79.38,0,0,1-12.9,3.1,91.44,91.44,0,0,1-13.36.92q-16.89,0-26.05-10t-9.16-28.21q0-18,10.33-28.11t28.44-10.15a55.42,55.42,0,0,1,22.08,4.48l-4.27,10.13A43,43,0,0,0,473.34,648q-11.91,0-18.83,7.48T447.59,676q0,13.64,6.23,20.73t17.94,7.1a59,59,0,0,0,12.62-1.47V683.13H469V672.7Z"/><path class="cls-1" d="M585.65,713H543.57V638.66h42.08v10.28H555.73v20.25h28v10.17h-28v23.35h29.92V713Z"/></svg>